<?xml version="1.0" encoding="utf-8"?>
<!-- Generator: Adobe Illustrator 19.2.1, SVG Export Plug-In . SVG Version: 6.00 Build 0)  -->
<svg version="1.1" id="layer" xmlns="http://www.w3.org/2000/svg" xmlns:xlink="http://www.w3.org/1999/xlink" x="0px" y="0px"
	 viewBox="0 0 652 652" style="enable-background:new 0 0 652 652;" xml:space="preserve">
<style type="text/css">
	.st0{fill:#E81C32;}
	.st1{fill:#005BAE;}
</style>
<polygon class="st0" points="29.9,367.1 636.6,367.2 636.6,367.4 14.7,388.8 "/>
<g>
	<path class="st1" d="M420.8,329.1c-2.4,6.9-7,13-16.7,18c-7.6,3.9-19,5-35.4,5c-32.6,0-36.6-15.2-28.7-37.6
		c7.8-22.2,21.9-28.7,53.2-28.7c34.3,0,38.5,13,30.3,36.3h-52c-1.6,4.3-3.3,8.3-1.9,11.2c1.2,2.5,3.7,3.3,7.1,3.3
		c6.5,0,9.6-3,11.4-7.6H420.8z M394.7,311.1c2.1-5.5,2.2-10.6-5.7-10.6c-7.9,0-10.6,2.7-13.7,10.6H394.7z"/>
	<path class="st1" d="M581.7,352.1c31.2,0,45.4-6.5,53.2-28.7c7.9-22.3,3.8-37.6-28.7-37.6c-31.3,0-45.4,6.5-53.2,28.7
		C545.1,336.9,549.1,352.1,581.7,352.1 M582.6,332.8c-1.3-2.6-0.2-5.3,1.8-10.6l3.9-11c2.6-6.9,4.5-10.6,12-10.6
		c2.6,0,4.6,0.8,5.5,2.6c1.1,2,0.4,4.7-1.7,10.7l-4.5,12.4c-2.8,7.7-5.5,9.5-11.1,9.5C585.6,335.7,583.6,334.7,582.6,332.8"/>
</g>
<g>
	<path class="st1" d="M318,268.9h-57.5l26.7,17.5h-32.7L230.9,351h62.2c26.1,0,31.5-6.2,38.9-26.8l8.8-24.8
		C347.6,280.6,344.1,268.9,318,268.9 M304.7,294.9l-10.4,29.2c-2.4,6.3-4,8.7-10.9,8.7h-8.3l16.7-46.4h6
		C304.8,286.4,307.1,288.6,304.7,294.9"/>
	<path class="st1" d="M119.1,284h0.3l-7.3,38.3H97L119.1,284z M114.2,284H87.9l-46.8,67h39.3l7.4-12.9H109l-2.4,12.9h38.8l5.1-82.1
		h-52L114.2,284z"/>
	<polygon class="st1" points="448.5,265.3 417.6,351 451.2,351 481.4,265.3 	"/>
	<path class="st1" d="M201.4,331.3c-9,0-11.8-2.6-7.9-13.6l8.6-23.5c2.6-7.2,6.3-7.9,13.3-7.9h26.7l6.6-18.1h-38
		c-26.7,0-39,1.9-46.3,23.4l-9.9,27.6c-6,16.6-9.3,31.9,17.4,31.9h50.9l7.2-19.7H201.4z"/>
	<path class="st1" d="M516,326.8c-2.7,7.1-5.9,9.1-11.4,9c-3-0.1-5-0.8-5.9-3c-1.1-2.7-0.2-5.3,1.8-10.6l3.9-11
		c2.6-7.1,4.6-10.6,11.7-10.6c2.6,0,4.9,0.8,5.8,2.6c1,1.8,0.6,4.2-1.1,8.9h33.1c2.5-16-5.1-26.2-31.8-26.2
		c-31.2,0-45.4,6.5-53.2,28.7c-7.9,22.3-3.8,37.6,28.7,37.6c29.6,0,44-4.6,52.1-25.3H516z"/>
</g>
</svg>
