<?xml version="1.0" encoding="utf-8"?>
<!-- Generator: Adobe Illustrator 19.2.1, SVG Export Plug-In . SVG Version: 6.00 Build 0)  -->
<svg version="1.1" id="layer" xmlns="http://www.w3.org/2000/svg" xmlns:xlink="http://www.w3.org/1999/xlink" x="0px" y="0px"
	 viewBox="0 0 652 652" style="enable-background:new 0 0 652 652;" xml:space="preserve">
<style type="text/css">
	.st0{fill:#005CA9;}
	.st1{fill:#FFFFFF;}
	.st2{fill-rule:evenodd;clip-rule:evenodd;fill:#FFFFFF;}
</style>
<rect x="15.1" y="75.7" class="st0" width="623.6" height="404.5"/>
<path class="st1" d="M158.4,429.5h337.1V126.4H158.4V429.5z M171.9,138.6H482v278.8H171.9V138.6z"/>
<g>
	<path class="st1" d="M239.5,344.3c2.4-2.8,4.8-5.5,7.2-8.1h54.9l-18.9,40.7h44.9l23.1-5.6c3.3,8.7,13.2,12.2,49-0.7
		c6.7,13.4,23.6,9.6,42.1,0.5l5.2-10.6c-11.8,5.4-26.4,10.7-29.1,4.5c2.8-0.9,11.8-2.7,19.2-8c7.4-5.3,6.7-18.5-8.9-18.7
		c-16.8-0.2-29.1,9.7-31,24.4l-7.5,2.5c-4.4,1.3-5.2-0.9-4-2.8l10.5-22.4h10.1l1.8-3.9H460l2.6-5.4h-51.9l1.9-3.9h-10l10.3-21.8
		h-34.5l-10.1,21.8h-8.7l-1.9,3.9h-10.1l11.6-23.9c5-10,4.2-17-0.7-20.9c-6.2-4.9-38.2-16.6-76.5,6.9
		c-17.2,10.6-31.8,22.6-45.3,37.8h-32.3l-3.9,5.4H232c-14.1,16.8-27.3,37.4-41.6,63.6h265.1l6.3-13.6H210.2
		C210.2,386.2,224.3,362.2,239.5,344.3 M422.1,347.2c6.3-2.8,8.4,3.6,4.1,6.3c-2.7,1.6-6.3,2.7-10.4,3.7
		C415.8,357.2,414.9,351.3,422.1,347.2 M345.2,336.2h10l-1.8,3.9h8.6l-10.6,22.6l-21,5.2L345.2,336.2z M284.3,309
		c18.1-7.1,28,2.3,24.5,11.7l-4.5,10.1h-52.2C262.4,320.9,272.8,313.5,284.3,309"/>
	<path class="st2" d="M454.4,373.2h1.3l2.2,3.6h1.6l-2.4-3.7c1.3-0.1,2.2-0.8,2.2-2.3c0-1.7-1.1-2.4-3.1-2.4H453v8.4h1.4V373.2z
		 M454.4,372v-2.5h1.7c0.8,0,1.9,0.1,1.9,1.1c0,1.2-0.9,1.3-2,1.3H454.4z M463.5,372.4c0-4.6-3.5-7.6-7.6-7.6c-4.1,0-7.6,3-7.6,7.6
		c0,4.3,3.2,7.6,7.6,7.6C460,380,463.5,377,463.5,372.4 M461.9,372.4c0,3.7-2.6,6.3-5.9,6.3c-3.7,0-6-2.8-6-6.3c0-3.7,2.6-6.3,6-6.3
		C459.3,366.2,461.9,368.7,461.9,372.4"/>
	<path class="st0" d="M45.1,557c0,7.2-3.7,9.7-9.5,9.7H15.1v-35.9h20.4c7.2,0,9,3,9,8.6c0,5-1.2,7.9-7.7,8.4
		C43.6,548.1,45.1,551.4,45.1,557 M35.5,541.2c0-2.5-0.7-3.4-2.3-3.4h-9.8v6.8h9.8C34.8,544.6,35.5,543.7,35.5,541.2 M36.1,555.7
		c0-2.9-1-4.3-2.8-4.3h-9.8v8.2h10C35.2,559.6,36.1,558.5,36.1,555.7"/>
	<path class="st0" d="M68.4,539.8v7.4c-1-0.3-2.4-0.4-3.7-0.4c-2.8,0-5.3,0.9-5.3,2.7v17.3h-7.9v-26.4h7.9v2.1
		c0.9-1.5,2.6-2.8,6.4-2.8C66.6,539.6,67.5,539.6,68.4,539.8"/>
	<path class="st0" d="M95.5,565.4c-3.6,1.3-8.7,2.1-12.5,2.1c-8.7,0-11.3-1.9-11.3-8.8c0-7.4,4-8.6,10.3-8.6c2,0,4,0.3,6,0.7
		c0-3.7-0.8-4.7-6-4.7c-3,0-6,0.6-8.2,1.2l-1.2-6.3c3-0.8,7.4-1.4,11.3-1.4c7.9,0,11.6,2.4,11.6,10.3V565.4z M87.9,555.8
		c-1.2-0.3-2.7-0.4-4.3-0.4c-2.8,0-3.9,0.3-3.9,2.9c0,2.7,0.7,3.1,3.8,3.1c1.5,0,3.1-0.3,4.4-0.7V555.8z"/>
	<path class="st0" d="M119.8,566.7c-5.5-8.7-8.7-13.3-9.8-14v14H102v-37.2h7.9v23.2c1.3-1.2,4.4-5.4,9.1-12.4h9.1
		c-4.5,6.9-7.8,10.9-9.1,12c1.2,0.8,4.9,5.7,9.8,14.4H119.8z"/>
	<path class="st0" d="M155.2,555.8h-16.3c0.1,4.2,2,5,5.8,5c1.9,0,5.4-0.4,7.3-0.9l1.2,6c-2.6,0.9-6.5,1.4-9.5,1.4
		c-7.4,0-12.9-3.2-12.9-14.1c0-10.6,4.8-13.8,12.4-13.8C151.9,539.6,155.9,542.3,155.2,555.8 M138.9,550h8.8
		c-0.1-3.7-1.1-4.4-4.2-4.4C140.2,545.6,139.3,546.7,138.9,550"/>
	<path class="st0" d="M167.7,557.6c0,3.8,1,5.5,4.4,5.5c1.8,0,3.4-0.3,4.7-0.8l0.9,4c-1.7,0.6-4.3,1.1-6.4,1.1
		c-5.9,0-8.5-1.8-8.5-9.5v-13h-4.5v-4.3h4.5v-4.9l4.9-2v7h9.2v4.3h-9.2V557.6z"/>
	<path class="st0" d="M205,551.8v14.9h-4.9v-14.3c0-6.8-1.7-8.1-6-8.1c-3.2,0-6.1,1-6.1,3v19.4h-4.9v-37.2h4.9v12.3
		c1.5-1,4.4-2,7.4-2C201.9,539.9,205,542.2,205,551.8"/>
	<path class="st0" d="M227,540v4.7c-0.9-0.2-2-0.3-3-0.3c-3.5,0-6.7,1.2-6.7,3.2v19h-4.9v-26.1h4.9v1.9c0.9-1.3,3.2-2.6,7-2.6
		C225.2,539.9,226.1,539.9,227,540"/>
	<path class="st0" d="M231,553.5c0-10.7,4-13.7,12.2-13.7c8.2,0,12.2,3,12.2,13.7c0,10.7-3.9,13.9-12.2,13.9
		C235,567.4,231,564.2,231,553.5 M236.2,553.6c0,7.8,1.7,9.7,7,9.7c5.3,0,7-1.9,7-9.7c0-8.2-1.7-9.6-7-9.6
		C237.9,544,236.2,545.4,236.2,553.6"/>
	<path class="st0" d="M279.1,540.6h4.8v24.7c-3,1.3-7.8,2.2-11.4,2.2c-7.5,0-10.5-2.8-10.5-12.2v-14.6h4.8v14c0,6.8,1.4,8.3,6.5,8.3
		c2.1,0,3.9-0.2,5.7-0.8V540.6z"/>
	<path class="st0" d="M313.8,564.7c0,9.9-5.3,12.4-13.4,12.4c-2.6,0-6.7-0.7-8.8-1.5l1.1-4.2c2.1,0.8,5.5,1.4,7.6,1.4
		c5.5,0,8.7-1.5,8.7-7.5c-1.4,1-3.6,2-6.9,2c-7.7,0-11.4-3.1-11.4-13.8c0-10.7,3.9-13.8,12.2-13.8c3.5,0,8.1,0.8,11,2V564.7z
		 M309,545c-1.8-0.6-4.1-0.9-6.1-0.9c-5.3,0-7.1,1.4-7.1,9.5c0,7.5,1.7,9.4,7,9.4c3.4,0,6.2-1.1,6.2-3.1V545z"/>
	<path class="st0" d="M343.3,551.8v14.9h-4.9v-14.3c0-6.8-1.7-8.1-6-8.1c-3.2,0-6.1,1-6.1,3v19.4h-4.9v-37.2h4.9v12.3
		c1.5-1,4.4-2,7.4-2C340.2,539.9,343.3,542.2,343.3,551.8"/>
	<polygon class="st0" points="373.2,566.7 373.2,538.1 361.3,538.1 361.3,530.8 393.6,530.8 393.6,538.1 381.6,538.1 381.6,566.7 	
		"/>
	<path class="st0" d="M416.2,555.8h-16.3c0.1,4.2,2,5,5.8,5c1.9,0,5.4-0.4,7.3-0.9l1.2,6c-2.6,0.9-6.5,1.4-9.5,1.4
		c-7.4,0-12.9-3.2-12.9-14.1c0-10.6,4.8-13.8,12.4-13.8C412.9,539.6,417,542.3,416.2,555.8 M399.9,550h8.8c-0.1-3.7-1.1-4.4-4.2-4.4
		C401.2,545.6,400.4,546.7,399.9,550"/>
	<path class="st0" d="M442.2,566.1c-2.1,0.9-5.7,1.3-8.3,1.3c-7.9,0-13.1-3.2-13.1-14.1c0-10.7,5.3-13.8,13.1-13.8
		c2.7,0,6.2,0.4,8.3,1.1l-1.7,6.7c-1.5-0.6-3.8-1.1-6-1.1c-3.9,0-5.8,0.7-5.8,7.2c0,6.2,2,7.1,5.8,7.1c2.3,0,4.5-0.6,6-1.2
		L442.2,566.1z"/>
	<path class="st0" d="M470.9,551.3v15.4h-7.9v-14.8c0-4.4-1.9-5.3-4.5-5.3c-2.1,0-3.9,0.6-3.9,1.6v18.4h-7.9v-37.2h7.9v11.7
		c1.9-0.9,4.6-1.7,7-1.7C467.2,539.6,470.9,541.4,470.9,551.3"/>
	<path class="st0" d="M485.3,566.7h-7.9V542c3.4-1.2,8.7-2.4,13.4-2.4c7.3,0,10.9,3,10.9,12.5v14.6h-7.9v-14c0-4.8-0.8-6.1-4.6-6.1
		c-1.3,0-2.5,0.2-3.8,0.5V566.7z"/>
	<path class="st0" d="M507.1,553.4c0-10.8,4.4-13.8,12.8-13.8c8.6,0,12.9,3,12.9,13.8c0,10.8-4.3,14.1-12.9,14.1
		C511.4,567.4,507.1,564.2,507.1,553.4 M515.1,553.5c0,6.6,1.1,7.7,4.8,7.7c3.8,0,4.8-1.1,4.8-7.7c0-6.9-1.1-7.7-4.8-7.7
		C516.2,545.8,515.1,546.6,515.1,553.5"/>
	<path class="st0" d="M546.5,559c0,2.5,0.5,4.5,1.7,6.4l-7.1,2.6c-1.7-2.1-2.6-4.9-2.6-8.8v-29.7h7.9V559z"/>
	<path class="st0" d="M552.3,553.4c0-10.8,4.4-13.8,12.8-13.8c8.6,0,12.9,3,12.9,13.8c0,10.8-4.3,14.1-12.9,14.1
		C556.5,567.4,552.3,564.2,552.3,553.4 M560.2,553.5c0,6.6,1.1,7.7,4.8,7.7c3.8,0,4.8-1.1,4.8-7.7c0-6.9-1.1-7.7-4.8-7.7
		C561.3,545.8,560.2,546.6,560.2,553.5"/>
	<path class="st0" d="M607.7,564.6c0,10.6-6.2,12.6-14.6,12.6c-3.4,0-7.2-0.7-9.6-1.5l1.4-6.2c2.7,0.7,5.4,1.2,8.1,1.2
		c4.3,0,6.8-1.1,6.8-4.9c-1.5,0.8-3.8,1.5-6.4,1.5c-6.8,0-10.6-2.9-10.6-13.6c0-10.8,4-14.1,13-14.1c4.1,0,9.1,0.8,12,1.9V564.6z
		 M599.8,546.6c-1.2-0.5-2.8-0.7-4-0.7c-3.8,0-5,0.9-5,7.7c0,5.6,1.1,7.1,4.8,7.1c2.3,0,4.2-0.7,4.2-1.8V546.6z"/>
	<path class="st0" d="M638.7,540.4c-3.4,12-8.4,24.9-13.8,36.2h-8.7c1.4-2.5,3-5.8,4.3-8.6c-2.6-9.3-6-19.4-9.1-27.6h8
		c2.1,5.5,4.1,12.1,5.8,18.3c2.1-6,4.2-12.3,5.6-18.3H638.7z"/>
</g>
</svg>
