<?xml version="1.0" encoding="utf-8"?>
<!-- Generator: Adobe Illustrator 19.2.1, SVG Export Plug-In . SVG Version: 6.00 Build 0)  -->
<svg version="1.1" id="layer" xmlns="http://www.w3.org/2000/svg" xmlns:xlink="http://www.w3.org/1999/xlink" x="0px" y="0px"
	 viewBox="0 0 652 652" style="enable-background:new 0 0 652 652;" xml:space="preserve">
<style type="text/css">
	.st0{fill-rule:evenodd;clip-rule:evenodd;fill:#005CB9;}
</style>
<g>
	<path class="st0" d="M66.5,234.2c16.9,0,21.2,0.3,21.2,24.9c0,18,0.2,30.4-21.2,28.5V234.2 M26,312.2h40.9
		c42.7,0,61.2-1.7,61.2-49.1c0-22.4-2.9-41.4-28.7-41.4v-1.7c23.1-2.2,28.7-19.5,28.7-38.7c0-41.4-27-41.9-61.2-41.9H26V312.2z
		 M66.5,164c19.8-1.2,21.2,5.8,21.2,22.8c0,26.1-8.7,22-21.2,22.7V164z M175.8,224.2v-19.3c0-5.4,2.8-8.4,8.1-8.4
		c5.5,0,8.2,3,8.2,8.4v19.3H175.8z M230.4,247.1v-36.5c0-29.9-21.8-39.1-46.5-39.1c-29.9,0-46.4,14-46.4,39.1v66.6
		c0,25.8,21.9,36.9,46.4,36.9c27,0,46.5-9.9,46.5-36.1v-20.7h-38.3v18.2c0,8.3-2,13.4-8.2,13.4c-5.1,0-8.1-5.1-8.1-13.4v-28.4H230.4
		z M279.9,190.5h0.4c3.7-12.2,13.1-19,28.1-19c17.2,0,25.9,11.9,25.9,31.8v108.9h-38.2v-96.5c0-6-0.6-12.6-7.9-12.6
		c-7.4,0-8.4,6.6-8.4,12.6v96.5h-38.3v-139h38.3V190.5z M384.7,212.6c0-6.1,3.5-9.5,8.2-9.5c4.7,0,8.2,3.3,8.2,9.5v60.3
		c0,6-3.5,9.4-8.2,9.4c-4.7,0-8.2-3.3-8.2-9.4V212.6z M401,312.2h38.3V139.3H401v52.8h-0.4c-3.5-12.6-13.4-20.7-27.5-20.7
		c-19.3,0-26.6,13.1-26.6,30.8v76.8c0,16.9,6.3,34.8,27.4,34.8c14.1,0,24.7-5.4,26.7-19.2h0.4V312.2z M451.1,312.2v-139h38.3v139
		H451.1z M451.1,163.9v-24.6h38.3v24.6H451.1z M529.3,312.2h-34.1l23.3-72.4l-21.9-66.7h39.6l12,53.7h0.4l11.9-53.7h34.2l-22.6,66.7
		l24.6,72.4h-40.3l-13.4-59h-0.4L529.3,312.2z M246.4,343.9v128c32.8,13.3,195.6,84.3,379.7-24.6V287.1
		C594.4,330.5,440.4,455.4,246.4,343.9z M609.9,164.6H608v4.3h2.1c1.1,0,1.9-0.2,2.5-0.6c0.4-0.4,0.7-0.8,0.7-1.5
		c0-0.8-0.4-1.3-0.7-1.7C612,164.8,611,164.6,609.9,164.6z M610.5,163.1c1.7,0,3,0.2,4,0.7c0.9,0.8,1.3,1.5,1.3,2.6
		c0,1-0.2,1.7-0.7,2.3c-0.6,0.7-1.3,1.1-2.3,1.3l3,5.8h-2.8l-2.6-5.5H608v5.5h-2.5v-12.8H610.5z M619.9,169.7c0-1.3-0.2-2.6-0.8-3.8
		c-0.4-1.1-1.1-2.3-2.1-3.2c-0.9-0.9-1.9-1.7-3.2-2.1c-1.1-0.6-2.5-0.8-3.8-0.8c-1.3,0-2.6,0.2-3.8,0.8c-1.1,0.4-2.3,1.1-3,2.1
		c-0.9,0.9-1.7,2.1-2.3,3.2c-0.6,1.1-0.8,2.5-0.8,3.8c0,1.3,0.2,2.4,0.8,3.8c0.4,1.1,1.1,2.1,2.1,3c1,1,2.1,1.7,3.2,2.3
		c1.1,0.6,2.4,0.8,3.8,0.8c1.3,0,2.5-0.2,3.8-0.8c1.1-0.6,2.3-1.1,3.2-2.1c0.9-0.9,1.7-2.1,2.1-3.2
		C619.7,172.3,619.9,171,619.9,169.7z M610.1,158.4c1.5,0,3,0.2,4.3,0.8c1.5,0.6,2.6,1.5,3.8,2.6c0.9,0.9,1.9,2.3,2.5,3.6
		c0.6,1.3,0.7,2.8,0.7,4.3c0,1.5-0.2,3-0.7,4.3c-0.6,1.3-1.5,2.6-2.5,3.6c-1.1,1.1-2.5,1.9-3.8,2.5c-1.5,0.6-2.8,0.9-4.3,0.9
		c-1.5,0-3-0.4-4.3-0.9c-1.3-0.6-2.6-1.3-3.6-2.5c-1.1-1.1-1.9-2.3-2.4-3.6c-0.6-1.5-1-2.8-1-4.3c0-1.5,0.4-3,1-4.3
		c0.6-1.5,1.3-2.6,2.4-3.8c1.1-1.1,2.3-1.9,3.6-2.4C607.1,158.6,608.6,158.4,610.1,158.4z"/>
</g>
</svg>
