<?xml version="1.0" encoding="UTF-8" standalone="no"?>
<!-- Created with Inkscape (http://www.inkscape.org/) by Marsupilami -->
<svg
   xmlns:svg="http://www.w3.org/2000/svg"
   xmlns="http://www.w3.org/2000/svg"
   version="1.0"
   width="768"
   height="768"
   viewBox="0 0 68.978752 68.980003"
   id="svg3568">
  <defs
     id="defs3570" />
  <g
     transform="translate(-340.51062,-497.87218)"
     id="layer1">
    <path
       d="M 375.00063,566.85218 L 340.51062,532.36218 L 375.00063,497.87218 L 409.48937,532.36218 L 375.00063,566.85218"
       id="path2576"
       style="fill:#08954c;fill-opacity:1;fill-rule:nonzero;stroke:none" />
    <path
       d="M 29.375,11.03125 L 29.375,13.75 L 32.4375,13.75 L 32.4375,22.0625 L 29.375,22.0625 L 29.375,24.6875 L 39,24.6875 L 39,22.0625 L 35.75,22.0625 L 35.75,13.75 L 39,13.75 L 39,11.03125 L 29.375,11.03125 z M 14.125,26.625 L 14.125,29.40625 L 17.28125,29.40625 L 17.28125,37.65625 L 14.21875,37.65625 L 14.21875,40.34375 L 23.5625,40.34375 L 23.5625,37.65625 L 20.5,37.65625 L 20.5,29.40625 L 23.75,29.40625 L 23.75,26.625 L 14.125,26.625 z M 25.25,26.625 L 25.25,29.4375 L 26.71875,29.4375 L 26.71875,37.65625 L 25.25,37.65625 L 25.25,40.375 L 31.46875,40.375 L 31.46875,37.65625 L 30.15625,37.65625 L 30.15625,32.15625 L 35.40625,40.375 L 39.09375,40.375 L 39.09375,29.4375 L 40.3125,29.4375 L 40.3125,26.625 L 34.1875,26.625 L 34.1875,29.4375 L 35.5,29.4375 L 35.5,34.84375 L 30.25,26.625 L 25.25,26.625 z M 43.28125,26.625 L 43.28125,29.3125 L 44.40625,29.3125 L 41.78125,37.65625 L 40.40625,37.65625 L 40.40625,40.375 L 46.53125,40.375 L 46.53125,37.65625 L 45.125,37.65625 L 45.65625,36.15625 L 50.125,36.15625 L 50.625,37.65625 L 49.21875,37.65625 L 49.21875,40.375 L 55.28125,40.375 L 55.28125,37.65625 L 53.875,37.65625 L 51.4375,29.40625 L 52.5625,29.40625 L 52.5625,26.625 L 43.28125,26.625 z M 48,29.3125 L 49.40625,33.8125 L 46.4375,33.8125 L 48,29.3125 z M 29.4375,42.21875 L 29.4375,45.09375 L 30.5625,45.09375 L 27.9375,53.40625 L 26.5625,53.40625 L 26.5625,56.03125 L 32.6875,56.03125 L 32.6875,53.3125 L 31.375,53.3125 L 31.90625,51.84375 L 36.375,51.84375 L 36.90625,53.3125 L 35.5,53.3125 L 35.5,56.03125 L 41.53125,56.03125 L 41.53125,53.40625 L 40.125,53.40625 L 37.59375,45.09375 L 38.8125,45.09375 L 38.8125,42.21875 L 29.4375,42.21875 z M 34.1875,45 L 35.59375,49.46875 L 32.6875,49.46875 L 34.1875,45 z"
       transform="translate(340.51062,497.87218)"
       id="path2580"
       style="fill:#ffffff;fill-opacity:1;fill-rule:nonzero;stroke:none" />
  </g>
</svg>
