<svg xmlns="http://www.w3.org/2000/svg" viewBox="0 0 76.09 59.79"><g id="Layer_2" data-name="Layer 2"><g id="Layer_1-2" data-name="Layer 1"><g id="moneys"><path d="M24.78,45.53a1,1,0,0,1-.58-.18L.51,28.67a1,1,0,0,1-.42-.87A1,1,0,0,1,.6,27L21.88,15.3a1,1,0,0,1,1.35.4,1,1,0,0,1-.39,1.36L3,28,24.82,43.34,45.63,31a1,1,0,1,1,1,1.72L25.29,45.39A1,1,0,0,1,24.78,45.53Z"/><path d="M56.38,26.77a1,1,0,0,1-.86-.49,1,1,0,0,1,.35-1.37L73,14.71,50,2.14,38.32,8.56a1,1,0,0,1-1-1.75L49.54.12a1,1,0,0,1,1,0l25,13.67a1,1,0,0,1,0,1.74L56.89,26.63A1,1,0,0,1,56.38,26.77Z"/><path d="M56.39,33.69a1,1,0,0,1-.86-.49,1,1,0,0,1,.35-1.37l18.59-11a1,1,0,0,1,1,1.72l-18.59,11A1,1,0,0,1,56.39,33.69Z"/><path d="M24.69,52.51a1,1,0,0,1-.58-.18L.42,35.65a1,1,0,0,1-.24-1.39A1,1,0,0,1,1.58,34L24.74,50.32l20.88-12.4a1,1,0,0,1,1,1.72L25.2,52.37A.94.94,0,0,1,24.69,52.51Z"/><path d="M56.34,41.06a1,1,0,0,1-.86-.49,1,1,0,0,1,.35-1.37L74.58,28.07a1,1,0,1,1,1,1.72L56.85,40.92A1,1,0,0,1,56.34,41.06Z"/><path d="M24.8,59.79a1,1,0,0,1-.57-.18L.54,42.93a1,1,0,0,1-.24-1.4,1,1,0,0,1,1.39-.24L24.85,57.6l20.8-12.35a1,1,0,1,1,1,1.72L25.31,59.65A1,1,0,0,1,24.8,59.79Z"/><path d="M46.24,50.24a1,1,0,0,1-.49-.13,1,1,0,0,1-.51-.87v-17L20,15.69A1,1,0,0,1,20.09,14l9.8-5.46a1,1,0,0,1,1,0l25.92,16.3a1,1,0,0,1,.46.85l0,17.31a1,1,0,0,1-.47.85l-10,6.23A1,1,0,0,1,46.24,50.24ZM22.51,14.93,46.79,30.87a1,1,0,0,1,.45.83V47.44l8-5,0-16.2L30.35,10.55ZM56.27,43h0Z"/><path d="M46,50.19a1.08,1.08,0,0,1-.57-.17l-2.14-1.47a1,1,0,0,1,1.13-1.65l2.14,1.46a1,1,0,0,1,.26,1.39A1,1,0,0,1,46,50.19Z"/><path d="M20.58,18.07a1,1,0,0,1-1-1V14.94a1,1,0,1,1,2,0v2.13A1,1,0,0,1,20.58,18.07Z"/><rect x="0.65" y="32.35" width="5.9" height="2" transform="translate(-16.03 6.15) rotate(-29.64)"/><rect x="0.53" y="39.79" width="5.9" height="2" transform="translate(-19.7 7.05) rotate(-29.62)"/></g></g></g></svg>