<svg xmlns="http://www.w3.org/2000/svg" viewBox="0 0 63.19 52.98"><g id="Layer_2" data-name="Layer 2"><g id="Layer_1-2" data-name="Layer 1"><g id="cart"><path d="M51.48,43.63H28.69c-6,0-9.49-3.47-10.79-10.6,0-.15-.18-.76-.18-.76L11.45,2H1A1,1,0,0,1,1,0H12.26a1,1,0,0,1,1,.8l6.43,31s.17.68.2.84c1.45,7.94,5.48,9,8.82,9H51.48a1,1,0,0,1,0,2Z"/><path d="M52.06,53a5.68,5.68,0,1,1,5.68-5.67A5.68,5.68,0,0,1,52.06,53Zm0-9.35a3.68,3.68,0,1,0,3.68,3.68A3.68,3.68,0,0,0,52.06,43.63Z"/><path d="M56,33.15H19v-2H55.24l5.6-17.29L14.39,10.74l.14-2L62.25,12a1,1,0,0,1,.89,1.31L56.92,32.45A1,1,0,0,1,56,33.15Z"/><path d="M25.62,53a5.68,5.68,0,1,1,5.68-5.67A5.68,5.68,0,0,1,25.62,53Zm0-9.35a3.68,3.68,0,1,0,3.68,3.68A3.68,3.68,0,0,0,25.62,43.63Z"/><path d="M59.46,22.25H16.86a1,1,0,0,1,0-2h42.6a1,1,0,1,1,0,2Z"/><rect x="36.25" y="11.38" width="2" height="20.49"/><rect x="38.54" y="21.04" width="19.67" height="2" transform="translate(19.68 66.79) rotate(-81.83)"/><rect x="25.16" y="10.37" width="2" height="21.79" transform="translate(-2.73 3.89) rotate(-8.08)"/></g></g></g></svg>