<svg xmlns="http://www.w3.org/2000/svg" viewBox="0 0 48.07 64.79"><g id="Layer_2" data-name="Layer 2"><g id="Layer_1-2" data-name="Layer 1"><g id="belly"><path d="M24,64.79a8.46,8.46,0,0,1-8.38-7.12l2-.32a6.49,6.49,0,0,0,12.81,0l2,.32A8.46,8.46,0,0,1,24,64.79Z"/><path d="M47.07,53.81H1a1,1,0,0,1-.71-.3A1,1,0,0,1,0,52.8s0-3.88,0-8.9A1,1,0,0,1,.57,43c.37-.2,9.28-5,9.28-18.52,0-.07-.33-10.64,8.69-13.58a19,19,0,0,1,5.19-.82h.62a19,19,0,0,1,5.18.82c9,2.94,8.7,13.51,8.69,13.62C38.22,38,47.13,42.81,47.51,43a1,1,0,0,1,.53.89c0,5,0,8.9,0,8.9a1,1,0,0,1-1,1ZM2,51.81H46.07c0-1.39,0-4.09,0-7.34-2.14-1.33-9.82-7-9.82-20,0-.41.26-9.21-7.31-11.68a16.64,16.64,0,0,0-9.75,0c-7.57,2.47-7.33,11.27-7.31,11.64,0,13-7.67,18.69-9.82,20C2,47.72,2,50.42,2,51.81Z"/><polygon points="23.69 12.07 23.67 10.07 23.69 10.07 23.69 12.07"/><path d="M24,12.07a6,6,0,1,1,6-6A6,6,0,0,1,24,12.07ZM24,2a4,4,0,1,0,4,4A4,4,0,0,0,24,2Z"/></g></g></g></svg>