<svg xmlns="http://www.w3.org/2000/svg" viewBox="0 0 55.5 57.19"><g id="Layer_2" data-name="Layer 2"><g id="Layer_1-2" data-name="Layer 1"><g id="bubble-talk"><path d="M43.52,13.32H12a1,1,0,0,1,0-2H43.52a1,1,0,0,1,0,2Z"/><path d="M43.52,21.79H12a1,1,0,1,1,0-2H43.52a1,1,0,0,1,0,2Z"/><path d="M29.41,30.26H12a1,1,0,0,1,0-2H29.41a1,1,0,0,1,0,2Z"/><path d="M13,57.19a.92.92,0,0,1-.36-.07,1,1,0,0,1-.64-.93V42.44H6a6,6,0,0,1-6-6V6A6,6,0,0,1,6,0H49.5a6,6,0,0,1,6,6V36.44a6,6,0,0,1-6,6H33.18a1,1,0,0,1,0-2H49.5a4,4,0,0,0,4-4V6a4,4,0,0,0-4-4H6A4,4,0,0,0,2,6V36.44a4,4,0,0,0,4,4h7a1,1,0,0,1,1,1V53.58L25.46,40.77a1,1,0,1,1,1.48,1.34L13.69,56.86A1,1,0,0,1,13,57.19Z"/></g></g></g></svg>