<svg xmlns="http://www.w3.org/2000/svg" viewBox="0 0 64.14 50.06"><defs><style>.cls-1{fill:#394553;}</style></defs><g id="Layer_2" data-name="Layer 2"><g id="Layer_1-2" data-name="Layer 1"><g id="camera"><path d="M36.3,50.06a19,19,0,1,1,19-19A19,19,0,0,1,36.3,50.06Zm0-35.94a17,17,0,1,0,17,17A17,17,0,0,0,36.3,14.12Z"/><path d="M36.3,43.21A12.13,12.13,0,1,1,48.41,31.07,12.14,12.14,0,0,1,36.3,43.21ZM36.3,21A10.13,10.13,0,1,0,46.41,31.07,10.12,10.12,0,0,0,36.3,21Z"/><path d="M12.34,4H6.74a1,1,0,0,1,0-2h5.6a1,1,0,1,1,0,2Z"/><path d="M60.14,45.16h-5v-2h5a2,2,0,0,0,2-2V12a2,2,0,0,0-2-2H53a1,1,0,0,1-.72-.3L44.9,2H28.35L20.79,9.68a1,1,0,0,1-.72.29H4a2,2,0,0,0-2,2V41.16a2,2,0,0,0,2,2H17.4v2H4a4,4,0,0,1-4-4V12A4,4,0,0,1,4,8H19.66L27.22.3a1,1,0,0,1,.71-.3H45.32A1,1,0,0,1,46,.31L53.42,8h6.72a4,4,0,0,1,4,4V41.16A4,4,0,0,1,60.14,45.16Z"/><path class="cls-1" d="M10.32,16.52a.78.78,0,1,1-.78-.78A.77.77,0,0,1,10.32,16.52Z"/><path d="M9.54,18.29a1.78,1.78,0,1,1,1.78-1.77A1.77,1.77,0,0,1,9.54,18.29Zm0-2a.23.23,0,0,0-.22.23c0,.23.45.24.45,0A.23.23,0,0,0,9.54,16.29Z"/></g></g></g></svg>