<svg xmlns="http://www.w3.org/2000/svg" viewBox="0 0 73.67 51.87"><g id="Layer_2" data-name="Layer 2"><g id="Layer_1-2" data-name="Layer 1"><g id="bullhorn"><path d="M54.05,45.23a1,1,0,0,1-.61-.21c-15.22-11.66-27.86-12-28-12l0-2c.52,0,12.52.28,27.57,11.2V3.09c-13.94,10.82-27,11.1-27.57,11.11l0-2c.14,0,14-.32,28-12A1,1,0,0,1,54.47.09a1,1,0,0,1,.58.91V44.23a1,1,0,0,1-1,1Z"/><path d="M25.07,51.87H16.24a1,1,0,0,1-.91-.6L7.22,32.72l1.83-.8L16.9,49.87h6.87L19.33,33l1.93-.51L26,50.62a1,1,0,0,1-1,1.25Z"/><path d="M62.55,32.3,61.1,30.92a12,12,0,0,0,0-16.55L62.61,13a14,14,0,0,1-.06,19.3Z"/><path d="M68,37.13l-1.46-1.36a19.28,19.28,0,0,0,0-26.31l1.46-1.37a21.28,21.28,0,0,1,0,29Z"/><path d="M21.37,33.51H11a10.9,10.9,0,1,1,0-21.8H21.37ZM11,13.71a8.9,8.9,0,1,0,0,17.8h8.37V13.71Z"/></g></g></g></svg>