<svg xmlns="http://www.w3.org/2000/svg" viewBox="0 0 64.68 50.82"><g id="Layer_2" data-name="Layer 2"><g id="Layer_1-2" data-name="Layer 1"><g id="book"><path d="M32.34,49.1a1,1,0,0,1-.88-.53c-2.39-4.53-7.23-6.73-14.81-6.73H7.16a1,1,0,0,1-1-1V1a1,1,0,0,1,1-1h9.49C24.93,0,30.5,2.62,33.23,7.8a1,1,0,0,1-.42,1.35,1,1,0,0,1-1.35-.42C29.07,4.2,24.23,2,16.65,2H8.16V39.84h8.49c8.28,0,13.85,2.62,16.58,7.8A1,1,0,0,1,32.81,49,1,1,0,0,1,32.34,49.1Z"/><path d="M32.34,47.58a1,1,0,0,1-1-1V8.73a1,1,0,0,1,2,0V46.58A1,1,0,0,1,32.34,47.58Z"/><path d="M37.83,50.82h-11c-1.71,0-2.93-1.92-3.49-3H1a1,1,0,0,1-1-1v-40a1,1,0,0,1,2,0V45.83H24a1,1,0,0,1,.92.6c.49,1.13,1.42,2.39,1.94,2.39h11c.52,0,1.46-1.26,1.94-2.39a1,1,0,0,1,.92-.6h22v-39a1,1,0,0,1,2,0V46.83a1,1,0,0,1-1,1H41.32C40.77,48.9,39.54,50.82,37.83,50.82Z"/><path d="M32.34,49.1a.92.92,0,0,1-.46-.11,1,1,0,0,1-.42-1.35c2.72-5.18,8.3-7.8,16.57-7.8h8.49V2H48c-7.58,0-12.42,2.2-14.8,6.73a1,1,0,0,1-1.77-.93C34.18,2.62,39.76,0,48,0h9.49a1,1,0,0,1,1,1V40.84a1,1,0,0,1-1,1H48c-7.58,0-12.42,2.2-14.8,6.73A1,1,0,0,1,32.34,49.1Z"/><path d="M32.34,9.26a1,1,0,0,1-.88-.53C29.6,5.2,26.29,3.11,21.34,2.33a1,1,0,1,1,.31-2c5.54.87,9.44,3.37,11.58,7.44a1,1,0,0,1-.42,1.35A1,1,0,0,1,32.34,9.26Z"/></g></g></g></svg>