<svg xmlns="http://www.w3.org/2000/svg" viewBox="0 0 57.92 62.88"><defs><style>.cls-1{fill:#394553;}</style></defs><g id="Layer_2" data-name="Layer 2"><g id="Layer_1-2" data-name="Layer 1"><g id="check-list"><path d="M28.72,61.54H4a4,4,0,0,1-4-4V12.37a4,4,0,0,1,4-4H7.68v2H4a2,2,0,0,0-2,2V57.54a2,2,0,0,0,2,2H28.72Z"/><path d="M45,29.21H43V12.37a2,2,0,0,0-2-2H37.18v-2H41a4,4,0,0,1,4,4Z"/><path d="M43.09,62.88A14.84,14.84,0,1,1,57.92,48,14.86,14.86,0,0,1,43.09,62.88Zm0-27.67A12.84,12.84,0,1,0,55.92,48,12.85,12.85,0,0,0,43.09,35.21Z"/><polygon points="42.55 53.5 36.13 48.28 37.39 46.73 42.22 50.66 48.8 42.15 50.38 43.37 42.55 53.5"/><path d="M33.45,14.53h-22V4.9h5.11a6,6,0,0,1,11.77,0h5.12Zm-20-2h18V6.9h-5l0-1a4,4,0,0,0-8,0l0,1h-5Z"/><rect class="cls-1" x="9.98" y="24.48" width="0.86" height="0.86"/><rect x="8.98" y="23.48" width="2.86" height="2.86"/><rect x="16.4" y="23.91" width="20.32" height="2"/><rect class="cls-1" x="9.98" y="32.53" width="0.86" height="0.86"/><rect x="8.98" y="31.53" width="2.86" height="2.86"/><rect x="16.4" y="31.97" width="15.32" height="2"/><rect class="cls-1" x="9.98" y="40.59" width="0.86" height="0.86"/><rect x="8.98" y="39.59" width="2.86" height="2.86"/><rect x="16.4" y="40.02" width="9.21" height="2"/><rect class="cls-1" x="9.98" y="48.65" width="0.86" height="0.86"/><rect x="8.98" y="47.65" width="2.86" height="2.86"/><rect x="16.4" y="48.08" width="7.83" height="2"/></g></g></g></svg>