<svg xmlns="http://www.w3.org/2000/svg" viewBox="0 0 56.36 56.34"><g id="Layer_2" data-name="Layer 2"><g id="Layer_1-2" data-name="Layer 1"><g id="circle-close"><path d="M28.17,56.34A28.17,28.17,0,1,1,56.36,28.17,28.2,28.2,0,0,1,28.17,56.34ZM28.17,2A26.17,26.17,0,1,0,54.36,28.17,26.2,26.2,0,0,0,28.17,2Z"/><path d="M18.1,39.25a1,1,0,0,1-.7-1.71L37.55,17.39A1,1,0,0,1,39,18.8L18.81,39A1,1,0,0,1,18.1,39.25Z"/><path d="M38.26,39.25a1,1,0,0,1-.71-.29L17.4,18.8a1,1,0,1,1,1.41-1.41L39,37.54a1,1,0,0,1-.7,1.71Z"/></g></g></g></svg>