<svg xmlns="http://www.w3.org/2000/svg" viewBox="0 0 68.66 64.25"><defs><style>.cls-1{fill:#394553;}</style></defs><g id="Layer_2" data-name="Layer 2"><g id="Layer_1-2" data-name="Layer 1"><g id="coin-money"><path class="cls-1" d="M49.8,34.64a.75.75,0,0,1-1.5,0,.75.75,0,0,1,1.5,0Z"/><path d="M49.05,36.39a1.75,1.75,0,1,1,1.75-1.75A1.75,1.75,0,0,1,49.05,36.39Zm0-2a.25.25,0,0,0-.25.25c0,.27.5.28.5,0A.25.25,0,0,0,49.05,34.39Z"/><polygon points="63.57 51.09 45.24 51.09 45.24 49.09 61.57 49.09 61.57 20.4 27.46 20.4 27.46 18.4 63.57 18.4 63.57 51.09"/><polygon points="68.66 46.17 66.66 46.17 66.66 15.43 27.46 15.43 27.46 13.43 68.66 13.43 68.66 46.17"/><path d="M54,45.38H45.24v-2h6.88a4.88,4.88,0,0,1,3.77-3.77V29.88a4.89,4.89,0,0,1-3.77-3.77H27.46v-2H54v1A2.87,2.87,0,0,0,56.89,28h1V41.51h-1A2.87,2.87,0,0,0,54,44.38Z"/><path d="M40,38.67l-1.6-1.2a4.32,4.32,0,0,0,.86-2.61,4,4,0,0,0-3.76-4.12,4,4,0,0,0-3.75,4.12A4.46,4.46,0,0,0,32,36.12L30,36.68a6.56,6.56,0,0,1-.26-1.82,6,6,0,0,1,5.75-6.12,6,6,0,0,1,5.76,6.12A6.38,6.38,0,0,1,40,38.67Z"/><path d="M12.16,12.33C5.23,12.33,0,9.68,0,6.17S5.23,0,12.16,0,24.32,2.65,24.32,6.17,19.09,12.33,12.16,12.33ZM12.16,2C6.17,2,2,4.2,2,6.17s4.17,4.16,10.16,4.16S22.32,8.14,22.32,6.17,18.14,2,12.16,2Z"/><path d="M12.16,25.27C5.23,25.27,0,22.62,0,19.1H2c0,2,4.17,4.17,10.16,4.17s10.16-2.2,10.16-4.17h2C24.32,22.62,19.09,25.27,12.16,25.27Z"/><path d="M12.16,18.82C5.23,18.82,0,16.17,0,12.66H2c0,2,4.17,4.16,10.16,4.16s10.16-2.19,10.16-4.16h2C24.32,16.17,19.09,18.82,12.16,18.82Z"/><path d="M12.16,38.17C5.23,38.17,0,35.52,0,32H2c0,2,4.17,4.17,10.16,4.17S22.32,34,22.32,32h2C24.32,35.52,19.09,38.17,12.16,38.17Z"/><path d="M12.16,44.61C5.23,44.61,0,42,0,38.45H2c0,2,4.17,4.16,10.16,4.16a21.49,21.49,0,0,0,2.8-.17l.25,2A25.5,25.5,0,0,1,12.16,44.61Z"/><rect x="22.32" y="6.17" width="2" height="31.54"/><path d="M12.16,57.51C5.23,57.51,0,54.86,0,51.35V11.62H2V51.35c0,2,4.17,4.16,10.16,4.16a24.64,24.64,0,0,0,2.75-.16l.24,2A24.26,24.26,0,0,1,12.16,57.51Z"/><path d="M12.16,31.72C5.23,31.72,0,29.07,0,25.55H2c0,2,4.17,4.17,10.16,4.17s10.16-2.2,10.16-4.17h2C24.32,29.07,19.09,31.72,12.16,31.72Z"/><path d="M12.16,51.06C5.23,51.06,0,48.41,0,44.9H2c0,2,4.17,4.16,10.16,4.16a24.4,24.4,0,0,0,2.56-.14l.22,2A25.75,25.75,0,0,1,12.16,51.06Z"/><path d="M30,51.32c-6.93,0-12.15-2.65-12.15-6.16S23.07,39,30,39s12.16,2.65,12.16,6.17S36.93,51.32,30,51.32ZM30,41c-6,0-10.15,2.2-10.15,4.17S24,49.32,30,49.32s10.16-2.19,10.16-4.16S36,41,30,41Z"/><path d="M30,64.25c-6.93,0-12.16-2.65-12.16-6.17V50.74h2v7.34c0,2,4.18,4.17,10.16,4.17s10.16-2.2,10.16-4.17V45.14h2V58.08C42.16,61.6,36.93,64.25,30,64.25Z"/><path d="M30,57.8c-6.93,0-12.16-2.65-12.16-6.17h2c0,2,4.18,4.17,10.16,4.17s10.16-2.2,10.16-4.17h2C42.16,55.15,36.93,57.8,30,57.8Z"/></g></g></g></svg>