<svg id="Capa_1" enable-background="new 0 0 512 512" height="512" viewBox="0 0 512 512" width="512" xmlns="http://www.w3.org/2000/svg"><path d="m451 377c0-39.344-30.451-71.708-69.022-74.764l49.345-49.345-72.558-36.279c1.473-7.078 2.235-14.319 2.235-21.612v-15h60v-30h-60v-99.717c0-27.726-22.557-50.283-50.283-50.283-22.608 0-33.241 12.532-40.277 20.825-5.915 6.97-8.087 9.175-14.44 9.175-6.338 0-8.516-2.207-14.443-9.182-7.045-8.29-17.692-20.818-40.274-20.818-27.726 0-50.283 22.557-50.283 50.283v99.717h-60v30h60v9.907c0 9.02 1.052 17.836 3.022 26.311l-73.344 36.672 49.345 49.345c-38.572 3.057-69.023 35.421-69.023 74.765v135h390zm-270-326.717c0-11.184 9.099-20.283 20.283-20.283 8.373 0 11.22 2.957 17.413 10.245 6.686 7.866 16.788 19.755 37.304 19.755 20.545 0 30.637-11.895 37.315-19.766 5.962-7.027 8.683-10.234 17.402-10.234 11.184 0 20.283 9.099 20.283 20.283v99.717h-150zm60 431.717h-150v-105c0-24.813 20.187-45 45-45h66.213l-70.891-70.891 33.282-16.641c15.775 29.704 43.823 51.419 76.396 56.414zm10.944-210.107c-39.119-2.048-70.944-38.827-70.944-81.986v-9.907h150v15c0 42.405-35.428 79.177-79.056 76.893zm169.056 210.107h-150v-181.127c33.838-5.039 62.198-26.736 77.531-55.837l32.146 16.073-70.89 70.891h66.213c24.813 0 45 20.187 45 45z"/><path d="m301 422h30v30h-30z"/><path d="m301 362h30v30h-30z"/><path d="m181 422h30v30h-30z"/><path d="m181 362h30v30h-30z"/></svg>