<svg xmlns="http://www.w3.org/2000/svg" viewBox="0 0 57.23 58.3"><g id="Layer_2" data-name="Layer 2"><g id="Layer_1-2" data-name="Layer 1"><g id="document-calc"><path d="M15.3,45.48a5.31,5.31,0,0,1-5.45-5.15,1,1,0,0,1,2,0,3.31,3.31,0,0,0,3.45,3.15,3.32,3.32,0,0,0,3.46-3.15c0-1.39-1.36-2.17-3.44-3.21l-1-.48c-2-1-4.54-2.27-4.54-5a5.31,5.31,0,0,1,5.45-5.14,5.32,5.32,0,0,1,5.46,5.14,1,1,0,0,1-2,0,3.32,3.32,0,0,0-3.46-3.14,3.31,3.31,0,0,0-3.45,3.14c0,1.4,1.36,2.18,3.43,3.22l1,.48c2,1,4.54,2.27,4.54,5A5.32,5.32,0,0,1,15.3,45.48Z"/><path d="M15.28,28.47a1,1,0,0,1-1-1V24.69a1,1,0,0,1,2,0v2.78A1,1,0,0,1,15.28,28.47Z"/><path d="M15.28,48.28a1,1,0,0,1-1-1V44.5a1,1,0,0,1,2,0v2.78A1,1,0,0,1,15.28,48.28Z"/><path d="M54.17,58.3H31.86a3.09,3.09,0,0,1-3.07-3.09V22.61a3.07,3.07,0,0,1,3.07-3.06H54.17a3.06,3.06,0,0,1,3.06,3.06v32.6A3.08,3.08,0,0,1,54.17,58.3ZM31.86,21.55a1.07,1.07,0,0,0-1.07,1.06v32.6a1.1,1.1,0,0,0,1.07,1.09H54.17a1.09,1.09,0,0,0,1.06-1.09V22.61a1.07,1.07,0,0,0-1.06-1.06Z"/><rect x="34.17" y="31.65" width="22.01" height="2"/><rect x="37.62" y="32.78" width="2" height="24.35"/><rect x="46.45" y="32.76" width="2" height="24.34"/><rect x="34.17" y="39.84" width="22.01" height="2"/><rect x="34.17" y="48.03" width="13.12" height="2"/><polygon points="14.85 14.88 6.38 14.88 6.38 12.88 12.85 12.88 12.85 6.42 14.85 6.42 14.85 14.88"/><path d="M24.27,58.3H1a1,1,0,0,1-1-1V11.92a1.05,1.05,0,0,1,.29-.71L11.22.29A1,1,0,0,1,11.93,0H43.28a1,1,0,0,1,1,1V15.38h-2V2H12.34L2,12.34v44H24.27Z"/></g></g></g></svg>