<svg xmlns="http://www.w3.org/2000/svg" viewBox="0 0 55.33 59.77"><g id="Layer_2" data-name="Layer 2"><g id="Layer_1-2" data-name="Layer 1"><g id="document"><path d="M34.16,30.57h-23a1,1,0,0,1,0-2h23a1,1,0,0,1,0,2Z"/><path d="M34.16,39.05h-23a1,1,0,1,1,0-2h23a1,1,0,0,1,0,2Z"/><path d="M34.16,47.52h-23a1,1,0,0,1,0-2h23a1,1,0,0,1,0,2Z"/><path d="M40.33,59.77H5a5,5,0,0,1-5-5V10.23L11.79,0H40.33a5,5,0,0,1,5,5V54.77A5,5,0,0,1,40.33,59.77ZM2,11.15V54.77a3,3,0,0,0,3,3H40.33a3,3,0,0,0,3-3V5a3,3,0,0,0-3-3H12.54Z"/><polygon points="16.78 15.08 8.26 15.08 8.26 13.08 14.78 13.08 14.78 1.77 16.78 1.77 16.78 15.08"/></g></g></g></svg>