<?xml version="1.0" encoding="iso-8859-1"?>
<!-- Generator: Adobe Illustrator 19.0.0, SVG Export Plug-In . SVG Version: 6.00 Build 0)  -->
<svg version="1.1" id="Capa_1" xmlns="http://www.w3.org/2000/svg" xmlns:xlink="http://www.w3.org/1999/xlink" x="0px" y="0px"
	 viewBox="0 0 392 392" style="enable-background:new 0 0 392 392;" xml:space="preserve">
<g>
	<g>
		<path d="M276.7,252.8c-5-40.7-39.7-71.3-80.7-71.3c-33.9-0.1-61.2-27.7-61.1-61.6c0.2-33.6,27.4-60.9,61.1-61
			c33.9,0,61.3,27.5,61.3,61.3c0,5.5,4.5,10,10,10s10-4.5,10-10c-0.1-41-30.6-75.6-71.3-80.7V10c0-5.5-4.5-10-10-10s-10,4.5-10,10
			v29.5c-44.6,5.5-76.2,46.1-70.7,90.7c5,40.7,39.7,71.3,80.7,71.3c33.9,0,61.3,27.5,61.3,61.3s-27.5,61.3-61.3,61.3
			s-61.3-27.5-61.3-61.3c0-5.5-4.5-10-10-10s-10,4.5-10,10c0.1,41,30.6,75.6,71.3,80.7V382c0,5.5,4.5,10,10,10s10-4.5,10-10v-38.5
			C250.6,338,282.2,297.4,276.7,252.8z"/>
	</g>
</g>
<g>
</g>
<g>
</g>
<g>
</g>
<g>
</g>
<g>
</g>
<g>
</g>
<g>
</g>
<g>
</g>
<g>
</g>
<g>
</g>
<g>
</g>
<g>
</g>
<g>
</g>
<g>
</g>
<g>
</g>
</svg>
