<svg xmlns="http://www.w3.org/2000/svg" viewBox="0 0 56.86 41.84"><g id="Layer_2" data-name="Layer 2"><g id="Layer_1-2" data-name="Layer 1"><g id="mail"><path d="M52.86,41.84H4a4,4,0,0,1-4-4V4A4,4,0,0,1,4,0H52.86a4,4,0,0,1,4,4V37.84A4,4,0,0,1,52.86,41.84ZM4,2A2,2,0,0,0,2,4V37.84a2,2,0,0,0,2,2H52.86a2,2,0,0,0,2-2V4a2,2,0,0,0-2-2Z"/><path d="M2.73,40.36a1,1,0,0,1-.64-.24A1,1,0,0,1,2,38.72L14.36,23.88a1,1,0,0,1,1.41-.12,1,1,0,0,1,.13,1.41L3.5,40A1,1,0,0,1,2.73,40.36Z"/><path d="M54.13,40.36a1,1,0,0,1-.77-.36L41,25.17a1,1,0,1,1,1.53-1.29L54.9,38.72a1,1,0,0,1-.77,1.64Z"/><path d="M28.51,23.49a1,1,0,0,1-.61-.21L1.46,2.87A1,1,0,1,1,2.68,1.29L28.51,21.22,54.12,1.12A1,1,0,0,1,55.35,2.7L29.13,23.28A1,1,0,0,1,28.51,23.49Z"/></g></g></g></svg>