<svg xmlns="http://www.w3.org/2000/svg" viewBox="0 0 65.51 53.08"><g id="Layer_2" data-name="Layer 2"><g id="Layer_1-2" data-name="Layer 1"><g id="export"><path d="M49.49,53.08H3.68A3.68,3.68,0,0,1,0,49.41V16.59a3.68,3.68,0,0,1,3.68-3.68H22.25a1,1,0,0,1,0,2H3.68A1.68,1.68,0,0,0,2,16.59V49.41a1.68,1.68,0,0,0,1.68,1.67H49.49a1.68,1.68,0,0,0,1.68-1.67V33.05a1,1,0,0,1,2,0V49.41A3.68,3.68,0,0,1,49.49,53.08Z"/><path d="M19.76,37.67l-.21,0a1,1,0,0,1-.79-1c0-22.45,19.75-26.43,24.32-27V1a1,1,0,0,1,.56-.89,1,1,0,0,1,1,.09L65.11,15.37a1,1,0,0,1,0,1.61L44.68,32.14a1,1,0,0,1-1.6-.81V22.52c-16,.54-22.15,14-22.41,14.55A1,1,0,0,1,19.76,37.67ZM45.08,3v7.53a1,1,0,0,1-.93,1c-.9.06-20.77,1.58-23.16,21.15A27.82,27.82,0,0,1,44.08,20.5a1,1,0,0,1,1,1v7.85L62.83,16.18Z"/></g></g></g></svg>