<svg xmlns="http://www.w3.org/2000/svg" viewBox="0 0 54.62 65.41"><g id="Layer_2" data-name="Layer 2"><g id="Layer_1-2" data-name="Layer 1"><g id="headset"><path d="M35.73,64.81a38,38,0,0,1-5.54-.44l.26-1.77c7,1,12.36.14,15.93-2.69a11.22,11.22,0,0,0,4.16-7.18l1.62-9.87,1.77.29-1.62,9.79a12.9,12.9,0,0,1-4.82,8.37C44.55,63.64,40.61,64.81,35.73,64.81Z"/><path d="M47.69,53a3.57,3.57,0,0,1-.65-.06l-4.85-.81,3.65-21.79,4.84.81a4.43,4.43,0,0,1,3.2,2.49,7.18,7.18,0,0,1,.63,4.45l-1.6,9.53a6.91,6.91,0,0,1-2.64,4.51A4.47,4.47,0,0,1,47.69,53ZM44.5,50.48l2.87.48a2.38,2.38,0,0,0,1.74-.47,5,5,0,0,0,1.83-3.21l1.59-9.53a5.19,5.19,0,0,0-.42-3.2,2.53,2.53,0,0,0-1.75-1.44l-2.88-.48Z"/><path d="M53,28.24,51,28c.9-7.89-.77-14.47-4.84-19S35.7,2,27.26,2H26.9C18.38,2,12,4.35,7.88,9S2.14,20.12,3.05,28l-2,.23c-1-8.47.87-15.59,5.33-20.59S17.79,0,26.83,0h.36c9.11,0,16,2.57,20.51,7.65S54,19.77,53,28.24Z"/><path d="M7.4,52.77c-2.38,0-4.65-2.15-5.27-5.18l-2-9.45a7.17,7.17,0,0,1,.46-4.47,4.46,4.46,0,0,1,3.09-2.62l4.82-1L13,51.69l-4.81,1A4.34,4.34,0,0,1,7.4,52.77ZM7,32.42,4.12,33a2.5,2.5,0,0,0-1.69,1.51,5.23,5.23,0,0,0-.31,3.21l2,9.46c.47,2.24,2.17,3.85,3.71,3.54l2.86-.59Z"/><path d="M28.35,65.41a5.31,5.31,0,0,1-1-.09,5,5,0,0,1-2.93-1.63,2.76,2.76,0,0,1-.71-2.12c.25-1.61,2.42-2.72,4.62-2.31S32.24,61.39,32,63C31.78,64.38,30.22,65.41,28.35,65.41Zm-1-4.24c-1.15,0-1.65.56-1.67.7a.92.92,0,0,0,.27.54,3,3,0,0,0,1.75,1,4.18,4.18,0,0,0,.61,0c1.15,0,1.64-.56,1.67-.7s-.61-1.23-2-1.49A4.18,4.18,0,0,0,27.39,61.17Z"/></g></g></g></svg>