<svg xmlns="http://www.w3.org/2000/svg" viewBox="0 0 56.36 56.35"><defs><style>.cls-1{fill:#394553;}</style></defs><g id="Layer_2" data-name="Layer 2"><g id="Layer_1-2" data-name="Layer 1"><g id="info"><path d="M28.17,56.35A28.18,28.18,0,1,1,56.36,28.17,28.21,28.21,0,0,1,28.17,56.35ZM28.17,2A26.18,26.18,0,1,0,54.36,28.17,26.2,26.2,0,0,0,28.17,2Z"/><path d="M28.66,41.22a1,1,0,0,1-1-1V21.1H22.25a1,1,0,0,1,0-2h6.41a1,1,0,0,1,1,1V40.22A1,1,0,0,1,28.66,41.22Z"/><path d="M36.77,41.41H20.44a1,1,0,1,1,0-2H36.77a1,1,0,1,1,0,2Z"/><path class="cls-1" d="M29,13.54a.78.78,0,1,1-.78-.78A.78.78,0,0,1,29,13.54Z"/><path d="M28.24,15.31A1.78,1.78,0,1,1,30,13.54,1.78,1.78,0,0,1,28.24,15.31Zm0-2a.23.23,0,0,0-.22.23c0,.24.44.24.44,0A.22.22,0,0,0,28.24,13.31Z"/></g></g></g></svg>