<?xml version="1.0" encoding="iso-8859-1"?>
<!-- Generator: Adobe Illustrator 19.0.0, SVG Export Plug-In . SVG Version: 6.00 Build 0)  -->
<svg version="1.1" id="Capa_1" xmlns="http://www.w3.org/2000/svg" xmlns:xlink="http://www.w3.org/1999/xlink" x="0px" y="0px"
	 viewBox="0 0 464 464" style="enable-background:new 0 0 464 464;" xml:space="preserve">
<g>
	<g>
		<path d="M427.952,192.4c-7.488-37.336-25.64-72.936-54.528-101.824c-28.888-28.88-64.488-47.032-101.824-54.52
			C269.584,15.872,252.704,0,232,0c-20.704,0-37.584,15.872-39.6,36.056c-37.336,7.488-72.936,25.64-101.824,54.52
			c-28.888,28.888-47.04,64.488-54.528,101.824C15.872,194.416,0,211.296,0,232s15.872,37.584,36.048,39.6
			c7.488,37.336,25.64,72.936,54.528,101.824c28.888,28.88,64.488,47.032,101.824,54.52C194.416,448.128,211.296,464,232,464
			s37.584-15.872,39.6-36.056c37.336-7.488,72.936-25.64,101.824-54.52c28.888-28.888,47.04-64.488,54.528-101.824
			C448.128,269.584,464,252.704,464,232C464,211.296,448.128,194.416,427.952,192.4z M32,254.632c-9.312-3.304-16-12.2-16-22.632
			s6.688-19.328,16-22.632V254.632z M232,16c10.432,0,19.328,6.688,22.632,16h-45.264C212.672,22.688,221.568,16,232,16z
			 M356.328,96.36l-56.664,56.656c-19.4-16.64-43.528-24.968-67.664-24.968s-48.264,8.328-67.664,24.968L107.672,96.36
			C177.816,32,286.184,32,356.328,96.36z M294.224,294.224c-34.312,34.312-90.144,34.312-124.456,0s-34.312-90.144,0-124.456
			s90.144-34.312,124.456,0S328.536,259.912,294.224,294.224z M96.36,107.672l56.656,56.664c-33.288,38.808-33.288,96.52,0,135.328
			L96.36,356.328C32.008,286.184,32.008,177.816,96.36,107.672z M232,448c-10.432,0-19.328-6.688-22.632-16h45.264
			C251.328,441.312,242.432,448,232,448z M107.672,367.64l56.664-56.656c38.8,33.28,96.528,33.28,135.328,0l56.664,56.656
			C286.184,432,177.816,432,107.672,367.64z M367.64,356.328l-56.656-56.664c33.288-38.808,33.288-96.52,0-135.328l56.656-56.664
			C431.992,177.816,431.992,286.184,367.64,356.328z M432,254.632v-45.264c9.312,3.304,16,12.2,16,22.632
			S441.312,251.328,432,254.632z"/>
	</g>
</g>
<g>
</g>
<g>
</g>
<g>
</g>
<g>
</g>
<g>
</g>
<g>
</g>
<g>
</g>
<g>
</g>
<g>
</g>
<g>
</g>
<g>
</g>
<g>
</g>
<g>
</g>
<g>
</g>
<g>
</g>
</svg>
