<svg xmlns="http://www.w3.org/2000/svg" viewBox="0 0 53.4 66.21"><g id="Layer_2" data-name="Layer 2"><g id="Layer_1-2" data-name="Layer 1"><g id="logout"><path d="M38.38,22.19V2H1V0H39.38a1,1,0,0,1,1,1V22.19Z"/><path d="M39.38,53.45H21.24v-2H38.38V31h2V52.45a1,1,0,0,1-.29.7A1,1,0,0,1,39.38,53.45Z"/><path d="M21,66.21a1,1,0,0,1-.54-.16L.47,53.31A1,1,0,0,1,0,52.46V1A1,1,0,0,1,.52.14a1,1,0,0,1,1,0l20,12.75a1,1,0,0,1,.46.84V65.21a1,1,0,0,1-.52.87A.94.94,0,0,1,21,66.21ZM2,51.91,20,63.39V14.31L2,2.84Z"/><path d="M52.38,27.73H27.91a1,1,0,0,1,0-2H52.38a1,1,0,0,1,0,2Z"/><path d="M45.19,35a1,1,0,0,1-.71-.29,1,1,0,0,1,0-1.42L51,26.75l-6.51-6.56a1,1,0,0,1,1.42-1.41l7.21,7.27a1,1,0,0,1,0,1.41L45.9,34.67A1,1,0,0,1,45.19,35Z"/><path d="M15,38.73a1,1,0,0,1-1-1V32a1,1,0,0,1,2,0v5.69A1,1,0,0,1,15,38.73Z"/></g></g></g></svg>