<?xml version="1.0" encoding="utf-8"?>
<!-- Generator: Adobe Illustrator 16.0.0, SVG Export Plug-In . SVG Version: 6.00 Build 0)  -->
<!DOCTYPE svg PUBLIC "-//W3C//DTD SVG 1.1//EN" "http://www.w3.org/Graphics/SVG/1.1/DTD/svg11.dtd">
<svg version="1.1" id="Layer_1" xmlns="http://www.w3.org/2000/svg" xmlns:xlink="http://www.w3.org/1999/xlink" x="0px" y="0px"
	 width="1416.734px" height="430px" viewBox="0 0 1416.734 430" enable-background="new 0 0 1416.734 430" xml:space="preserve">
<g>
	<path fill="#FFFFFF" d="M1134.477,120.842c-0.225-1.213-0.357-2.454-0.357-3.732c0-11.396,9.235-20.645,20.633-20.645
		c11.408,0,20.644,9.248,20.644,20.645c0,1.278-0.134,2.52-0.355,3.732h20.066c0.118-1.246,0.192-2.5,0.192-3.732
		c0-20.844-18.149-37.736-40.547-37.736c-22.387,0-40.542,16.893-40.542,37.736c0,1.239,0.069,2.486,0.169,3.732H1134.477z"/>
	<path fill="#FFFFFF" d="M1171.661,129.002c-3.737,5.279-9.866,8.748-16.832,8.748c-6.962,0-13.095-3.469-16.822-8.748h-22.159
		c7.305,30.49,38.981,59.762,38.981,59.762s31.27-30.521,38.834-59.762H1171.661z"/>
	<path fill="#FFFFFF" d="M118.58,377.004c12.74,0,28.191-3.871,42.488-10.042v-107.38c-13.915-8.885-29.351-13.897-43.646-13.897
		c-37.079,0-61.417,26.256-61.417,66.048C56.005,350.73,79.962,377.004,118.58,377.004 M167.239,405.959
		c-17.77,8.503-40.554,13.519-62.558,13.519C41.726,419.478,0,376.607,0,312.112c0-65.27,41.726-108.916,103.904-108.916
		c20.467,0,40.553,5.791,57.164,15.058v-92.306l54.069-15.453v307.063C196.209,417.557,180.376,413.686,167.239,405.959"/>
	<rect x="248.082" y="207.053" fill="#FFFFFF" width="54.069" height="208.568"/>
	<path fill="#FFFFFF" d="M242.861,156.716c0-18.548,13.517-32.065,32.064-32.065c18.53,0,32.445,13.518,32.445,32.065
		c0,18.532-13.915,32.048-32.445,32.048C256.378,188.764,242.861,175.249,242.861,156.716"/>
	<path fill="#FFFFFF" d="M537.858,283.656v130.938h-54.071V288.304c0-28.972-16.213-43.647-46.343-43.647
		c-16.992,0-31.668,4.635-48.279,12.74v157.196h-54.07V204.106c20.847,0,37.839,4.631,51.754,13.517
		c23.561-9.66,49.436-15.452,72.602-15.452C508.885,202.17,537.858,228.045,537.858,283.656"/>
	<path fill="#FFFFFF" d="M659.37,380.86c11.962,0,23.939-2.317,35.522-6.949v-41.71c-12.361-5.41-24.717-7.346-35.522-7.346
		c-26.275,0-42.488,10.438-42.488,28.589C616.882,370.816,633.095,380.86,659.37,380.86 M702.238,406.356
		c-19.707,8.486-42.489,13.121-64.511,13.121c-47.889,0-76.859-23.941-76.859-64.876c0-40.947,31.287-64.89,84.983-64.89
		c15.058,0,32.445,2.697,49.041,8.106v-12.358c0-25.099-16.993-39.774-46.723-39.774c-21.246,0-47.908,3.855-70.309,10.044v-39.396
		c21.243-8.123,51.38-13.135,81.51-13.135c56.386,0,89.592,28.574,89.592,77.248v137.111
		C731.968,417.557,714.979,413.303,702.238,406.356"/>
	<path fill="#FFFFFF" d="M1094.76,284.683V415.62h-54.069V288.554c0-28.194-14.676-42.87-39.775-42.87
		c-12.358,0-25.116,2.316-37.475,9.646c1.159,5.411,1.935,11.202,1.935,17.77v142.52h-54.068V288.554
		c0-28.194-14.676-42.87-39.775-42.87c-12.376,0-23.957,2.698-35.54,10.044V415.62h-54.068V205.133
		c17.769,0,35.522,4.235,48.658,11.962c18.93-8.884,39.775-13.897,58.703-13.897c23.562,0,42.487,6.567,55.623,18.15
		c16.994-12.359,39.016-18.15,66.432-18.15C1062.315,203.198,1094.76,229.073,1094.76,284.683"/>
	<rect x="1127.721" y="207.051" fill="#FFFFFF" width="54.069" height="208.569"/>
	<path fill="#FFFFFF" d="M1268.804,315.97v99.649h-54.069V125.947l54.069-15.452v186.167c30.13-30.13,56.005-58.704,79.563-89.61
		h63.717c-27.416,34.001-57.146,65.272-89.987,98.874c37.854,38.235,64.89,70.684,94.638,109.694h-63.353
		C1327.124,380.082,1301.247,349.572,1268.804,315.97"/>
	<path fill="#FFFFFF" d="M1085.819,85.364c7.374,13.181,6.832,29.063-16.688,37.965c-0.473,0.177-0.952,0.349-1.433,0.521
		c-21.077,7.522-41.002,11.061-64.815,14.353c0,0-19.813,3.086-45.149-0.271c-17.187-2.836-24.59-9.014-20.003-15.906
		c6.687-10.049,81.301-17.28,81.301-17.28c-14.086-5.669-27.838-11.839-40.917-16.408c-30.955-10.785-62.561-20.394-94.803-28.629
		C817.919,43.01,749.74,32.203,680.738,30.911c-124.786-2.342-250.668,28.027-349.066,87.964
		c-8.919,5.428-20.561-2.925-12.707-9.767C407.031,32.547,541.373,0.317,671.106,0.002c73.31-0.178,146.669,9.87,216.532,26.602
		c33.646,8.063,66.599,17.816,98.905,28.646c13.721,4.602,27.342,9.43,40.798,14.511c-1.234-1.563-2.457-3.146-3.63-4.723
		c-9.954-13.315-23.208-26.964-27.896-41.99c-4.683-15.066,12.106-22.756,26.917-11.957c12.34,8.998,25.032,23.626,34.719,34.952
		C1057.451,46.043,1073.297,64.096,1085.819,85.364"/>
</g>
</svg>
