<svg xmlns="http://www.w3.org/2000/svg" width="125" height="51.971" viewBox="0 0 125 51.971">
  <g id="Group_63" data-name="Group 63" transform="translate(-47 -11.029)">
    <g id="Group_62" data-name="Group 62" transform="translate(-194.464 -193.872)">
      <path id="Path_4" data-name="Path 4" d="M373.348,211.364h32.276a13.578,13.578,0,0,0-2.722-3.014c-1.96-1.7-3.436-2.263-7.458-2.934-4.361-.729-19.055-.537-21.176-.309-1.789.192-2.263.726-2.471,1.034a2.648,2.648,0,0,0-.279,1.977,16.6,16.6,0,0,0,.355,1.792C372.208,211.311,372.963,211.364,373.348,211.364Z" transform="translate(-87.297 0)" fill="#d20519"/>
      <path id="Path_5" data-name="Path 5" d="M513.11,222.786c.635,0,3.18-.572,3.753-1.272s-.445-1.463-1.209-1.845-2.056-1.081-3.191-.509c0,0-.18,0-.371.891S512.473,222.786,513.11,222.786Z" transform="translate(-192.201 -10.478)" fill="#d20519"/>
      <path id="Path_6" data-name="Path 6" d="M312.438,217.122c1.123.489,10.568-3.073,10.568-3.073a3.267,3.267,0,0,0,1.843-1.909c.521-1.193,1.266-2.793.683-3.467-.118-.137-.471-.491-1.525-.107a29.488,29.488,0,0,0-8.715,4.836C312.941,215.319,311.316,216.633,312.438,217.122Z" transform="translate(-42.986 -2.606)" fill="#d20519"/>
      <path id="Path_7" data-name="Path 7" d="M302.392,221.977c.028.375,1.7-2.821,6.426-5.613.667-.394-1.677-.06-3.9.527-1.134.3-3.5.8-3.729,1.6a2.087,2.087,0,0,0,.57,1.72A4.337,4.337,0,0,1,302.392,221.977Z" transform="translate(-34.832 -8.425)" fill="#d20519"/>
      <path id="Path_8" data-name="Path 8" d="M327.508,255.843c1.1-.158,1.385-1.715,1.468-1.9,1.069-.013,1.255,0,1.673,0,.772,0,.7-1.478.813-4.46a49.172,49.172,0,0,0,.111-6.018c-.181-3.57-2.709-7.06-4.753-7.1-3.042-.062-4.69.731-5.988,3.918.51-.015,6.993,0,7.6.61a4.119,4.119,0,0,1,.607,2.264s-6.827-.179-8.914-.041c-.419,2.713-.637,5.35-4.762,5.84-6.509.773-12.9.5-15.005-3.086a20.127,20.127,0,0,0-1.754-2.583c-3.58-.036-9.818.092-10.154.092-.442,0-.663-.938-.773-1.6-.179-1.078.386-.921,8.023-1.361a25.281,25.281,0,0,0-8-4.161c-8.6-2.816-10.693-.994-11.971,1.822a15.193,15.193,0,0,0-1,7.325c.025.494,0,2.095,0,2.265-1.926-.108-5.192.162-5.365-3.415a14.066,14.066,0,0,1,.407-5c0-.221-2.732-.276-2.092-1.877s-2.83.205-3.6.773a2.2,2.2,0,0,0-1.279,1.6,11.188,11.188,0,0,0-.127,1.588c-.923.7-1.616,3.637-1.616,7.157a17.466,17.466,0,0,0,.887,6.038,3.636,3.636,0,0,0,.986,1.417c-5.312.237-8.464.532-8.464.852,0,.781,18.8,1.415,42,1.415s42-.634,42-1.415C338.464,256.429,334.313,256.094,327.508,255.843Zm-49.628-15.521c.915,0,1.657,2.946,1.657,6.581s-.742,6.582-1.657,6.582-1.658-2.947-1.658-6.582S276.964,240.322,277.879,240.322Zm-15.593,8.168c0-3.125.638-5.658,1.425-5.658s1.425,2.533,1.425,5.658-.638,5.659-1.425,5.659S262.287,251.615,262.287,248.49Zm8.876,4.971c1.547.079,3.114.125,4.489.152a4.8,4.8,0,0,0,1.117,1.934c-2.4.043-4.658.094-6.752.151A3.876,3.876,0,0,0,271.162,253.461Zm13.141,1.98a3.6,3.6,0,0,0,.559-1.026c3.92-.026,22.932-.237,35.192-.374a3.82,3.82,0,0,0,1.083,1.61c-6.928-.17-15.453-.27-24.674-.27C292.235,255.381,288.153,255.4,284.3,255.441Z" transform="translate(0 -22.339)" fill="#d20519"/>
    </g>
    <text id="VİSTA_OTOMOTİV" data-name="VİSTA OTOMOTİV" transform="translate(47 59)" fill="#6c757d" font-size="14" font-family="SegoeUIBlack, Segoe UI"><tspan x="0" y="0">VİSTA OTOMOTİV</tspan></text>
  </g>
</svg>
