<?xml version="1.0" encoding="utf-8"?>
<!-- Generator: Adobe Illustrator 16.0.0, SVG Export Plug-In . SVG Version: 6.00 Build 0)  -->
<!DOCTYPE svg PUBLIC "-//W3C//DTD SVG 1.1//EN" "http://www.w3.org/Graphics/SVG/1.1/DTD/svg11.dtd">
<svg version="1.1" id="Layer_1" xmlns="http://www.w3.org/2000/svg" xmlns:xlink="http://www.w3.org/1999/xlink" x="0px" y="0px"
	 width="694.465px" height="238.488px" viewBox="0 0 694.465 238.488" enable-background="new 0 0 694.465 238.488"
	 xml:space="preserve">
<g id="Layer_2">
</g>
<g id="Layer_3">
	<g>
		<g>
			<defs>
				<rect id="SVGID_1_" x="10.988" y="2.738" width="673.238" height="128.648"/>
			</defs>
			<clipPath id="SVGID_2_">
				<use xlink:href="#SVGID_1_"  overflow="visible"/>
			</clipPath>
			<g id="XMLID_178_" clip-path="url(#SVGID_2_)">
				<path id="XMLID_180_" fill="#FFFFFF" d="M682.827,191.92c0,0,7.758-50.846-20.646-80.399
					c-24.775-25.78-46.922-32.616-92.021-34.632c-41.922-1.874-61.349-0.135-89.072,0.004c-17.784,0.089-217.668,14.157-291.994,0
					c0,0,46.011,21.236,153.96,20.351c89.621-0.734,165.213,0.36,188.3,0.753c4.227,0.072,8.436-0.044,12.651-0.351
					c13.974-1.017,52.415-2.344,83.964,10.216C667.297,123.52,679.288,165.375,682.827,191.92z"/>
				<path id="XMLID_181_" fill="#FFFFFF" d="M458.965,65.39c0,0-15.042-15.042-62.823-33.624S294.092-1.563,215.637,18.494
					c-74.19,18.966-60.136,53.791-190.499,47.518c-4.276-0.206-7.073,4.393-4.919,8.093c5.549,9.529,11.135,25.709-0.13,42.605
					c-17.696,26.545-0.885,66.363-0.885,66.363h60.168c0,0,0-72.557,76.979-63.708c0,0-19.466-22.121-76.979,2.654H35.131
					c0,0,14.158-18.583,9.732-33.625c0,0,50.436-15.927,99.102,0.885c48.666,16.812,156.614,27.429,227.4,20.351
					c0,0-169.887-7.964-221.206-44.242c0,0,48.974-40.109,150.42-35.393C387.573,34.041,458.965,65.39,458.965,65.39z"/>
				<path id="XMLID_182_" fill="#FFFFFF" d="M189.092,191.92h328.271c0,0-6.818-71.801,59.283-78.75
					c0,0-63.707-17.696-84.059,62.823H218.292c0,0-7.963-43.356-41.587-56.629C176.705,119.365,210.328,152.988,189.092,191.92z"/>
			</g>
		</g>
	</g>
	<g>
		<path fill="#FFFFFF" stroke="#FFFFFF" stroke-width="3" stroke-miterlimit="10" d="M33.447,215.184l-19.632-55.887h12.068
			l8.285,25.373c2.341,7.048,4.323,13.598,5.943,20.396h0.181c1.621-6.633,3.782-13.433,6.214-20.231l8.826-25.538h11.797
			l-20.983,55.887H33.447z"/>
		<path fill="#FFFFFF" stroke="#FFFFFF" stroke-width="3" stroke-miterlimit="10" d="M83.066,163.525
			c0,3.068-2.432,5.474-6.304,5.474c-3.692,0-6.124-2.404-6.124-5.474c0-3.149,2.521-5.555,6.214-5.555
			C80.635,157.971,82.977,160.375,83.066,163.525z M71.269,215.184v-40.381h11.167v40.381H71.269z"/>
		<path fill="#FFFFFF" stroke="#FFFFFF" stroke-width="3" stroke-miterlimit="10" d="M94.502,204.073
			c3.602,1.905,9.005,3.565,14.679,3.565c7.115,0,11.077-3.068,11.077-7.63c0-4.229-3.063-6.716-10.807-9.286
			c-9.996-3.316-16.391-8.209-16.391-16.252c0-9.121,8.285-16.086,21.435-16.086c6.573,0,11.437,1.327,14.589,2.819l-2.702,8.209
			c-2.162-1.078-6.395-2.653-12.068-2.653c-7.023,0-10.086,3.482-10.086,6.717c0,4.312,3.513,6.301,11.617,9.203
			c10.537,3.648,15.67,8.54,15.67,16.584c0,8.954-7.385,16.748-23.055,16.748c-6.395,0-13.06-1.658-16.392-3.481L94.502,204.073z"/>
		<path fill="#FFFFFF" stroke="#FFFFFF" stroke-width="3" stroke-miterlimit="10" d="M153.126,167.838h-17.291v-8.541h45.839v8.541
			h-17.471v47.346h-11.077V167.838z"/>
		<path fill="#FFFFFF" stroke="#FFFFFF" stroke-width="3" stroke-miterlimit="10" d="M194.369,199.346l-5.224,15.838h-11.438
			l19.453-55.887H211.3l19.723,55.887h-11.888l-5.493-15.838H194.369z M211.75,191.635l-4.773-13.765
			c-1.17-3.399-2.161-7.214-3.062-10.447h-0.181c-0.9,3.233-1.801,7.131-2.882,10.447l-4.683,13.765H211.75z"/>
		<path fill="#FFFFFF" stroke="#FFFFFF" stroke-width="3" stroke-miterlimit="10" d="M311.977,186.66
			c0,18.738-12.338,29.436-29.089,29.436c-17.111,0-27.917-12.021-27.917-28.439c0-17.163,11.708-29.271,28.818-29.271
			C301.53,158.385,311.977,170.74,311.977,186.66z M266.678,187.489c0,11.358,6.214,20.396,16.84,20.396
			c10.717,0,16.751-9.12,16.751-20.812c0-10.53-5.674-20.48-16.751-20.48C272.531,166.594,266.678,175.963,266.678,187.489z"/>
		<path fill="#FFFFFF" stroke="#FFFFFF" stroke-width="3" stroke-miterlimit="10" d="M330.704,167.838h-17.291v-8.541h45.841v8.541
			h-17.473v47.346h-11.077V167.838z"/>
		<path fill="#FFFFFF" stroke="#FFFFFF" stroke-width="3" stroke-miterlimit="10" d="M417.696,186.66
			c0,18.738-12.338,29.436-29.088,29.436c-17.111,0-27.918-12.021-27.918-28.439c0-17.163,11.707-29.271,28.818-29.271
			C407.25,158.385,417.696,170.74,417.696,186.66z M372.397,187.489c0,11.358,6.214,20.396,16.841,20.396
			c10.717,0,16.751-9.12,16.751-20.812c0-10.53-5.674-20.48-16.751-20.48C378.251,166.594,372.397,175.963,372.397,187.489z"/>
		<path fill="#FFFFFF" stroke="#FFFFFF" stroke-width="3" stroke-miterlimit="10" d="M478.481,192.381
			c-0.36-7.214-0.811-15.92-0.721-23.466h-0.271c-1.98,6.8-4.503,14.345-7.205,21.394l-8.824,24.211h-8.557l-8.104-23.879
			c-2.342-7.132-4.503-14.761-6.124-21.726h-0.181c-0.271,7.297-0.631,16.169-1.081,23.797l-1.351,22.472h-10.356l4.054-55.887
			h14.589l7.925,22.471c2.162,6.551,4.053,13.185,5.584,19.402h0.271c1.621-6.053,3.691-12.936,6.032-19.484l8.376-22.389h14.409
			l3.513,55.887h-10.808L478.481,192.381z"/>
		<path fill="#FFFFFF" stroke="#FFFFFF" stroke-width="3" stroke-miterlimit="10" d="M555.564,186.66
			c0,18.738-12.338,29.436-29.088,29.436c-17.111,0-27.918-12.021-27.918-28.439c0-17.163,11.707-29.271,28.818-29.271
			C545.117,158.385,555.564,170.74,555.564,186.66z M510.265,187.489c0,11.358,6.214,20.396,16.841,20.396
			c10.717,0,16.751-9.12,16.751-20.812c0-10.53-5.674-20.48-16.751-20.48C516.119,166.594,510.265,175.963,510.265,187.489z"/>
		<path fill="#FFFFFF" stroke="#FFFFFF" stroke-width="3" stroke-miterlimit="10" d="M574.291,167.838H557v-8.541h45.84v8.541
			h-17.471v47.346h-11.076v-47.346H574.291z"/>
		<path fill="#FFFFFF" stroke="#FFFFFF" stroke-width="3" stroke-miterlimit="10" d="M619.678,163.525
			c0,3.068-2.433,5.474-6.305,5.474c-3.691,0-6.124-2.404-6.124-5.474c0-3.149,2.521-5.555,6.215-5.555
			C617.246,157.971,619.588,160.375,619.678,163.525z M607.88,215.184v-40.381h11.168v40.381H607.88z"/>
		<path fill="#FFFFFF" stroke="#FFFFFF" stroke-width="3" stroke-miterlimit="10" d="M645.253,215.184l-19.633-55.887h12.067
			l8.285,25.373c2.342,7.048,4.322,13.598,5.942,20.396h0.182c1.621-6.633,3.782-13.433,6.214-20.231l8.825-25.538h11.798
			l-20.983,55.887H645.253z"/>
	</g>
</g>
</svg>
