<svg xmlns="http://www.w3.org/2000/svg" viewBox="0 0 65.35 45.13"><g id="Layer_2" data-name="Layer 2"><g id="Layer_1-2" data-name="Layer 1"><g id="mail-down"><path d="M51.74,45.13h0a2.92,2.92,0,0,1-2.07-.86L38.85,33.42a2.81,2.81,0,0,1-.5-2.94A2.35,2.35,0,0,1,40.59,29h4.6V18.58a2.94,2.94,0,0,1,2.93-2.93h7.66a3,3,0,0,1,2.94,2.95V29H63.1a2.18,2.18,0,0,1,2,1.44,2.82,2.82,0,0,1-.43,3L53.83,44.27A2.93,2.93,0,0,1,51.74,45.13ZM40.6,31c-.29,0-.36.11-.4.23a.81.81,0,0,0,.07.75L51.08,42.86a1,1,0,0,0,.66.27h0a.93.93,0,0,0,.67-.28L63.27,32a1,1,0,0,0,0-.78c0-.09-.1-.2-.18-.2H56.72V18.59a1,1,0,0,0-.94-.95H48.12a.91.91,0,0,0-.65.27.92.92,0,0,0-.28.66V31Z"/><path d="M36.22,38.85H3.77A3.77,3.77,0,0,1,0,35.08V3.78A3.77,3.77,0,0,1,3.77,0H49a3.78,3.78,0,0,1,3.78,3.78V10.9a1,1,0,0,1-2,0V3.78A1.78,1.78,0,0,0,49,2H3.77A1.78,1.78,0,0,0,2,3.78v31.3a1.77,1.77,0,0,0,1.77,1.77H36.22a1,1,0,0,1,0,2Z"/><path d="M2.6,37.48A1,1,0,0,1,2,37.25a1,1,0,0,1-.12-1.41L13.3,22.12a1,1,0,0,1,1.54,1.28L3.37,37.12A1,1,0,0,1,2.6,37.48Z"/><path d="M26.45,21.88a1,1,0,0,1-.61-.21L1.38,2.79A1,1,0,0,1,2.6,1.2L26.44,19.61,50.09,1.05a1,1,0,0,1,1.23,1.58l-24.25,19A1,1,0,0,1,26.45,21.88Z"/></g></g></g></svg>