<svg xmlns="http://www.w3.org/2000/svg" viewBox="0 0 60.81 60.8"><g id="Layer_2" data-name="Layer 2"><g id="Layer_1-2" data-name="Layer 1"><g id="man-profile"><path d="M30.4,60.8A30.4,30.4,0,1,1,60.81,30.4,30.44,30.44,0,0,1,30.4,60.8ZM30.4,2A28.4,28.4,0,1,0,58.81,30.4,28.43,28.43,0,0,0,30.4,2Z"/><path d="M25.67,22.06A13.79,13.79,0,0,1,24,22a1,1,0,0,1,.28-2c.3.05,7.32.95,9.51-4.4a1,1,0,0,1,.87-.62,1,1,0,0,1,.93.52s2.47,4.46,5.75,4.46a1,1,0,0,1,0,2c-3,0-5.32-2.4-6.54-4C32.57,21.16,28.55,22.06,25.67,22.06Z"/><path d="M12.81,46.64a1,1,0,0,1-.25-2c8.89-2.27,10.51-3.86,10.76-4.19V36a1,1,0,0,1,1-1h0a1,1,0,0,1,1,1v4.62c.15,1.9-4,3.92-12.26,6ZM23.33,40.8Zm0,0v0Z"/><path d="M48,46.64a.74.74,0,0,1-.25,0c-8.28-2.11-12.41-4.13-12.26-6V36a1,1,0,0,1,1-1h0a1,1,0,0,1,1,1v4.53c.25.33,1.87,1.92,10.76,4.19a1,1,0,0,1-.25,2ZM37.48,40.8Zm0,0h0Zm0,0Zm0,0v0Zm0,0Z"/><path d="M26.74,37.69a1,1,0,0,1-.24,0,7.06,7.06,0,0,1-2.8-1.29c-3.24-2.34-4.85-9.2-5.29-12.89-.62-5.16.14-8.89,2.33-11.42,2-2.34,5.26-3.57,9.61-3.67h.11c4.35.1,7.58,1.33,9.61,3.67,2.19,2.53,3,6.26,2.33,11.42-.44,3.69-2,10.55-5.29,12.89a7.06,7.06,0,0,1-2.8,1.29,1,1,0,1,1-.47-2,5.18,5.18,0,0,0,2-.89c2.31-1.64,4-7.06,4.57-11.58s-.06-7.79-1.86-9.87c-1.65-1.89-4.39-2.9-8.15-3-3.77.08-6.51,1.09-8.16,3-1.8,2.08-2.4,5.3-1.86,9.87s2.26,9.94,4.5,11.53c0,0,.05,0,.08.06h0a5.25,5.25,0,0,0,2,.88,1,1,0,0,1-.23,2Z"/></g></g></g></svg>