<?xml version="1.0" encoding="utf-8"?>
<!-- Generator: Adobe Illustrator 16.0.0, SVG Export Plug-In . SVG Version: 6.00 Build 0)  -->
<!DOCTYPE svg PUBLIC "-//W3C//DTD SVG 1.1//EN" "http://www.w3.org/Graphics/SVG/1.1/DTD/svg11.dtd">
<svg version="1.1" id="Layer_1" focusable="false" xmlns="http://www.w3.org/2000/svg" xmlns:xlink="http://www.w3.org/1999/xlink"
	 x="0px" y="0px" width="612px" height="479.498px" viewBox="0 154.5 612 479.498" enable-background="new 0 154.5 612 479.498"
	 xml:space="preserve">
<path d="M576.109,158.053c-58.226,3.304-173.953,15.332-245.396,59.064c-4.93,3.017-7.724,8.383-7.724,13.993
	v386.612c0,12.271,13.419,20.028,24.734,14.333c73.504-36.996,179.807-47.09,232.369-49.853
	c17.945-0.945,31.896-15.332,31.896-32.576V190.672C612,171.855,595.68,156.948,576.109,158.053z M281.276,217.118
	c-71.432-43.733-187.159-55.75-245.385-59.064C16.32,156.948,0,171.855,0,190.672v358.966c0,17.255,13.95,31.641,31.896,32.576
	c52.583,2.763,158.938,12.867,232.442,49.884c11.284,5.685,24.661-2.061,24.661-14.301V230.919
	C289,225.299,286.216,220.146,281.276,217.118z"/>
</svg>
