<?xml version="1.0" encoding="iso-8859-1"?>
<!-- Generator: Adobe Illustrator 19.0.0, SVG Export Plug-In . SVG Version: 6.00 Build 0)  -->
<svg version="1.1" id="Capa_1" xmlns="http://www.w3.org/2000/svg" xmlns:xlink="http://www.w3.org/1999/xlink" x="0px" y="0px"
	 viewBox="0 0 496 496" style="enable-background:new 0 0 496 496;" xml:space="preserve">
<g>
	<g>
		<g>
			<path d="M408,208h88V96h-64V56c0-13.232-10.768-24-24-24H303.192C299.472,13.768,283.312,0,264,0h-32c-22.056,0-40,17.944-40,40
				v121.472c-9.288,3.312-16,12.112-16,22.528v8h-32v32H72c-39.704,0-72,32.296-72,72c0,39.704,32.296,72,72,72h72v32h32v8
				c0,13.232,10.768,24,24,24h8v64h80v-64h8c13.232,0,24-10.768,24-24v-8h32v-32h72c39.704,0,72-32.296,72-72
				c0-39.704-32.296-72-72-72h-72v-32h-32v-8c0-10.416-6.712-19.216-16-22.528V144h80v40C384,197.232,394.768,208,408,208z M144,352
				H72c-30.872,0-56-25.128-56-56s25.128-56,56-56h72V352z M176,384h-16v-16V224v-16h16V384z M352,240h72c30.872,0,56,25.128,56,56
				s-25.128,56-56,56h-72V240z M208,40c0-13.232,10.768-24,24-24h32c13.232,0,24,10.768,24,24v104v16h-16V88
				c0-13.232-10.768-24-24-24s-24,10.768-24,24v72h-16V40z M240,112V88c0-4.408,3.584-8,8-8s8,3.592,8,8v24H240z M256,128v32h-16
				v-32H256z M272,480h-48v-48h48V480z M320,352V208h16v16v144v16h-16v-16h-16v40c0,4.416-3.584,8-8,8h-8h-80h-8
				c-4.416,0-8-3.584-8-8V184c0-4.408,3.584-8,8-8h24h48h24c4.416,0,8,3.592,8,8v168H320z M432,152v-40h48v80h-72
				c-4.416,0-8-3.592-8-8s3.584-8,8-8C421.232,176,432,165.232,432,152z M400,161.472V144h8c4.416,0,8,3.592,8,8s-3.584,8-8,8
				C405.184,160,402.512,160.576,400,161.472z M304,128V48h104c4.416,0,8,3.592,8,8v73.368c-2.496-0.88-5.192-1.368-8-1.368H304z"/>
			<path d="M456,296c0-17.648-14.352-32-32-32s-32,14.352-32,32s14.352,32,32,32S456,313.648,456,296z M408,296
				c0-8.824,7.176-16,16-16c8.824,0,16,7.176,16,16c0,8.824-7.176,16-16,16C415.176,312,408,304.824,408,296z"/>
			<rect x="368" y="312" width="16" height="16"/>
			<rect x="368" y="264" width="16" height="16"/>
			<path d="M40,296c0,17.648,14.352,32,32,32s32-14.352,32-32s-14.352-32-32-32S40,278.352,40,296z M88,296c0,8.824-7.176,16-16,16
				s-16-7.176-16-16c0-8.824,7.176-16,16-16S88,287.176,88,296z"/>
			<rect x="112" y="312" width="16" height="16"/>
			<rect x="112" y="264" width="16" height="16"/>
			<rect x="272" y="224" width="16" height="144"/>
			<rect x="272" y="384" width="16" height="16"/>
			<rect x="272" y="192" width="16" height="16"/>
			<rect x="208" y="224" width="16" height="144"/>
			<rect x="208" y="384" width="16" height="16"/>
			<rect x="208" y="192" width="16" height="16"/>
		</g>
	</g>
</g>
<g>
</g>
<g>
</g>
<g>
</g>
<g>
</g>
<g>
</g>
<g>
</g>
<g>
</g>
<g>
</g>
<g>
</g>
<g>
</g>
<g>
</g>
<g>
</g>
<g>
</g>
<g>
</g>
<g>
</g>
</svg>
