<svg xmlns="http://www.w3.org/2000/svg" viewBox="0 0 62.98 50.16"><g id="Layer_2" data-name="Layer 2"><g id="Layer_1-2" data-name="Layer 1"><g id="basket"><path d="M49.28,50.16H13.71a4.79,4.79,0,0,1-4.57-3.75l-3.72-18a1,1,0,1,1,2-.41L11.1,46a2.81,2.81,0,0,0,2.61,2.15H49.28A2.8,2.8,0,0,0,51.88,46l3.73-18a1,1,0,0,1,2,.4l-3.73,18A4.78,4.78,0,0,1,49.28,50.16Z"/><path d="M62,24.1H1a1,1,0,0,1-1-1V15.38a1,1,0,0,1,1-1H62a1,1,0,0,1,1,1V23.1A1,1,0,0,1,62,24.1Zm-60-2H61V16.38H2Z"/><path d="M17.31,42.74a1,1,0,0,1-1-.86L14.79,30.6a1,1,0,1,1,2-.27L18.3,41.61a1,1,0,0,1-.86,1.12Z"/><path d="M24.37,42.74a1,1,0,0,1-1-.93l-.71-11.28a1,1,0,1,1,2-.13l.72,11.28a1,1,0,0,1-.94,1.06Z"/><path d="M45.67,42.74h-.13a1,1,0,0,1-.86-1.12l1.53-11.28a1,1,0,1,1,2,.27L46.66,41.88A1,1,0,0,1,45.67,42.74Z"/><path d="M38.61,42.74h-.07a1,1,0,0,1-.93-1.06l.71-11.28a1,1,0,0,1,2,.13l-.71,11.28A1,1,0,0,1,38.61,42.74Z"/><path d="M31.49,42.74a1,1,0,0,1-1-1V30.46a1,1,0,0,1,2,0V41.74A1,1,0,0,1,31.49,42.74Z"/><path d="M14.86,16.16a1,1,0,0,1-.64-.23,1,1,0,0,1-.13-1.41L25.86.36a1,1,0,1,1,1.53,1.28L15.63,15.8A1,1,0,0,1,14.86,16.16Z"/><path d="M48.12,16.16a1,1,0,0,1-.77-.36L35.59,1.64A1,1,0,0,1,35.72.23a1,1,0,0,1,1.41.13L48.89,14.52a1,1,0,0,1-.13,1.41A1,1,0,0,1,48.12,16.16Z"/></g></g></g></svg>