<svg xmlns="http://www.w3.org/2000/svg" viewBox="0 0 62.48 43.35"><g id="Layer_2" data-name="Layer 2"><g id="Layer_1-2" data-name="Layer 1"><g id="folder"><path d="M1,43.34a1,1,0,0,1-1-1V4A4,4,0,0,1,4,0H18.65a1,1,0,0,1,.81.41l4.42,6.12H50.74a1,1,0,1,1,0,2H23.37a1,1,0,0,1-.81-.42L18.14,2H4A2,2,0,0,0,2,4V42.34A1,1,0,0,1,1,43.34Z"/><path d="M50,43.35h-49a1,1,0,0,1-.83-.44A1,1,0,0,1,.13,42l11.46-26.9a1,1,0,0,1,.92-.61h49a1,1,0,0,1,.92,1.4L50.94,42.75A1,1,0,0,1,50,43.35Zm-47.45-2H49.36L60,16.45H13.17Z"/></g></g></g></svg>