<svg xmlns="http://www.w3.org/2000/svg" viewBox="0 0 55.55 64.23"><g id="Layer_2" data-name="Layer 2"><g id="Layer_1-2" data-name="Layer 1"><g id="online-pay"><path d="M50.17,38.16H17.34A5.41,5.41,0,0,1,12,32.71V15.8a5.38,5.38,0,0,1,5.37-5.38H50.17a5.38,5.38,0,0,1,5.38,5.38V32.71A5.42,5.42,0,0,1,50.17,38.16ZM17.34,12.42A3.37,3.37,0,0,0,14,15.8V32.71a3.45,3.45,0,0,0,3.37,3.45H50.17a3.46,3.46,0,0,0,3.38-3.45V15.8a3.38,3.38,0,0,0-3.38-3.38Z"/><rect x="18.27" y="29.66" width="20.98" height="2"/><rect x="18.27" y="24.07" width="13.86" height="2"/><path d="M43.92,26.18A5.22,5.22,0,1,1,49.14,21,5.22,5.22,0,0,1,43.92,26.18Zm0-8.44A3.22,3.22,0,1,0,47.14,21,3.22,3.22,0,0,0,43.92,17.74Z"/><path d="M32.59,64.23H3.82A3.92,3.92,0,0,1,0,60.32V3.82A3.82,3.82,0,0,1,3.82,0H32.59a3.82,3.82,0,0,1,3.82,3.82V6.66h-2V3.82A1.82,1.82,0,0,0,32.59,2H3.82A1.81,1.81,0,0,0,2,3.82v56.5a1.91,1.91,0,0,0,1.82,1.91H32.59a1.91,1.91,0,0,0,1.82-1.91V41.91h2V60.32A3.92,3.92,0,0,1,32.59,64.23Z"/><rect x="5.18" y="49.95" width="26.04" height="2"/><path d="M20.54,57.91H15.86a1,1,0,0,1,0-2h4.68a1,1,0,0,1,0,2Z"/></g></g></g></svg>