<?xml version="1.0" encoding="iso-8859-1"?>
<!-- Generator: Adobe Illustrator 19.0.0, SVG Export Plug-In . SVG Version: 6.00 Build 0)  -->
<svg version="1.1" id="Capa_1" xmlns="http://www.w3.org/2000/svg" xmlns:xlink="http://www.w3.org/1999/xlink" x="0px" y="0px"
	 viewBox="0 0 448 448" style="enable-background:new 0 0 448 448;" xml:space="preserve">
<g>
	<g>
		<path d="M304,64V32c0-17.6-14.4-32-32-32H80C62.4,0,48,14.4,48,32v384c0,17.6,14.4,32,32,32h192c17.6,0,32-14.4,32-32V288h-32v64
			H80V32h192v32H304z M160,384h32v32h-32V384z"/>
	</g>
</g>
<g>
	<g>
		<path d="M368,96H192c-17.68,0-32,14.32-32,32v96c0,17.664,14.32,32,32,32h176c17.68,0,32-14.336,32-32v-96
			C400,110.32,385.68,96,368,96z M224,224h-32v-16h32V224z M224,160h-32v-32h32V160z M272,224h-32v-16h32V224z M320,224h-32v-16h32
			V224z M368,224h-32v-16h32V224z"/>
	</g>
</g>
<g>
</g>
<g>
</g>
<g>
</g>
<g>
</g>
<g>
</g>
<g>
</g>
<g>
</g>
<g>
</g>
<g>
</g>
<g>
</g>
<g>
</g>
<g>
</g>
<g>
</g>
<g>
</g>
<g>
</g>
</svg>
