<svg xmlns="http://www.w3.org/2000/svg" viewBox="0 0 54.74 54.74"><g id="Layer_2" data-name="Layer 2"><g id="Layer_1-2" data-name="Layer 1"><g id="phone"><path d="M44.77,54.74a3.25,3.25,0,0,1-.72-.07c-8.06-1.15-17-6.6-26.52-16.2l-.61-.6-.43-.44C7,28.17,1.21,18.67.07,10.69,0,10.18-.36,7.76,2.51,5.21,3.75,4.05,8,.23,10,0A3.64,3.64,0,0,1,13.4,1.74l6.37,9.54a4.49,4.49,0,0,1,.3,5.1L17.2,21.57a94.22,94.22,0,0,0,7.44,8.25l.14.12,0,0,.11.13a94.22,94.22,0,0,0,8.25,7.44l5.18-2.87a4.5,4.5,0,0,1,5.11.3L53,41.32a3.62,3.62,0,0,1,1.72,3.47c-.19,2-4,6.2-5.19,7.46A6.4,6.4,0,0,1,44.77,54.74ZM10.38,2h-.11l-.14,0c-.75,0-3.62,2.17-6.27,4.66C1.67,8.64,2,10.2,2,10.26a.5.5,0,0,1,0,.12C3.11,17.93,8.74,27,17.89,36l.44.43.62.62c9.24,9.3,17.79,14.56,25.41,15.64a.35.35,0,0,1,.14,0s1.6.34,3.53-1.83c2.51-2.67,4.65-5.54,4.68-6.29a.86.86,0,0,1,0-.17s.08-.77-.9-1.47L42.3,36.61l-.1-.09a2.5,2.5,0,0,0-2.88-.09l-5.77,3.18a1,1,0,0,1-1.1-.09,97.37,97.37,0,0,1-9.06-8.14l0,0h0a97.37,97.37,0,0,1-8.14-9.06,1,1,0,0,1-.09-1.1l3.19-5.77a2.49,2.49,0,0,0-.11-2.88,1,1,0,0,1-.08-.11L11.76,2.87A1.76,1.76,0,0,0,10.38,2Z"/><path d="M41.83,23.64A12,12,0,0,0,30.11,12l.05-2A14.05,14.05,0,0,1,43.83,23.59Z"/><path d="M49.07,23.23A19.28,19.28,0,0,0,30.37,4.72l.05-2A21.3,21.3,0,0,1,51.07,23.15Z"/></g></g></g></svg>