<?xml version="1.0" encoding="iso-8859-1"?>
<!-- Generator: Adobe Illustrator 19.0.0, SVG Export Plug-In . SVG Version: 6.00 Build 0)  -->
<svg version="1.1" id="Capa_1" xmlns="http://www.w3.org/2000/svg" xmlns:xlink="http://www.w3.org/1999/xlink" x="0px" y="0px"
	 viewBox="0 0 359.636 359.636" style="enable-background:new 0 0 359.636 359.636;" xml:space="preserve">
<g>
	<g>
		<path d="M214.911,109.268l-6.656,1.024c-2.56,0.512-4.608,3.072-4.608,5.632c0,3.072,2.56,4.608,5.12,4.608h0.512l6.656-1.024
			c2.56-0.512,4.608-3.072,4.608-5.632C220.031,111.316,217.471,109.268,214.911,109.268z"/>
	</g>
</g>
<g>
	<g>
		<path d="M177.535,185.556c-0.512-2.56-3.072-4.608-5.632-4.608l-6.656,1.024c-2.56,0.512-4.608,3.072-4.608,5.632
			c0.512,2.56,2.56,4.608,5.12,4.608h0.512l6.656-1.024C175.999,190.676,178.047,188.116,177.535,185.556z"/>
	</g>
</g>
<g>
	<g>
		<path d="M257.407,222.42l-6.656,1.024c-2.56,0.512-4.608,3.072-4.608,5.632c0.512,2.56,2.56,4.608,5.12,4.608h0.512l6.656-1.024
			c2.56-0.512,4.608-3.072,4.608-5.632C263.039,223.956,259.967,221.908,257.407,222.42z"/>
	</g>
</g>
<g>
	<g>
		<path d="M284.543,204.5l-0.512-6.656c0-3.072-2.56-5.12-5.632-4.608c-3.072,0-5.12,2.56-4.608,5.632l0.512,6.656
			c0,2.56,2.56,4.608,5.12,4.608h0.512C283.007,210.132,285.055,207.572,284.543,204.5z"/>
	</g>
</g>
<g>
	<g>
		<path d="M142.207,72.404c0-3.072-2.56-5.12-5.632-4.608c-3.072,0-5.12,2.56-4.608,5.632l0.512,6.656c0,2.56,2.56,4.608,5.12,4.608
			c3.072,0,5.12-2.56,5.12-5.632L142.207,72.404z"/>
	</g>
</g>
<g>
	<g>
		<path d="M186.751,89.3c0-3.072-2.56-5.12-5.632-4.608c-3.072,0-5.12,2.56-4.608,5.632l0.512,6.656c0,2.56,2.56,4.608,5.12,4.608
			c3.072,0,5.12-2.56,5.12-5.632L186.751,89.3z"/>
	</g>
</g>
<g>
	<g>
		<path d="M106.367,293.588l-0.512-6.656c-0.512-2.56-3.072-5.12-5.632-4.608c-3.072,0-5.12,2.56-4.608,5.632l0.512,6.656
			c0,2.56,2.56,4.608,5.12,4.608h0.512C104.831,299.22,106.879,296.66,106.367,293.588z"/>
	</g>
</g>
<g>
	<g>
		<path d="M79.743,228.564l-6.656,1.024c-2.56,0.512-4.608,3.072-4.608,5.632c0.512,2.56,2.56,4.608,5.12,4.608h0.512l6.656-1.024
			c2.56-0.512,4.608-3.072,4.608-5.632C85.375,230.1,82.815,228.564,79.743,228.564z"/>
	</g>
</g>
<g>
	<g>
		<path d="M134.527,167.124c-10.752-10.752-28.672-10.752-39.424,0s-10.752,28.672,0,39.424c5.632,5.632,12.288,8.192,19.456,8.192
			c7.168-0.512,14.336-3.072,19.968-8.192C145.279,195.796,145.279,177.876,134.527,167.124z M126.847,198.868
			c-6.656,6.656-17.92,6.656-24.576,0c-6.656-6.656-6.656-17.92,0-24.576c3.584-3.584,7.68-5.12,12.288-5.12
			c4.608,0,9.216,1.536,12.288,5.12C133.503,180.948,133.503,192.212,126.847,198.868z"/>
	</g>
</g>
<g>
	<g>
		<path d="M75.647,282.324c-3.584-4.608-9.216-6.656-14.848-6.656s-11.264,2.048-14.848,6.144c-8.192,8.192-8.192,21.504,0,30.208
			c4.096,4.096,9.728,6.144,14.848,6.144s10.752-2.048,14.848-6.144c4.096-4.096,6.144-9.216,6.144-14.848
			C81.791,291.54,79.743,285.908,75.647,282.324z M68.991,304.852c-4.096,4.096-11.264,4.096-15.36,0
			c-4.096-4.096-4.096-11.264,0-15.36c2.048-2.048,4.608-3.072,7.68-3.072c3.072,0,5.632,1.024,7.68,3.072
			c2.048,2.048,3.072,4.608,3.072,7.68C72.063,299.732,71.039,302.804,68.991,304.852z"/>
	</g>
</g>
<g>
	<g>
		<path d="M210.303,221.396c-7.68-8.704-21.504-8.704-29.696-0.512c-8.192,8.192-8.192,21.504,0,30.208
			c4.096,4.096,9.728,6.144,14.848,6.144c5.632,0,10.752-2.048,14.848-6.144c4.096-4.096,6.144-9.216,6.144-14.848
			S214.399,224.98,210.303,221.396z M203.647,243.412c-4.096,4.096-11.264,4.096-15.36,0c-4.096-4.096-4.096-11.264,0-15.36
			c2.048-2.048,5.12-3.072,7.68-3.072c3.072,0,5.632,1.024,7.68,3.072c2.048,2.048,3.072,4.608,3.072,7.68
			C206.719,238.804,205.695,241.364,203.647,243.412z"/>
	</g>
</g>
<g>
	<g>
		<path d="M164.735,108.756c-9.728-9.728-25.6-9.728-35.328,0c-9.728,9.728-9.728,25.6,0,35.328
			c5.12,4.608,11.264,7.168,17.92,7.168c6.144,0,12.8-2.56,17.408-7.168C174.463,134.356,174.463,118.484,164.735,108.756z
			 M157.567,136.404c-5.632,5.632-14.848,5.632-20.48,0c-6.144-5.632-6.144-14.848,0-20.48c3.072-3.072,6.656-4.096,10.24-4.096
			s7.68,1.536,10.24,4.096C163.199,121.556,163.199,130.772,157.567,136.404z"/>
	</g>
</g>
<g>
	<g>
		<path d="M144.767,241.364c-9.216-10.24-25.088-10.24-34.816-0.512c-9.728,9.728-9.728,25.6,0,35.328
			c4.608,4.608,11.264,7.168,17.408,7.168s12.8-2.56,17.408-7.168c4.608-4.608,7.168-10.752,7.168-17.408
			C151.935,252.116,149.375,245.972,144.767,241.364z M137.599,268.5c-5.632,5.632-14.848,5.632-20.48,0
			c-5.632-5.632-5.632-14.848,0-20.48c3.072-3.072,6.656-4.096,10.24-4.096s7.68,1.536,10.24,4.096s4.096,6.656,4.096,10.24
			C142.207,262.356,140.671,265.94,137.599,268.5z"/>
	</g>
</g>
<g>
	<g>
		<path d="M250.239,151.764c-12.288-12.288-32.768-12.288-45.568,0c-12.288,12.288-12.288,32.768,0,45.568
			c6.144,6.144,14.336,9.216,22.528,9.216c8.192,0,16.384-3.072,22.528-9.216C263.039,184.532,263.039,164.564,250.239,151.764z
			 M243.071,190.164c-8.704,8.704-22.528,8.704-30.72,0c-8.704-8.704-8.704-22.528,0-30.72c4.096-4.096,9.728-6.144,15.36-6.144
			c5.632,0,11.264,2.048,15.36,6.144C251.775,167.636,251.775,181.46,243.071,190.164z"/>
	</g>
</g>
<g>
	<g>
		<path d="M280.959,75.476C200.575-4.908,138.623-0.3,136.063,0.212c-2.048,0-3.584,1.536-4.096,3.072l-128,324.608
			c-3.584,8.704-1.536,18.432,5.12,25.088c4.608,4.608,10.24,6.656,15.872,6.656c3.072,0,6.144-0.512,9.216-2.048l320-132.096
			c1.536-0.512,3.072-2.56,3.072-4.096C357.759,218.836,361.343,155.86,280.959,75.476z M307.071,234.196c0,0,0,0,0,0.512
			L30.079,348.372c-5.632,2.56-11.264,0-13.824-2.56c-3.072-3.072-5.12-8.192-3.072-13.824L123.775,51.412
			c0.512,0,52.224-4.096,119.296,62.976C309.631,180.948,307.071,233.684,307.071,234.196z M317.311,230.1
			c-0.512-14.848-7.168-63.488-66.56-122.88c-59.392-59.904-107.52-66.048-122.88-66.56l11.776-30.208
			c13.312,0.512,67.072,5.632,134.144,72.704s72.704,121.344,73.216,134.656L317.311,230.1z"/>
	</g>
</g>
<g>
</g>
<g>
</g>
<g>
</g>
<g>
</g>
<g>
</g>
<g>
</g>
<g>
</g>
<g>
</g>
<g>
</g>
<g>
</g>
<g>
</g>
<g>
</g>
<g>
</g>
<g>
</g>
<g>
</g>
</svg>
