<?xml version="1.0" encoding="utf-8"?>
<!-- Generator: Adobe Illustrator 16.0.0, SVG Export Plug-In . SVG Version: 6.00 Build 0)  -->
<!DOCTYPE svg PUBLIC "-//W3C//DTD SVG 1.1//EN" "http://www.w3.org/Graphics/SVG/1.1/DTD/svg11.dtd">
<svg version="1.1" id="Layer_1" xmlns="http://www.w3.org/2000/svg" xmlns:xlink="http://www.w3.org/1999/xlink" x="0px" y="0px"
	 width="418.5px" height="96.785px" viewBox="0 0 418.5 96.785" enable-background="new 0 0 418.5 96.785" xml:space="preserve">
<g>
	<g>
		<g>
			<path fill="#FFFFFF" d="M60,26.429C60,10.714,48.572,2.857,34.286,2.857H0v73.928h14.644V50.357H30l12.857,26.428h16.786
				l-14.286-28.57C55.358,44.643,60,37.857,60,26.429z M34.644,36.429H15.358V17.143h18.929c6.429,0,10.357,2.5,10.357,9.643
				C45,33.214,41.429,36.429,34.644,36.429z"/>
			<path fill="#FFFFFF" d="M88.215,20.357c-9.286,0-14.286,1.786-20.715,5.714l5.715,10c5.356-2.5,8.571-3.928,15.356-3.928
				c5.357,0,7.857,3.214,7.857,6.786v2.5c-2.143-1.429-5.714-2.143-10.714-2.143c-12.5,0-22.5,6.071-22.5,18.214
				c0,13.571,10.356,19.643,20.714,19.643c5.357,0,10-2.143,12.5-4.643v3.929h14.643v-37.5
				C111.072,27.143,101.786,20.357,88.215,20.357z M96.429,60.715c-1.785,2.5-5.357,5.356-10,5.356c-6.071,0-8.214-3.571-8.214-7.5
				c0-4.286,3.214-6.786,8.214-6.786c5.357,0,7.5,0.715,10,2.144V60.715z"/>
			<path fill="#FFFFFF" d="M144.286,20.357C138.929,20.357,135,22.5,132.5,25v-3.571h-14.643v75.356l14.643-7.5v-16.07
				c2.5,2.5,6.786,4.285,11.786,4.285c13.929,0,21.785-11.785,21.785-28.215C166.072,29.643,156.429,20.357,144.286,20.357z
				 M142.5,64.643c-4.285,0-7.5-1.785-10-4.643V38.571c2.144-2.5,4.286-4.643,9.286-4.643c5.714,0,9.643,4.643,9.643,16.071
				C151.429,59.285,148.215,64.643,142.5,64.643z"/>
			<rect x="172.5" y="21.786" fill="#FFFFFF" width="14.644" height="55.714"/>
			<path fill="#FFFFFF" d="M180,0.357c-4.285,0-8.214,3.929-8.214,8.214s3.929,8.214,8.214,8.214c4.286,0,8.215-3.929,8.215-8.214
				S184.644,0.357,180,0.357z"/>
			<path fill="#FFFFFF" d="M227.5,7.5V25c-2.5-2.5-6.785-4.286-11.785-4.286c-13.929,0-21.786,11.786-21.786,28.214
				c0,20.714,9.643,29.643,21.786,29.643c5.356,0,9.285-2.143,11.785-4.643V77.5h14.644V0L227.5,7.5z M227.5,60
				c-2.143,2.5-4.285,4.643-9.285,4.643c-5.715,0-9.644-4.643-9.644-16.071c0-9.286,3.215-14.286,8.572-14.286
				c4.285,0,7.5,1.786,10,4.643C227.5,38.929,227.5,60,227.5,60z"/>
		</g>
		<g>
			<path fill="#FFFFFF" d="M281.428,31.786c-11.785-2.5-14.643-4.286-14.643-8.571c0-3.571,2.5-6.429,10.357-6.429
				c6.785,0,12.143,2.5,16.785,7.5l10.715-10.357c-6.785-7.5-15.357-11.786-26.785-11.786c-14.643,0-26.43,8.214-26.43,21.786
				c0,14.643,9.643,18.571,22.857,22.143c13.93,3.214,16.43,5.357,16.43,10c0,5.714-3.93,7.857-12.857,7.857
				c-6.787,0-13.93-2.5-18.572-8.214l-10.714,9.643c5.714,8.214,16.429,13.571,28.572,13.571c20,0,28.928-9.644,28.928-23.571
				C306.071,38.571,293.215,34.643,281.428,31.786z"/>
			<path fill="#FFFFFF" d="M342.143,31.786c-11.785-2.5-14.643-4.286-14.643-8.571c0-3.571,2.5-6.429,10.357-6.429
				c6.785,0,12.143,2.5,16.785,7.5l10.715-10.357C358.571,6.429,350,2.143,338.571,2.143c-14.643,0-26.428,8.214-26.428,21.786
				c0,14.643,9.643,18.571,22.857,22.143c13.928,3.214,16.428,5.357,16.428,10c0,5.714-3.928,7.857-12.857,7.857
				c-6.785,0-13.928-2.5-18.57-8.214l-10.715,9.643c5.715,8.214,16.43,13.571,28.572,13.571c20,0,28.928-9.644,28.928-23.571
				C366.428,38.571,353.928,34.643,342.143,31.786z"/>
			<polygon fill="#FFFFFF" points="408.215,62.5 391.428,62.5 391.428,2.857 376.428,2.857 376.428,76.785 416.785,76.785 			"/>
		</g>
	</g>
</g>
</svg>
