<?xml version="1.0" encoding="utf-8"?>
<!-- Generator: Adobe Illustrator 16.0.0, SVG Export Plug-In . SVG Version: 6.00 Build 0)  -->
<!DOCTYPE svg PUBLIC "-//W3C//DTD SVG 1.1//EN" "http://www.w3.org/Graphics/SVG/1.1/DTD/svg11.dtd">
<svg version="1.1" id="Layer_1" xmlns="http://www.w3.org/2000/svg" xmlns:xlink="http://www.w3.org/1999/xlink" x="0px" y="0px"
	 width="30px" height="30px" viewBox="0 0 30 30" enable-background="new 0 0 30 30" xml:space="preserve">
<g>
	<path d="M6.061,16.892H0.598c-0.24,0-0.434-0.195-0.434-0.435v-6.413c0-0.24,0.194-0.432,0.434-0.432h5.77
		c0.24,0,0.433,0.192,0.433,0.432c0,0.239-0.193,0.434-0.433,0.434H1.031v5.545h5.03c0.24,0,0.434,0.193,0.434,0.434
		C6.495,16.696,6.301,16.892,6.061,16.892"/>
	<path d="M19.518,16.892h-8.295c-0.239,0-0.434-0.195-0.434-0.435c0-0.24,0.195-0.434,0.434-0.434h8.295
		c0.24,0,0.435,0.193,0.435,0.434C19.952,16.696,19.758,16.892,19.518,16.892"/>
	<path d="M26.761,16.892h-2.599c-0.241,0-0.435-0.195-0.435-0.435c0-0.24,0.193-0.434,0.435-0.434h2.164v-5.545
		h-2.69c-0.239,0-0.433-0.194-0.433-0.434c0-0.24,0.193-0.432,0.433-0.432h3.125c0.238,0,0.433,0.192,0.433,0.432v6.413
		C27.193,16.696,26.999,16.892,26.761,16.892"/>
	<path d="M19.887,10.478h-9.524c-0.24,0-0.434-0.194-0.434-0.434s0.194-0.432,0.434-0.432h9.524
		c0.242,0,0.436,0.192,0.436,0.432S20.129,10.478,19.887,10.478"/>
	<path d="M15.123,20.563c-2.102,0-4.077-0.817-5.562-2.305c-3.065-3.064-3.065-8.055,0-11.12
		c3.067-3.065,8.057-3.067,11.123,0c1.485,1.486,2.302,3.461,2.302,5.561c0,2.102-0.816,4.076-2.302,5.559
		C19.199,19.745,17.224,20.563,15.123,20.563 M15.123,5.704c-1.793,0-3.583,0.682-4.949,2.046c-2.729,2.728-2.729,7.169,0,9.895
		c1.322,1.324,3.081,2.053,4.949,2.053c1.871,0,3.625-0.729,4.947-2.053c1.323-1.32,2.052-3.079,2.052-4.947
		c0-1.87-0.729-3.627-2.052-4.948C18.707,6.386,16.915,5.704,15.123,5.704"/>
	<path d="M27.185,27.41c-0.026,0-0.054,0-0.08,0c-0.872-0.025-1.722-0.435-2.335-1.117l-6.174-6.917
		c-0.159-0.18-0.142-0.453,0.036-0.612c0.178-0.158,0.452-0.143,0.61,0.036l6.173,6.915c0.455,0.51,1.078,0.811,1.712,0.827
		c0.524,0.021,0.99-0.165,1.333-0.505c0.342-0.344,0.524-0.821,0.507-1.34c-0.018-0.632-0.32-1.254-0.826-1.701l-6.919-6.176
		c-0.179-0.159-0.192-0.434-0.036-0.612c0.159-0.178,0.434-0.192,0.614-0.035l6.918,6.177c0.683,0.604,1.091,1.45,1.117,2.323
		c0.021,0.761-0.249,1.462-0.763,1.977C28.578,27.142,27.911,27.41,27.185,27.41"/>
</g>
</svg>
