<svg xmlns="http://www.w3.org/2000/svg" viewBox="0 0 86.92 42.84"><g id="Layer_2" data-name="Layer 2"><g id="Layer_1-2" data-name="Layer 1"><g id="truck-road"><path d="M30.16,36.8H25.92a5,5,0,0,1-5-5V27.34a1,1,0,0,1,2,0V31.8a3,3,0,0,0,3,3h4.24a1,1,0,0,1,0,2Z"/><path d="M65.91,36.8H42.41a1,1,0,0,1,0-2h23.5a1,1,0,0,1,0,2Z"/><path d="M81.92,36.8H78.2a1,1,0,0,1,0-2h3.72a3,3,0,0,0,3-3V23.7C73.62,1.71,61.54,2,61.42,2H21.34a1,1,0,0,1,0-2h40c.5,0,13.53-.34,25.44,23a1,1,0,0,1,.11.46V31.8A5,5,0,0,1,81.92,36.8Z"/><path d="M72.07,42.84a7,7,0,1,1,7-7A7,7,0,0,1,72.07,42.84Zm0-12a5,5,0,1,0,5,5A5,5,0,0,0,72.07,30.82Z"/><path d="M36.31,42.84a7,7,0,1,1,7-7A7,7,0,0,1,36.31,42.84Zm0-12a5,5,0,1,0,5,5A5,5,0,0,0,36.31,30.82Z"/><path d="M82.68,20H66.93c-4.53,0-5.73-3.9-5.73-6V7.84a1,1,0,0,1,2,0v6.23c0,.4.14,4,3.73,4H82.68a1,1,0,0,1,0,2Z"/><path d="M33.25,8.55H6.93a1,1,0,0,1,0-2H33.25a1,1,0,0,1,0,2Z"/><path d="M26.59,28.06H13.29a1,1,0,1,1,0-2h13.3a1,1,0,0,1,0,2Z"/><path d="M33.25,21.56H1a1,1,0,0,1,0-2H33.25a1,1,0,0,1,0,2Z"/><path d="M39.92,15.05H14.6a1,1,0,1,1,0-2H39.92a1,1,0,0,1,0,2Z"/></g></g></g></svg>