<svg xmlns="http://www.w3.org/2000/svg" viewBox="0 0 56.95 56.95"><g id="Layer_2" data-name="Layer 2"><g id="Layer_1-2" data-name="Layer 1"><g id="setting"><path d="M32.39,57H24.55a1,1,0,0,1-1-.83l-1.15-6.75a22,22,0,0,1-4.48-1.86l-5.54,4a1,1,0,0,1-1.29-.1L5.57,45.84a1,1,0,0,1-.11-1.29l4-5.54a21.4,21.4,0,0,1-1.86-4.48L.83,33.38a1,1,0,0,1-.83-1V24.55a1,1,0,0,1,.83-1l6.75-1.15A20.79,20.79,0,0,1,9.42,18l-4-5.58a1,1,0,0,1,.11-1.29l5.54-5.54a1,1,0,0,1,1.29-.11l5.58,4a21.68,21.68,0,0,1,4.48-1.85L23.57.84a1,1,0,0,1,1-.84h7.84a1,1,0,0,1,1,.84l1.11,6.73A21.37,21.37,0,0,1,39,9.42l5.58-4a1,1,0,0,1,1.29.11l5.54,5.54a1,1,0,0,1,.11,1.29l-4,5.58a21.37,21.37,0,0,1,1.85,4.48l6.73,1.11a1,1,0,0,1,.84,1v7.84a1,1,0,0,1-.84,1l-6.73,1.1A21.62,21.62,0,0,1,47.51,39l4,5.54a1,1,0,0,1-.1,1.29l-5.54,5.54a1,1,0,0,1-1.29.1l-5.54-4a22,22,0,0,1-4.48,1.86l-1.15,6.75A1,1,0,0,1,32.39,57Zm-7-2h6.15l1.11-6.55a1,1,0,0,1,.74-.8,19.28,19.28,0,0,0,5.16-2.14,1,1,0,0,1,1.09,0L45,49.36,49.36,45l-3.85-5.37a1,1,0,0,1,0-1.09,19.59,19.59,0,0,0,2.16-5.2,1,1,0,0,1,.8-.74L55,31.54V25.4l-6.53-1.07a1,1,0,0,1-.8-.74,19.93,19.93,0,0,0-2.13-5.16,1,1,0,0,1,0-1.09l3.84-5.41L45,7.58l-5.41,3.84a1,1,0,0,1-1.09,0,19.93,19.93,0,0,0-5.16-2.13,1,1,0,0,1-.74-.8L31.54,2H25.4L24.33,8.53a1,1,0,0,1-.74.8,19.79,19.79,0,0,0-5.16,2.13,1,1,0,0,1-1.09,0L11.93,7.58,7.58,11.93l3.84,5.41a1,1,0,0,1,0,1.09,19.5,19.5,0,0,0-2.12,5.12,1,1,0,0,1-.8.74L2,25.4v6.15l6.54,1.11a1,1,0,0,1,.8.74,20,20,0,0,0,2.14,5.16,1,1,0,0,1,0,1.09L7.58,45l4.35,4.34,5.37-3.85a1,1,0,0,1,1.09,0,19.28,19.28,0,0,0,5.16,2.14,1,1,0,0,1,.74.8Z"/><path d="M28.47,37A8.53,8.53,0,1,1,37,28.47,8.54,8.54,0,0,1,28.47,37Zm0-15.06A6.53,6.53,0,1,0,35,28.47,6.54,6.54,0,0,0,28.47,21.94Z"/></g></g></g></svg>