<?xml version="1.0" encoding="iso-8859-1"?>
<!-- Generator: Adobe Illustrator 19.0.0, SVG Export Plug-In . SVG Version: 6.00 Build 0)  -->
<svg version="1.1" id="Layer_1" xmlns="http://www.w3.org/2000/svg" xmlns:xlink="http://www.w3.org/1999/xlink" x="0px" y="0px"
	 viewBox="0 0 496 496" style="enable-background:new 0 0 496 496;" xml:space="preserve">
<g>
	<g>
		<g>
			<path d="M256,144v-32h16V64h-21.616C236.928,26.04,200.64,0,160,0S83.072,26.04,69.616,64H48v48h16v32c0,52.936,43.064,96,96,96
				C212.936,240,256,196.936,256,144z M160,16c31.928,0,60.608,19.296,73.184,48H86.816C99.392,35.296,128.072,16,160,16z M64,80
				h192v16H64V80z M80,144v-32h160v32c0,0.888-0.104,1.752-0.136,2.64l-28.936,11.576c-10.76,4.304-23.648,0.288-30.064-9.336
				l-1.776-2.664C174.832,139.824,167.688,136,160,136s-14.832,3.824-19.096,10.216l-1.776,2.664
				c-6.416,9.616-19.304,13.624-30.064,9.336L80.128,146.64C80.104,145.752,80,144.888,80,144z M160,224
				c-36.848,0-67.872-25.072-77.12-59.032l20.248,8.104C108,175.016,113.12,176,118.352,176c13.728,0,26.48-6.824,34.096-18.248
				l1.776-2.664c2.576-3.872,8.984-3.872,11.56,0l1.776,2.664C175.168,169.176,187.92,176,201.648,176
				c5.232,0,10.352-0.984,15.216-2.928l20.248-8.104C227.872,198.928,196.848,224,160,224z"/>
			<rect x="112" y="128" width="16" height="16"/>
			<rect x="192" y="128" width="16" height="16"/>
			<path d="M480,256v-64c0-61.76-50.24-112-112-112s-112,50.24-112,112v56.536c-13.08-5.6-27.232-8.536-41.608-8.536H160h-54.392
				C47.376,240,0,287.376,0,345.608V496h240h8h248V256H480z M199.096,256C196.84,267.688,188.8,288,160,288
				c-28.912,0-36.936-20.16-39.152-32H199.096z M104.6,256.048c1.08,7.504,3.744,16.104,8.648,23.952H44.776
				C60.544,265.376,81.512,256.312,104.6,256.048z M56,480H16v-24h40V480z M56,440H16v-24h40V440z M56,400H16v-24h40V400z M240,440
				h-16v16h16v24H72v-24h136v-16H72v-24h168V440z M240,400H72v-24h168V400z M240,320H88v16h152v24H72v-8H56v8H16v-14.392
				c0-3.248,0.192-6.448,0.536-9.608H72v-16H19.776c2.576-8.608,6.384-16.688,11.272-24h98.176c7.88,4.856,17.92,8,30.776,8
				s22.904-3.144,30.776-8H240V320z M240,280h-33.248c4.896-7.84,7.56-16.44,8.64-23.936c8.392,0.096,16.656,1.408,24.608,3.776V280
				z M272,192c0-52.936,43.064-96,96-96c52.936,0,96,43.064,96,96v64h-32v-64c0-35.288-28.712-64-64-64c-35.288,0-64,28.712-64,64
				v64h-32V192z M416,192v64h-96v-64c0-26.472,21.528-48,48-48S416,165.528,416,192z M480,480H256V272h64h96h64V480z"/>
			<path d="M368,296c-26.472,0-48,21.528-48,48c0,13.704,5.784,26.464,16,35.592V456h64v-76.408c10.216-9.128,16-21.888,16-35.592
				C416,317.528,394.472,296,368,296z M387.176,369.44l-3.176,2.4V440h-32v-68.16l-3.176-2.4C340.672,363.28,336,354.008,336,344
				c0-17.648,14.352-32,32-32s32,14.352,32,32C400,354.008,395.328,363.28,387.176,369.44z"/>
		</g>
	</g>
</g>
<g>
</g>
<g>
</g>
<g>
</g>
<g>
</g>
<g>
</g>
<g>
</g>
<g>
</g>
<g>
</g>
<g>
</g>
<g>
</g>
<g>
</g>
<g>
</g>
<g>
</g>
<g>
</g>
<g>
</g>
</svg>
