<svg xmlns="http://www.w3.org/2000/svg" viewBox="0 0 47.03 56.44"><g id="Layer_2" data-name="Layer 2"><g id="Layer_1-2" data-name="Layer 1"><g id="trash"><path d="M33.54,9.28h-2V4.5A2.5,2.5,0,0,0,29,2H18a2.5,2.5,0,0,0-2.49,2.5V9.28h-2V4.5A4.5,4.5,0,0,1,18,0H29a4.51,4.51,0,0,1,4.5,4.5Z"/><path d="M36.68,56.44H11.18A5.31,5.31,0,0,1,6,51.51L3.79,14.88l2-.11L8,51.39a3.32,3.32,0,0,0,3.23,3h25.5a3.19,3.19,0,0,0,3.16-3l1.4-36.62,2,.07L41.83,51.48A5.19,5.19,0,0,1,36.68,56.44Z"/><path d="M46,10.49H1a1,1,0,0,1,0-2H46a1,1,0,0,1,0,2Z"/><rect x="22.51" y="14.73" width="2" height="34.81"/><rect x="14.55" y="31.12" width="34.85" height="2" transform="translate(-1 63.21) rotate(-88.43)"/><rect x="14.07" y="14.73" width="2" height="34.81" transform="translate(-0.9 0.44) rotate(-1.62)"/></g></g></g></svg>