<?xml version="1.0" encoding="utf-8"?>
<!-- Generator: Adobe Illustrator 16.0.0, SVG Export Plug-In . SVG Version: 6.00 Build 0)  -->
<!DOCTYPE svg PUBLIC "-//W3C//DTD SVG 1.1//EN" "http://www.w3.org/Graphics/SVG/1.1/DTD/svg11.dtd">
<svg version="1.1" id="Layer_1" focusable="false" xmlns="http://www.w3.org/2000/svg" xmlns:xlink="http://www.w3.org/1999/xlink"
	 x="0px" y="0px" width="612px" height="613.333px" viewBox="0 90.167 612 613.333" enable-background="new 0 90.167 612 613.333"
	 xml:space="preserve">
<path fill="#FFFFFF" d="M520.336,178.931C463.098,121.556,386.871,90,305.864,90C138.656,90,2.596,226.061,2.596,393.268
	c0,53.414,13.934,105.597,40.436,151.633L0,702l160.786-42.212c44.261,24.18,94.122,36.884,144.94,36.884h0.137
	C472.934,696.672,612,560.611,612,393.404C612,312.396,577.574,236.306,520.336,178.931z M305.864,645.581
	c-45.354,0-89.751-12.158-128.411-35.107l-9.152-5.465l-95.352,24.999l25.408-93.029l-6.011-9.563
	c-25.271-40.162-38.522-86.473-38.522-134.148c0-138.93,113.11-252.041,252.177-252.041c67.347,0,130.596,26.229,178.135,73.905
	c47.54,47.676,76.773,110.925,76.637,178.272C560.772,532.471,444.792,645.581,305.864,645.581z M444.11,456.79
	c-7.514-3.825-44.808-22.13-51.774-24.589c-6.967-2.596-12.021-3.825-17.075,3.824c-5.055,7.65-19.535,24.59-24.043,29.781
	c-4.372,5.054-8.88,5.737-16.394,1.912c-44.533-22.267-73.768-39.753-103.138-90.161c-7.787-13.388,7.786-12.431,22.267-41.392
	c2.459-5.055,1.229-9.426-0.683-13.251c-1.913-3.825-17.076-41.119-23.36-56.282c-6.146-14.753-12.431-12.704-17.075-12.978
	c-4.372-0.273-9.426-0.273-14.48-0.273s-13.251,1.913-20.218,9.426c-6.968,7.65-26.502,25.955-26.502,63.249
	s27.185,73.358,30.873,78.413c3.825,5.054,53.413,81.555,129.503,114.477c48.086,20.765,66.938,22.54,90.98,18.988
	c14.617-2.186,44.808-18.305,51.092-36.064c6.283-17.759,6.283-32.922,4.371-36.063C456.677,462.391,451.623,460.479,444.11,456.79z
	"/>
</svg>
