<?xml version="1.0" encoding="UTF-8" standalone="no"?>
<!DOCTYPE svg PUBLIC "-//W3C//DTD SVG 1.1//EN" "http://www.w3.org/Graphics/SVG/1.1/DTD/svg11.dtd">
<svg width="100%" height="100%" viewBox="0 0 143 50" version="1.1" xmlns="http://www.w3.org/2000/svg" xmlns:xlink="http://www.w3.org/1999/xlink" xml:space="preserve" xmlns:serif="http://www.serif.com/" style="fill-rule:evenodd;clip-rule:evenodd;stroke-linejoin:round;stroke-miterlimit:1.41421;">
    <g transform="matrix(0.0520648,0,0,0.0520648,72.2874,27.1986)">
        <g id="alternatifbank_logo" transform="matrix(1,0,0,1,-1250,-1250)">
            <rect x="0" y="0.097" width="2500" height="2499.8" style="fill:white;fill-rule:nonzero;"/>
            <path d="M2371.18,1595.11L2400.21,1595.11L2400.21,1566.07L2371.18,1566.07L2371.18,1595.11ZM2280.82,1598.35L2274.39,1614.47C2274.39,1614.47 2277.61,1611.25 2284.07,1614.47C2287.28,1614.47 2287.28,1617.71 2287.28,1620.93C2287.28,1627.38 2280.82,1627.38 2277.61,1627.38C2271.15,1627.38 2264.72,1624.14 2258.26,1620.93L2255.01,1630.6C2264.72,1633.82 2277.61,1637.05 2290.53,1637.05C2300.2,1633.82 2303.42,1630.6 2303.42,1620.93C2303.42,1611.25 2300.2,1608.01 2296.96,1608.01C2290.53,1604.81 2287.28,1604.81 2284.07,1608.01L2287.28,1598.35L2280.82,1598.35ZM2338.92,1501.54C2338.92,1495.11 2335.7,1485.41 2329.24,1475.75C2316.35,1459.61 2293.76,1459.61 2284.08,1459.61C2251.81,1459.61 2235.7,1472.52 2235.7,1495.11C2232.46,1517.68 2245.38,1527.35 2258.27,1530.58C2277.62,1537.03 2303.43,1537.03 2309.89,1546.72C2319.57,1553.16 2316.35,1562.85 2309.89,1569.3C2306.65,1572.53 2300.21,1575.74 2290.54,1575.74C2280.84,1575.74 2271.16,1575.74 2264.73,1569.3C2261.49,1562.85 2258.27,1556.39 2258.27,1553.16L2232.46,1553.16C2232.46,1566.07 2238.92,1578.97 2251.81,1588.66C2261.49,1595.11 2277.62,1598.34 2284.08,1598.34C2296.97,1598.34 2313.11,1595.11 2326.02,1588.66C2342.16,1578.97 2348.62,1546.72 2332.48,1530.57C2326.02,1520.89 2309.89,1517.66 2303.43,1517.66C2296.97,1514.43 2271.16,1511.2 2267.95,1507.99C2261.49,1504.76 2258.27,1504.76 2261.49,1495.1C2261.49,1485.39 2271.16,1478.96 2284.08,1478.96C2303.43,1478.96 2313.11,1488.64 2313.11,1501.53L2338.92,1501.53L2338.92,1501.54ZM2174.36,1595.11L2203.41,1595.11L2203.41,1566.07L2174.36,1566.07L2174.36,1595.11ZM2087.25,1491.87L2103.39,1543.49L2071.14,1543.49L2087.25,1491.87ZM2103.39,1459.6L2071.14,1459.6L2025.96,1595.11L2051.76,1595.11L2061.44,1566.07L2113.09,1566.07L2119.52,1595.11L2148.55,1595.11L2103.39,1459.6ZM1825.9,1595.11L1854.95,1595.11L1854.95,1549.94L1867.84,1537.03L1913.03,1595.12L1945.27,1595.12L1887.2,1517.68L1938.81,1459.6L1906.57,1459.6L1854.95,1517.68L1854.95,1459.6L1825.9,1459.6L1825.9,1595.11ZM1680.73,1459.6L1680.73,1595.11L1709.75,1595.11L1709.75,1501.53L1764.61,1595.11L1790.42,1595.11L1790.42,1459.6L1764.61,1459.6L1764.61,1553.16L1709.75,1459.6L1680.73,1459.6ZM1593.61,1491.87L1609.74,1543.49L1577.5,1543.49L1593.61,1491.87ZM1609.74,1459.6L1577.5,1459.6L1529.1,1595.11L1558.12,1595.11L1567.8,1566.07L1616.2,1566.07L1625.88,1595.11L1654.9,1595.11L1609.74,1459.6ZM1422.63,1537.03L1458.11,1537.03C1458.11,1537.03 1477.46,1533.81 1477.46,1553.16C1477.46,1572.53 1461.33,1572.53 1454.9,1572.53L1422.63,1572.53L1422.63,1537.03ZM1422.63,1482.18L1454.9,1482.18C1464.57,1482.18 1474.25,1485.39 1474.25,1498.3C1474.25,1507.99 1467.79,1514.43 1454.9,1514.43L1422.63,1514.43L1422.63,1482.18ZM1396.81,1595.11L1454.9,1595.11C1464.57,1595.11 1480.68,1591.89 1490.36,1585.43C1500.03,1575.74 1503.27,1562.85 1503.27,1549.94C1500.03,1540.26 1493.6,1527.35 1487.14,1524.13C1496.82,1514.45 1500.03,1504.77 1500.03,1495.11C1500.03,1491.87 1496.82,1482.19 1496.82,1478.98L1487.14,1469.29C1480.68,1462.84 1461.33,1459.61 1454.9,1459.61L1396.81,1459.61L1396.81,1595.11ZM1251.61,1459.6L1251.61,1595.11L1280.63,1595.11L1280.63,1537.01L1338.73,1537.01L1338.73,1514.43L1280.63,1514.43L1280.63,1482.18L1345.18,1482.18L1345.18,1459.6L1251.61,1459.6ZM1193.53,1443.46L1212.89,1443.46L1212.89,1420.88L1193.53,1420.88L1193.53,1443.46ZM1187.08,1595.11L1216.12,1595.11L1216.12,1459.6L1187.08,1459.6L1187.08,1595.11ZM1054.81,1459.6L1054.81,1482.18L1096.75,1482.18L1096.75,1595.11L1122.56,1595.11L1122.56,1482.18L1161.27,1482.18L1161.27,1459.6L1054.81,1459.6ZM977.363,1491.87L993.497,1543.49L961.228,1543.49L977.363,1491.87ZM993.497,1459.6L961.228,1459.6L912.838,1595.11L941.877,1595.11L951.553,1566.07L999.956,1566.07L1009.63,1595.11L1038.67,1595.11L993.497,1459.6ZM777.33,1459.6L777.33,1595.11L803.14,1595.11L803.14,1501.53L857.989,1595.11L887.028,1595.11L887.028,1459.6L857.989,1459.6L857.989,1553.16L803.14,1459.6L777.33,1459.6ZM661.173,1482.18L699.887,1482.18C712.805,1482.18 716.022,1488.64 716.022,1498.3C719.251,1511.2 706.346,1517.66 699.887,1517.66L661.173,1517.66L661.173,1482.18ZM635.363,1595.11L661.173,1595.11L661.173,1540.26L693.441,1540.26C703.117,1540.26 709.576,1546.72 712.805,1553.16C709.576,1562.85 709.576,1575.74 712.805,1582.2C712.805,1585.43 712.805,1588.66 716.022,1595.11L745.061,1595.11L745.061,1588.66C741.832,1588.66 738.615,1585.43 738.615,1578.97L738.615,1546.72C735.386,1537.03 728.927,1533.81 722.481,1530.58C732.156,1524.13 738.615,1520.91 741.832,1508C745.061,1498.31 741.832,1488.65 741.832,1482.19C735.386,1466.07 722.481,1459.61 709.576,1459.61L635.363,1459.61L635.363,1595.11ZM499.855,1459.6L499.855,1595.11L599.878,1595.11L599.878,1572.53L528.894,1572.53L528.894,1537.03L593.432,1537.03L593.432,1514.45L528.894,1514.45L528.894,1482.19L596.648,1482.19L596.648,1459.61L499.855,1459.61L499.855,1459.6ZM364.347,1459.6L364.347,1482.18L406.278,1482.18L406.278,1595.11L432.101,1595.11L432.101,1482.18L474.045,1482.18L474.045,1459.6L364.347,1459.6ZM254.648,1459.6L254.648,1595.11L344.983,1595.11L344.983,1572.53L280.458,1572.53L280.458,1459.6L254.648,1459.6ZM161.084,1491.87L180.435,1543.49L144.95,1543.49L161.084,1491.87ZM177.206,1459.6L144.95,1459.6L99.789,1595.11L128.829,1595.11L138.504,1566.07L186.894,1566.07L196.57,1595.11L222.38,1595.11L177.206,1459.6ZM2206.64,1288.59L2261.49,1378.95L2387.33,1378.95L2277.62,1220.86L2374.41,1120.84L2255.03,1120.84L2187.29,1198.27L2187.29,1024.03L2084.03,1024.03L2084.03,1378.94L2187.29,1378.94L2187.29,1307.94L2206.64,1288.59ZM1735.56,1378.94L1838.81,1378.94L1838.81,1246.63C1838.81,1214.39 1848.49,1195.03 1880.76,1195.03C1909.79,1195.03 1916.24,1217.61 1916.24,1243.42L1916.24,1378.93L2019.47,1378.93L2019.47,1224.07C2019.47,1153.1 1987.23,1111.15 1919.49,1111.15C1880.76,1111.15 1854.94,1130.5 1832.34,1159.54L1832.34,1120.83L1735.55,1120.83L1735.55,1378.94L1735.56,1378.94ZM1519.41,1327.32C1500.03,1327.32 1487.14,1320.86 1487.14,1307.95C1487.14,1272.47 1532.3,1282.15 1564.58,1266.01C1567.8,1301.51 1554.91,1327.32 1519.41,1327.32ZM1680.73,1378.94L1680.73,1375.71C1667.83,1362.81 1667.83,1356.36 1667.83,1340.22L1667.83,1220.85C1667.83,1159.54 1661.38,1111.15 1538.77,1111.15C1435.52,1111.15 1396.82,1143.41 1396.82,1198.26L1493.61,1198.26C1496.83,1175.68 1516.18,1175.68 1532.31,1175.68C1541.99,1175.68 1564.58,1175.68 1564.58,1195.04C1564.58,1243.43 1380.67,1191.81 1380.67,1307.95C1380.67,1362.81 1422.62,1388.61 1471.01,1388.61C1509.73,1388.61 1541.99,1378.95 1571.04,1353.14L1574.26,1378.95L1680.73,1378.95L1680.73,1378.94ZM1167.73,1230.53C1206.45,1230.53 1232.26,1233.76 1232.26,1262.8C1232.26,1291.81 1209.66,1295.04 1180.65,1295.04L1132.25,1295.04L1132.25,1230.51L1167.73,1230.51L1167.73,1230.53ZM1170.95,1104.69C1196.76,1104.69 1219.35,1107.92 1219.35,1133.73C1219.35,1156.31 1203.22,1166 1180.64,1166L1132.24,1166L1132.24,1104.69L1170.95,1104.69ZM1187.08,1378.94C1280.63,1378.94 1341.97,1353.13 1341.97,1272.46C1341.97,1233.76 1319.38,1201.47 1280.63,1188.58C1306.44,1175.66 1329.04,1149.87 1329.04,1111.15C1329.04,1040.17 1264.51,1024.03 1183.84,1024.03L1012.86,1024.03L1012.86,1378.94L1187.08,1378.94ZM515.989,807.867L706.346,807.867L925.743,1378.94L728.927,1378.94L609.553,1001.44L541.799,1178.91L661.173,1178.91L596.648,1382.18L286.917,1382.18L515.989,807.867Z" style="fill:rgb(50,83,144);"/>
            <path d="M344.983,807.867L515.989,807.867L286.917,1382.18L112.681,1382.18L344.983,807.867Z" style="fill:rgb(215,130,52);"/>
        </g>
    </g>
</svg>
