<?xml version="1.0" encoding="UTF-8"?>
<svg xmlns="http://www.w3.org/2000/svg" xmlns:xlink="http://www.w3.org/1999/xlink" width="425.28pt" height="128.16pt" viewBox="0 0 425.28 128.16" version="1.1">
<defs>
<clipPath id="clip1">
  <path d="M 193 30 L 286 30 L 286 128.160156 L 193 128.160156 Z M 193 30 "/>
</clipPath>
<clipPath id="clip2">
  <path d="M 289 30 L 356 30 L 356 128.160156 L 289 128.160156 Z M 289 30 "/>
</clipPath>
<clipPath id="clip3">
  <path d="M 359 30 L 425.28125 30 L 425.28125 128.160156 L 359 128.160156 Z M 359 30 "/>
</clipPath>
</defs>
<g id="surface1">
<path style=" stroke:none;fill-rule:evenodd;fill:rgb(99.598694%,76.098633%,5.099487%);fill-opacity:1;" d="M 190.347656 0 L 105.664063 0 L 148.007813 61.179688 "/>
<path style=" stroke:none;fill-rule:evenodd;fill:rgb(13.699341%,12.199402%,12.5%);fill-opacity:1;" d="M 89.140625 126.425781 L 79.617188 107.664063 L 34.859375 107.664063 L 25.71875 126.425781 L 0 126.425781 L 52.054688 32.671875 L 62.191406 32.671875 L 114.703125 126.425781 Z M 57.121094 60.949219 L 41.460938 91.117188 L 72.785156 91.117188 "/>
<path style=" stroke:none;fill-rule:evenodd;fill:rgb(13.699341%,12.199402%,12.5%);fill-opacity:1;" d="M 171.871094 126.425781 L 147.703125 95.84375 L 127.175781 126.425781 L 101.199219 126.425781 L 136.152344 78.398438 L 102.996094 32.488281 L 128.144531 32.488281 L 148.003906 61.179688 L 167.867188 32.488281 L 192.863281 32.488281 L 159.03125 78.398438 L 198.378906 126.425781 "/>
<g clip-path="url(#clip1)" clip-rule="nonzero">
<path style=" stroke:none;fill-rule:evenodd;fill:rgb(13.699341%,12.199402%,12.5%);fill-opacity:1;" d="M 283.914063 86.175781 L 216.851563 86.175781 C 217.257813 93.878906 219.925781 99.792969 224.859375 103.921875 C 229.539063 107.902344 235.8125 109.890625 243.664063 109.890625 C 253.632813 109.890625 261.234375 107.273438 266.472656 102.035156 L 274.929688 118.800781 C 267.226563 125.042969 255.722656 128.160156 240.414063 128.160156 C 225.765625 128.160156 214.3125 123.859375 206.054688 115.25 C 197.949219 106.792969 193.894531 95.214844 193.894531 80.511719 C 193.894531 66.570313 198.175781 54.890625 206.734375 45.472656 C 215.546875 35.65625 226.824219 30.75 240.566406 30.75 C 253.757813 30.75 264.535156 34.625 272.890625 42.378906 C 281.449219 50.382813 285.730469 60.929688 285.730469 74.019531 C 285.730469 76.6875 285.125 80.738281 283.914063 86.175781 M 217.609375 69.710938 L 263.753906 69.710938 C 262.242188 55.972656 254.640625 49.097656 240.945313 49.097656 C 228.410156 49.097656 220.628906 55.972656 217.609375 69.710938 "/>
</g>
<g clip-path="url(#clip2)" clip-rule="nonzero">
<path style=" stroke:none;fill-rule:evenodd;fill:rgb(13.699341%,12.199402%,12.5%);fill-opacity:1;" d="M 289.914063 120.386719 L 297.695313 102.945313 C 304.289063 108.125 311.691406 110.71875 319.894531 110.71875 C 328.453125 110.71875 332.730469 107.675781 332.730469 101.582031 C 332.730469 97.355469 330.519531 93.730469 326.089844 90.707031 C 324.074219 89.300781 319.996094 87.308594 313.855469 84.742188 C 297.640625 78.042969 289.535156 68.65625 289.535156 56.574219 C 289.535156 47.914063 293.035156 41.292969 300.035156 36.710938 C 306.027344 32.738281 313.550781 30.75 322.613281 30.75 C 332.382813 30.75 341.570313 32.9375 350.179688 37.320313 L 343.839844 54.382813 C 339.054688 50.253906 332.382813 48.191406 323.820313 48.191406 C 316.171875 48.191406 312.34375 51.238281 312.34375 57.328125 C 312.34375 60.554688 315.011719 63.597656 320.351563 66.464844 C 322.011719 67.425781 325.988281 69.132813 332.28125 71.601563 C 347.789063 77.695313 355.539063 87.207031 355.539063 100.148438 C 355.539063 109.660156 351.765625 116.910156 344.214844 121.894531 C 337.769531 126.074219 329.515625 128.160156 319.445313 128.160156 C 313.25 128.160156 308.140625 127.605469 304.109375 126.5 C 300.4375 125.496094 295.703125 123.457031 289.914063 120.386719 "/>
</g>
<g clip-path="url(#clip3)" clip-rule="nonzero">
<path style=" stroke:none;fill-rule:evenodd;fill:rgb(13.699341%,12.199402%,12.5%);fill-opacity:1;" d="M 359.652344 120.386719 L 367.429688 102.945313 C 374.027344 108.125 381.425781 110.71875 389.632813 110.71875 C 398.191406 110.71875 402.46875 107.675781 402.46875 101.582031 C 402.46875 97.355469 400.257813 93.730469 395.824219 90.707031 C 393.8125 89.300781 389.734375 87.308594 383.59375 84.742188 C 367.378906 78.042969 359.273438 68.65625 359.273438 56.574219 C 359.273438 47.914063 362.773438 41.292969 369.769531 36.710938 C 375.761719 32.738281 383.289063 30.75 392.351563 30.75 C 402.121094 30.75 411.308594 32.9375 419.917969 37.320313 L 413.574219 54.382813 C 408.789063 50.253906 402.121094 48.191406 393.558594 48.191406 C 385.910156 48.191406 382.078125 51.238281 382.078125 57.328125 C 382.078125 60.554688 384.75 63.597656 390.085938 66.464844 C 391.746094 67.425781 395.722656 69.132813 402.019531 71.601563 C 417.527344 77.695313 425.277344 87.207031 425.277344 100.148438 C 425.277344 109.660156 421.503906 116.910156 413.949219 121.894531 C 407.507813 126.074219 399.25 128.160156 389.179688 128.160156 C 382.988281 128.160156 377.878906 127.605469 373.847656 126.5 C 370.171875 125.496094 365.441406 123.457031 359.652344 120.386719 "/>
</g>
</g>
</svg>
