<?xml version="1.0" encoding="UTF-8" standalone="no"?>
<!DOCTYPE svg PUBLIC "-//W3C//DTD SVG 1.1//EN" "http://www.w3.org/Graphics/SVG/1.1/DTD/svg11.dtd">
<svg width="100%" height="100%" viewBox="0 0 120 24" version="1.1" xmlns="http://www.w3.org/2000/svg" xmlns:xlink="http://www.w3.org/1999/xlink" xml:space="preserve" xmlns:serif="http://www.serif.com/" style="fill-rule:evenodd;clip-rule:evenodd;stroke-linejoin:round;stroke-miterlimit:1.41421;">
    <g transform="matrix(0.617434,0,0,0.617434,58.6087,5.31448)">
        <g id="bonuscard_logo" transform="matrix(1,0,0,1,-96.5,-96.5)">
            <g id="surface1">
                <path d="M0,0.242L192.758,0.242L192.758,193L0,193L0,0.242" style="fill:rgb(254,254,254);"/>
                <path d="M33.195,103.914L24.699,103.914C24.699,103.914 24.684,103.914 24.676,103.914C24.676,103.906 24.676,103.895 24.676,103.895L24.676,95.398C24.676,94.746 24.234,94.309 23.582,94.309L19.895,94.309C19.207,94.309 18.801,94.719 18.801,95.398L18.801,103.895C18.801,103.895 18.797,103.906 18.797,103.914C18.789,103.914 18.773,103.914 18.773,103.914L10.34,103.914C9.652,103.914 9.246,104.324 9.246,105.012L9.246,108.703C9.246,109.387 9.652,109.793 10.34,109.793L18.773,109.793C18.773,109.793 18.785,109.793 18.797,109.797C18.797,109.809 18.801,109.82 18.801,109.82L18.801,118.254C18.801,118.941 19.207,119.348 19.895,119.348L23.582,119.348C24.266,119.348 24.676,118.941 24.676,118.254L24.676,109.82C24.676,109.82 24.676,109.805 24.676,109.793L33.195,109.793C33.879,109.793 34.285,109.387 34.285,108.703L34.285,105.012C34.285,104.352 33.848,103.914 33.195,103.914" style="fill:rgb(254,212,31);"/>
                <path d="M48.543,112.973C48.543,114.602 47.352,115.832 45.727,115.832C44.098,115.832 42.867,114.563 42.867,112.973L42.867,108.805C42.867,107.219 44.059,105.984 45.727,105.984C47.352,105.984 48.543,107.219 48.543,108.805L48.543,112.973ZM53.109,112.973L53.109,108.805C53.109,104.793 50.133,101.816 46.32,101.816C44.613,101.816 43.621,102.609 43.145,102.609C42.984,102.609 42.867,102.453 42.867,102.172L42.867,95.387C42.867,95.105 42.711,94.988 42.469,94.988L38.738,94.988C38.461,94.988 38.34,95.105 38.34,95.387L38.34,119.602C38.34,119.879 38.461,120 38.738,120L42.113,120C42.668,120 42.43,119.207 42.789,119.207C43.266,119.207 44.176,120 45.965,120C50.094,120 53.109,117.141 53.109,112.973" style="fill:rgb(0,104,63);"/>
                <path d="M64.781,113.371C64.781,114.957 63.551,116.227 61.965,116.227C60.297,116.227 59.105,114.957 59.105,113.371L59.105,108.445C59.105,106.859 60.297,105.59 61.965,105.59C63.551,105.59 64.781,106.859 64.781,108.445L64.781,113.371ZM69.348,113.371L69.348,108.445C69.348,104.238 66.41,101.418 61.965,101.418C57.477,101.418 54.539,104.238 54.539,108.445L54.539,113.371C54.539,117.578 57.477,120.398 61.965,120.398C66.41,120.398 69.348,117.578 69.348,113.371" style="fill:rgb(0,104,63);"/>
                <path d="M85.746,120L81.973,120C81.695,120 81.578,119.879 81.578,119.602L81.578,108.805C81.578,107.219 80.387,105.984 78.758,105.984C77.09,105.984 75.902,107.219 75.902,108.805L75.902,119.602C75.902,119.879 75.781,120 75.504,120L71.77,120C71.492,120 71.375,119.879 71.375,119.602L71.375,102.215C71.375,101.938 71.492,101.816 71.77,101.816L75.145,101.816C75.742,101.816 75.504,102.609 75.82,102.609C76.297,102.609 77.246,101.816 79.074,101.816C83.125,101.816 86.141,104.672 86.141,108.805L86.141,119.602C86.141,119.879 86.023,120 85.746,120" style="fill:rgb(0,104,63);"/>
                <path d="M102.738,120L99.363,120C98.809,120 99.047,119.207 98.688,119.207C98.211,119.207 97.258,120 95.473,120C91.344,120 88.367,117.141 88.367,112.973L88.367,102.215C88.367,101.938 88.484,101.816 88.766,101.816L92.535,101.816C92.773,101.816 92.934,101.938 92.934,102.215L92.934,112.973C92.934,114.602 94.125,115.832 95.75,115.832C97.379,115.832 98.609,114.563 98.609,112.973L98.609,102.215C98.609,101.938 98.727,101.816 99.008,101.816L102.738,101.816C102.977,101.816 103.137,101.938 103.137,102.215L103.137,119.602C103.137,119.879 103.016,120 102.738,120" style="fill:rgb(0,104,63);"/>
                <path d="M117.629,102.77C119.094,103.844 119.969,105.547 119.969,106.023C119.969,106.145 119.891,106.262 119.73,106.344L116.477,107.93C116.395,107.973 116.316,107.973 116.277,107.973C116.117,107.973 116.078,107.891 115.961,107.73C115.125,106.5 114.688,105.469 113.063,105.469L111.91,105.469C110.48,105.469 109.723,105.984 109.723,106.977C109.723,108.605 111.91,108.25 115.164,109.121C118.379,109.996 119.891,111.465 119.891,114.086C119.891,117.816 117.23,120.398 113.063,120.398L111.91,120.398C109.688,120.398 107.98,119.762 106.746,118.453C105.52,117.18 105.039,116.07 105.039,115.711C105.039,115.594 105.121,115.516 105.277,115.438L108.535,113.848C108.613,113.805 108.652,113.805 108.734,113.805C108.852,113.805 108.934,113.926 109.051,114.086C109.844,115.395 110.359,116.348 111.91,116.348L113.063,116.348C114.488,116.348 115.363,115.633 115.363,114.641C115.363,113.055 113.141,113.41 109.887,112.578C106.707,111.781 105.238,110.273 105.238,107.574C105.238,103.961 107.98,101.418 111.91,101.418L113.063,101.418C114.926,101.418 116.395,101.855 117.629,102.77" style="fill:rgb(0,104,63);"/>
                <path d="M140.16,115.422L136.703,113.715C136.621,113.676 136.586,113.676 136.504,113.676C136.305,113.676 136.145,113.953 135.906,114.43C135.23,115.703 134.516,116.34 133.363,116.34C131.695,116.34 130.504,115.066 130.504,113.477L130.504,108.547C130.504,106.957 131.695,105.688 133.363,105.688C134.516,105.688 135.273,106.324 135.949,107.594C136.188,108.031 136.266,108.27 136.504,108.27C136.543,108.27 136.621,108.27 136.703,108.23L140.16,106.52C140.32,106.441 140.398,106.324 140.398,106.203C140.398,105.727 139.445,103.977 137.895,102.824C136.664,101.91 135.191,101.512 133.363,101.512C128.871,101.512 125.934,104.336 125.934,108.547L125.934,113.477C125.934,117.691 128.871,120.512 133.363,120.512C135.59,120.512 137.301,119.875 138.453,118.684C139.805,117.254 140.398,116.18 140.398,115.742C140.398,115.621 140.32,115.504 140.16,115.422" style="fill:rgb(0,104,63);"/>
                <path d="M155.953,119.719L155.953,108.508C155.953,104.297 153.012,101.512 148.523,101.512C146.375,101.512 144.668,102.07 143.477,103.223C142.121,104.535 141.566,105.805 141.566,106.125C141.566,106.203 141.645,106.324 141.805,106.402L145.063,108.109C145.145,108.152 145.223,108.191 145.305,108.191C145.621,108.191 145.781,107.594 146.336,106.879C146.934,106.125 147.805,105.688 148.523,105.688C150.152,105.688 151.227,106.719 151.383,108.352L151.426,108.828L151.426,108.906C151.426,109.145 151.266,109.266 151.027,109.266L147.211,109.266C143.91,109.266 141.605,111.449 141.605,114.59L141.605,114.789C141.605,117.848 143.91,120.113 147.211,120.113L148.723,120.113C150.152,120.113 151.066,119.359 151.504,119.359C151.859,119.359 151.582,120.113 152.18,120.113L155.559,120.113C155.836,120.113 155.953,119.996 155.953,119.719ZM151.426,113.078C151.383,113.52 151.383,113.715 151.383,113.715C150.867,115.188 149.953,115.941 148.723,115.941L147.211,115.941C146.574,115.941 146.137,115.465 146.137,114.789L146.137,114.191C146.137,113.598 146.613,113.078 147.211,113.078L151.426,113.078" style="fill:rgb(0,104,63);"/>
                <path d="M168.578,106.48L168.578,102.625C168.578,102.227 167.742,101.91 166.352,101.91C165.316,101.91 164.363,102.309 163.332,103.102L163.094,103.223C162.855,103.184 162.734,103.063 162.734,102.824L162.734,102.27C162.734,101.988 162.613,101.91 162.34,101.91L158.961,101.91C158.68,101.91 158.563,102.031 158.563,102.309L158.563,119.719C158.563,119.996 158.68,120.113 158.961,120.113L162.695,120.113C162.973,120.113 163.094,119.996 163.094,119.719L163.094,108.906C163.094,107.355 164.285,106.125 165.836,106.125C166.949,106.125 167.781,106.918 168.301,106.918C168.457,106.918 168.578,106.762 168.578,106.48" style="fill:rgb(0,104,63);"/>
                <path d="M184.254,119.719L184.254,95.473C184.254,95.195 184.094,95.074 183.855,95.074L180.078,95.074C179.801,95.074 179.68,95.195 179.68,95.473L179.68,102.27C179.68,102.547 179.563,102.707 179.402,102.707C178.965,102.707 177.934,101.91 176.223,101.91C172.406,101.91 169.426,104.891 169.426,108.906L169.426,113.078C169.426,117.254 172.445,120.113 176.582,120.113C178.371,120.113 179.324,119.32 179.801,119.32C180.199,119.32 179.879,120.113 180.477,120.113L183.855,120.113C184.133,120.113 184.254,119.996 184.254,119.719ZM179.68,113.078C179.68,114.711 178.488,115.941 176.859,115.941C175.191,115.941 173.996,114.711 173.996,113.078L173.996,108.906C173.996,107.316 175.191,106.086 176.859,106.086C178.488,106.086 179.68,107.316 179.68,108.906L179.68,113.078" style="fill:rgb(0,104,63);"/>
                <clipPath id="_clip1">
                    <path d="M17.918,82.906C17.809,83.289 17.605,83.602 17.465,83.785C16.879,81.602 15.84,80.465 15.336,80.016C15.766,80.004 16.508,80.137 17.328,80.965C17.914,81.555 18.109,82.207 17.918,82.906ZM15.027,80.234C14.996,80.441 14.953,80.797 14.957,81.238L14.957,81.43C14.953,82.164 14.941,84.117 15.652,84.824C15.828,85 16.031,85.086 16.277,85.082C16.281,85.082 16.285,85.082 16.289,85.086L16.293,85.086C16.324,85.09 16.984,85.176 17.16,84.156C17.074,83.824 16.387,81.328 15.027,80.234ZM13.98,80.207C13.621,80.098 12.227,79.816 10.145,81.176C9.094,81.863 8.563,82.641 8.613,83.422C8.656,84.129 9.195,84.813 10.059,85.246C10.395,85.035 12.559,83.563 13.98,80.207ZM13.551,85.656L13.555,85.648L13.551,85.652L13.551,85.656ZM14.234,80.617C13.543,82.355 12.574,83.625 11.879,84.391C11.207,85.125 10.652,85.551 10.461,85.691C10.551,85.992 10.953,87.133 11.852,87.133C12.902,87.133 13.543,85.672 13.551,85.66L13.551,85.652C13.602,85.539 14.793,82.91 14.234,80.617ZM17.941,76.352C17.863,75.996 17.668,75.758 17.527,75.625C17.461,75.871 17.316,76.309 17.059,76.84C16.727,77.523 16.125,78.504 15.133,79.336C15.602,79.43 16.602,79.426 17.484,78.066C17.898,77.43 18.051,76.855 17.941,76.352ZM16.418,74.012C16.172,73.992 15.961,74.066 15.777,74.23C15.004,74.914 14.906,76.887 14.867,77.629L14.859,77.766C14.832,78.219 14.871,78.766 14.898,79.051C16.605,77.641 17.188,75.566 17.258,75.297C17.16,74.121 16.445,74.016 16.418,74.012ZM14.266,77.746C14.215,75.004 13.324,73.098 11.934,72.766C11.637,72.695 11.363,72.734 11.125,72.883C10.652,73.176 10.426,73.82 10.355,74.059C11.918,75.023 12.902,76.301 13.453,77.203C13.82,77.801 14.047,78.316 14.172,78.629C14.277,78.164 14.266,77.754 14.266,77.746ZM9.98,74.465C9.043,74.852 8.516,75.508 8.504,76.313C8.496,76.801 8.68,77.301 9.031,77.758C9.402,78.238 9.93,78.637 10.563,78.906C12.535,79.746 13.652,79.23 13.926,79.066C12.695,76.039 10.336,74.656 9.98,74.465Z"/>
                </clipPath>
                <g clip-path="url(#_clip1)">
                    <path d="M17.918,82.906C17.809,83.289 17.605,83.602 17.465,83.785C16.879,81.602 15.84,80.465 15.336,80.016C15.766,80.004 16.508,80.137 17.328,80.965C17.914,81.555 18.109,82.207 17.918,82.906ZM15.027,80.234C14.996,80.441 14.953,80.797 14.957,81.238L14.957,81.43C14.953,82.164 14.941,84.117 15.652,84.824C15.828,85 16.031,85.086 16.277,85.082C16.281,85.082 16.285,85.082 16.289,85.086L16.293,85.086C16.324,85.09 16.984,85.176 17.16,84.156C17.074,83.824 16.387,81.328 15.027,80.234ZM13.98,80.207C13.621,80.098 12.227,79.816 10.145,81.176C9.094,81.863 8.563,82.641 8.613,83.422C8.656,84.129 9.195,84.813 10.059,85.246C10.395,85.035 12.559,83.563 13.98,80.207ZM13.551,85.656L13.555,85.648L13.551,85.652L13.551,85.656ZM14.234,80.617C13.543,82.355 12.574,83.625 11.879,84.391C11.207,85.125 10.652,85.551 10.461,85.691C10.551,85.992 10.953,87.133 11.852,87.133C12.902,87.133 13.543,85.672 13.551,85.66L13.551,85.652C13.602,85.539 14.793,82.91 14.234,80.617ZM17.941,76.352C17.863,75.996 17.668,75.758 17.527,75.625C17.461,75.871 17.316,76.309 17.059,76.84C16.727,77.523 16.125,78.504 15.133,79.336C15.602,79.43 16.602,79.426 17.484,78.066C17.898,77.43 18.051,76.855 17.941,76.352ZM16.418,74.012C16.172,73.992 15.961,74.066 15.777,74.23C15.004,74.914 14.906,76.887 14.867,77.629L14.859,77.766C14.832,78.219 14.871,78.766 14.898,79.051C16.605,77.641 17.188,75.566 17.258,75.297C17.16,74.121 16.445,74.016 16.418,74.012ZM14.266,77.746C14.215,75.004 13.324,73.098 11.934,72.766C11.637,72.695 11.363,72.734 11.125,72.883C10.652,73.176 10.426,73.82 10.355,74.059C11.918,75.023 12.902,76.301 13.453,77.203C13.82,77.801 14.047,78.316 14.172,78.629C14.277,78.164 14.266,77.754 14.266,77.746ZM9.98,74.465C9.043,74.852 8.516,75.508 8.504,76.313C8.496,76.801 8.68,77.301 9.031,77.758C9.402,78.238 9.93,78.637 10.563,78.906C12.535,79.746 13.652,79.23 13.926,79.066C12.695,76.039 10.336,74.656 9.98,74.465ZM20.836,67.426L7.891,67.426L7.891,91.863L20.836,91.863L20.836,67.426ZM1.418,55.203L42.902,55.203C42.902,32.297 24.328,13.723 1.418,13.723C-21.492,13.723 -40.066,32.297 -40.066,55.203C-40.066,78.113 -21.492,96.688 1.418,96.688C24.328,96.688 42.902,78.113 42.902,55.203" style="fill:rgb(0,18,0);fill-rule:nonzero;"/>
                </g>
            </g>
        </g>
    </g>
</svg>
