<?xml version="1.0" encoding="UTF-8"?>
<svg xmlns="http://www.w3.org/2000/svg" xmlns:xlink="http://www.w3.org/1999/xlink" width="721.41pt" height="118.76pt" viewBox="0 0 721.41 118.76" version="1.1">
<defs>
<clipPath id="clip1">
  <path d="M 141 13 L 721.410156 13 L 721.410156 102 L 141 102 Z M 141 13 "/>
</clipPath>
<clipPath id="clip2">
  <path d="M 0 0 L 119 0 L 119 118.761719 L 0 118.761719 Z M 0 0 "/>
</clipPath>
</defs>
<g id="surface1">
<g clip-path="url(#clip1)" clip-rule="nonzero">
<path style=" stroke:none;fill-rule:nonzero;fill:rgb(0%,33.299255%,63.499451%);fill-opacity:1;" d="M 334.085938 42.839844 L 345.113281 42.839844 C 358.664063 42.839844 369.101563 51.871094 369.101563 67.203125 C 369.101563 84.171875 360.175781 91.964844 343.972656 91.964844 L 334.085938 91.964844 Z M 324.683594 100.253906 L 344.078125 100.253906 C 365.707031 100.253906 379.085938 88.859375 379.085938 66.839844 C 379.085938 46.601563 363.546875 34.5625 344.078125 34.5625 L 324.683594 34.5625 Z M 279.171875 42.839844 L 288.203125 42.839844 C 296.863281 42.839844 301.386719 46.601563 301.386719 52.53125 C 301.386719 58.847656 296.117188 62.792969 287.160156 62.792969 L 279.171875 62.792969 Z M 269.757813 100.253906 L 279.171875 100.253906 L 279.171875 71.085938 L 284.828125 71.085938 C 289.808594 71.085938 292.914063 71.085938 295.839844 77.480469 L 305.898438 100.253906 L 316.621094 100.253906 L 304.21875 74.074219 C 302.144531 70.042969 300.726563 68.625 297.8125 67.503906 L 297.8125 67.3125 C 305.4375 65.992188 311.363281 60.355469 311.363281 52.335938 C 311.363281 36.621094 298.839844 34.5625 285.847656 34.5625 L 269.757813 34.5625 Z M 242.800781 75.976563 L 216.648438 75.976563 L 229.722656 43.394531 Z M 197.0625 100.253906 L 206.9375 100.253906 L 213.636719 83.691406 L 245.816406 83.691406 L 252.496094 100.253906 L 262.757813 100.253906 L 235.003906 34.5625 L 225.101563 34.5625 Z M 190.972656 36.246094 C 186.277344 34.1875 181.292969 33.433594 176.199219 33.433594 C 156.15625 33.433594 141.472656 46.890625 141.472656 67.125 C 141.472656 88.015625 155.3125 101.371094 176.113281 101.371094 C 179.96875 101.371094 186.09375 101.101563 191.070313 99.03125 L 190.507813 89.902344 C 187.21875 91.871094 180.910156 93.101563 176.199219 93.101563 C 162.5625 93.101563 151.457031 82.835938 151.457031 67.402344 C 151.457031 52.632813 161.527344 41.707031 176.683594 41.707031 C 181.472656 41.707031 186.09375 42.933594 190.230469 45.394531 Z M 387.042969 100.582031 L 409.878906 100.582031 L 409.878906 65.699219 L 442.953125 65.699219 L 442.953125 49.304688 L 409.878906 49.304688 L 409.878906 30.195313 L 465.609375 30.195313 L 465.609375 13.925781 L 387.042969 13.925781 Z M 672.921875 98.960938 C 678.761719 100.851563 686.382813 101.789063 692.5 101.789063 C 707.089844 101.789063 721.414063 97.179688 721.414063 80.136719 C 721.414063 56.417969 690.34375 63.570313 690.34375 52.9375 C 690.34375 47.191406 697.691406 46.8125 702.101563 46.8125 C 707.089844 46.8125 712.183594 47.734375 716.699219 49.828125 L 717.839844 36.269531 C 713.410156 34.761719 707.203125 33.820313 700.886719 33.820313 C 687.703125 33.820313 672.261719 38.148438 672.261719 53.972656 C 672.261719 77.878906 703.328125 70.152344 703.328125 82.410156 C 703.328125 87.675781 698.085938 88.800781 692.5 88.800781 C 685.265625 88.800781 678.9375 86.914063 674.429688 84.464844 Z M 608.464844 100.660156 L 624.558594 100.660156 L 624.003906 55.757813 L 624.1875 55.757813 L 647.164063 100.660156 L 668.914063 100.660156 L 668.914063 34.945313 L 652.910156 34.945313 L 653.179688 79.582031 L 652.988281 79.582031 L 630.785156 34.945313 L 608.464844 34.945313 Z M 569.816406 48.523438 L 569.625 48.523438 L 561.15625 74.199219 L 577.628906 74.199219 Z M 559.089844 34.945313 L 580.535156 34.945313 L 605.855469 100.660156 L 586.660156 100.660156 L 581.769531 86.640625 L 557.101563 86.640625 L 551.921875 100.660156 L 534.121094 100.660156 Z M 471.027344 100.660156 L 487.121094 100.660156 L 486.550781 55.757813 L 486.746094 55.757813 L 509.703125 100.660156 L 531.457031 100.660156 L 531.457031 34.945313 L 515.464844 34.945313 L 515.738281 79.582031 L 515.550781 79.582031 L 493.328125 34.945313 L 471.027344 34.945313 Z M 448.238281 100.660156 L 465.746094 100.660156 L 465.746094 34.945313 L 448.238281 34.945313 Z M 448.238281 100.660156 "/>
</g>
<g clip-path="url(#clip2)" clip-rule="nonzero">
<path style=" stroke:none;fill-rule:evenodd;fill:rgb(0%,33.299255%,63.499451%);fill-opacity:1;" d="M 48.425781 32.621094 L 48.394531 0.0507813 L 70.378906 0.0507813 L 70.378906 32.558594 L 102.941406 0 L 118.515625 15.578125 L 85.808594 48.289063 L 118.398438 48.289063 L 118.398438 70.238281 L 85.894531 70.238281 L 118.574219 102.914063 L 102.878906 118.613281 L 70.261719 85.992188 L 70.261719 118.761719 L 48.367188 118.761719 L 48.367188 85.992188 L 15.6875 118.664063 L 0.226563 103.207031 L 33.257813 70.175781 L 0 70.175781 L 0 48.289063 L 32.875 48.289063 L 0.136719 15.550781 L 15.65625 0.0273438 L 48.367188 32.734375 "/>
</g>
</g>
</svg>
