<?xml version="1.0" encoding="utf-8"?>
<svg id="fibabanka-logo" xmlns="http://www.w3.org/2000/svg" viewBox="0 0 561.4 110.1">
<style type="text/css">
	.st0{fill:url(#mavi-yesil-2_1_);}
	.st1{fill:url(#mavi-yesil-1_1_);}
	.st2{fill:url(#yesil-beyaz-2_1_);}
	.st3{fill:url(#yesil-beyaz-1_1_);}
	.st4{fill:#0055B8;}
</style>
<linearGradient id="mavi-yesil-2_1_" gradientUnits="userSpaceOnUse" x1="23.7798" y1="49.4962" x2="34.9798" y2="-10.4038" gradientTransform="matrix(1 0 0 -1 0 112)">
	<stop  offset="0" style="stop-color:#0055B8"/>
	<stop  offset="0.8" style="stop-color:#80BC00"/>
</linearGradient>
<path id="mavi-yesil-2" class="st0" d="M55,109.9v-0.3l-0.1-0.2v-0.2l-0.1-0.2v-0.2l-0.1-0.2v-0.5l-0.1-0.2v-0.2l-0.1-0.2v-0.2
	l-0.1-0.2v-0.3l-0.1-0.2v-0.2l-0.1-0.2V106l-0.1-0.2v-0.2l-0.1-0.3v-0.2l-0.1-0.2v-0.2l-0.1-0.2v-0.2l-0.1-0.2v-0.3l-0.1-0.2v-0.2
	l-0.1-0.2v-0.4l-0.1-0.2v-0.3l-0.1-0.2v-0.2l-0.1-0.2v-0.2l-0.1-0.2V101l-0.1-0.2v-0.2l-0.1-0.2v-0.2l-0.1-0.2v-0.2l-0.1-0.3v-0.2
	l-0.1-0.2V99l-0.1-0.2v-0.2l-0.1-0.2V98l-0.1-0.2v-0.2l-0.1-0.2V97l-0.1-0.2v-0.3L52,96.3v-0.2l-0.1-0.2v-0.2l-0.1-0.2v-0.2L51.7,95
	v-0.2l-0.1-0.2v-0.2l-0.1-0.2V94l-0.1-0.3v-0.2l-0.1-0.2v-0.2l-0.1-0.2v-0.2l-0.1-0.2v-0.3L51,92v-0.4l-0.1-0.2v-0.2l-0.1-0.3v-0.2
	l-0.1-0.2v-0.2l-0.1-0.2v-0.2l-0.1-0.2v-0.3l-0.1-0.2V89l-0.1-0.2v-0.2l-0.1-0.2v-0.2l-0.1-0.3v-0.2L50,87.5v-0.2l-0.1-0.2v-0.2
	l-0.1-0.2v-0.5L49.7,86v-0.2l-0.1-0.2v-0.2l-0.1-0.2v-0.3l-0.1-0.2v-0.2l-0.1-0.2v-0.2l-0.1-0.2v-0.3l-0.1-0.1v-0.3L49,83v-0.2
	l-0.1-0.2v-0.2l-0.1-0.3V82l-0.1-0.3v-0.2l-0.1-0.2v-0.4l-0.1-0.3v-0.2l-0.1-0.2V80l-0.1-0.2v-0.2l-0.1-0.3v-0.2L48,79v-0.3
	l-0.1-0.2v-0.2l-0.1-0.2v-0.3l-0.1-0.2v-0.2l-0.1-0.2V77l-0.1-0.2v-0.2l-0.1-0.3v-0.2l-0.1-0.2v-0.2l-0.1-0.2V75l-0.1-0.3v-0.2
	L47,74.3v-0.2l0-0.1v-0.2l-0.1-0.3v-0.2l-0.1-0.2V73l-0.1-0.3v-0.2l-0.1-0.2V72l-0.1-0.2v-0.3h-0.1v-0.3L46.3,71v-0.2l-0.1-0.3v-0.2
	l-0.1-0.2v-0.4L46,69.5v-0.2l-0.1-0.1v-0.4l-0.1-0.2v-0.2l-0.1-0.2V68l-0.1-0.3v-0.2l-0.1-0.2v-0.1l-0.1-0.3v-0.2l-0.1-0.2v-0.3
	L45.2,66v-0.2l-0.1-0.2v-0.2L45,65.2L44.5,65H44l-0.5-0.2H43l-0.5-0.2L42,64.5l-0.5-0.1L41,64.3l-0.5-0.1L40,64h-0.5L39,63.8
	l-0.5-0.1L38,63.6l-0.5-0.1L37,63.4l-0.5-0.1L36,63.1h-0.5L35,62.9l-0.6-0.1l-0.5-0.1l-0.5-0.1l-0.5-0.1l-0.5-0.1l-0.5-0.2h-0.5
	L31,62l-0.5-0.1L30,61.8l-0.5-0.1L29,61.6l-0.5-0.2H28l-0.5-0.2H27L26.5,61L26,60.9l-0.5-0.1L25,60.7l-0.5-0.2h-0.6l-0.5-0.2
	l-0.5-0.1l-0.5-0.1L22,60l-0.6-0.1h-0.2l-0.3-0.1l-0.5-0.2h-0.5l-0.5-0.2l-0.5-0.1l-0.5-0.1l-0.5-0.1L17.4,59l-0.5-0.1l-0.5-0.2
	h-0.5l-0.5-0.2l-0.5-0.1l-0.6-0.1l-0.4-0.1l-0.6-0.1L12.8,58l-0.5-0.2h-0.5l-0.5-0.2l-0.5-0.1l-0.5-0.1l-0.5-0.1l-0.5-0.1L8.8,57
	H8.3l-0.5-0.2H7.3l-0.5-0.2l-0.5-0.1l-0.5-0.1l-0.5-0.1l-0.5-0.1L4.3,56H3.7v-0.1H3l-0.5-0.2L2,55.6l-0.5-0.1L1,55.4l-0.5-0.2H0
	l0.2,0.1l0.2,0.2l0.2,0.2l0.2,0.2L1,56.1l0.1,0.2l0.2,0.1l0.2,0.2l0.2,0.2L1.9,57l0.2,0.2l0.2,0.2l0.1,0.1l0.2,0.2l0.2,0.2L3,58.1
	l0.2,0.2l0.2,0.2l0.1,0.1l0.2,0.2L3.9,59l0.2,0.2l0.2,0.2l0.2,0.2l0.2,0.2l0.1,0.1L5,60.1l0.2,0.2l0.2,0.2l0.2,0.2l0.2,0.2L6,61
	l0.1,0.2l0.2,0.2l0.2,0.2l0.2,0.2L6.9,62l0.2,0.1l0.1,0.2l0.2,0.2l0.2,0.2l0.2,0.2L8,63.1l0.2,0.2l0.2,0.1l0.1,0.2l0.2,0.2L8.9,64
	l0.2,0.2l0.2,0.2l0.2,0.1l0.1,0.2l0.2,0.2l0.2,0.2l0.2,0.2l0.2,0.2l0.2,0.2l0.2,0.1l0.1,0.2l0.2,0.2l0.2,0.2l0.2,0.2l0.2,0.2
	l0.2,0.1l0.1,0.2l0.2,0.2l0.2,0.2l0.2,0.2l0.2,0.2L13,68l0.2,0.2l0.1,0.2l0.2,0.2l0.2,0.2l0.2,0.2l0.2,0.2l0.2,0.1l0.1,0.2l0.2,0.2
	l0.2,0.2l0.2,0.2l0.2,0.2l0.2,0.2l0.1,0.1l0.2,0.2l0.2,0.2H16l0.1,0.2l0.2,0.2l0.2,0.1l0.1,0.2l0.2,0.2l0.2,0.2l0.2,0.2l0.2,0.2
	l0.2,0.2l0.2,0.1l0.1,0.2l0.2,0.2l0.2,0.2l0.2,0.2l0.2,0.2l0.2,0.2l0.2,0.1l0.1,0.2l0.2,0.2l0.2,0.2l0.2,0.2l0.2,0.2l0.2,0.1
	l0.1,0.2l0.2,0.2l0.2,0.2l0.2,0.2l0.2,0.2l0.2,0.1l0.1,0.2l0.2,0.2l0.2,0.2l0.2,0.2l0.2,0.2l0.2,0.2l0.2,0.1l0.1,0.2l0.2,0.2
	l0.2,0.2l0.2,0.2l0.2,0.2l0.2,0.1l0.2,0.2l0.1,0.2l0.2,0.2l0.2,0.2l0.2,0.2l0.2,0.1L25,80l0.1,0.2l0.2,0.2l0.2,0.2l0.2,0.2l0.2,0.2
	l0.2,0.1l0.1,0.2l0.2,0.2l0.2,0.2l0.2,0.2l0.2,0.2l0.2,0.2l0.2,0.1l0.1,0.2l0.2,0.2l0.2,0.2l0.2,0.2l0.2,0.1l0.2,0.2l0.1,0.2
	l0.2,0.2l0.2,0.2l0.2,0.2l0.2,0.2l0.2,0.1l0.2,0.2l0.1,0.2l0.2,0.2l0.2,0.2l0.2,0.2l0.2,0.2l0.2,0.1l0.2,0.2l0.1,0.2l0.2,0.2
	l0.2,0.2l0.2,0.1L32,87l0.2,0.2l0.1,0.2l0.2,0.2l0.2,0.2l0.2,0.2l0.2,0.1l0.2,0.2l0.2,0.2l0.1,0.2l0.2,0.2l0.2,0.2l0.2,0.2l0.2,0.1
	l0.1,0.2l0.2,0.2l0.2,0.2l0.2,0.2l0.2,0.1l0.2,0.2l0.2,0.2l0.1,0.2l0.2,0.2l0.2,0.2l0.2,0.2l0.2,0.1l0.2,0.2L37,92l0.1,0.2l0.2,0.2
	l0.2,0.2l0.2,0.2l0.2,0.1l0.2,0.2l0.1,0.2l0.2,0.2l0.2,0.2l0.2,0.2L39,94l0.2,0.2l0.1,0.2l0.2,0.2l0.2,0.2l0.2,0.2l0.2,0.2l0.2,0.1
	l0.2,0.2l0.1,0.2l0.2,0.2l0.2,0.2l0.2,0.2l0.2,0.1l0.2,0.2l0.1,0.2l0.2,0.2l0.2,0.2l0.2,0.2l0.2,0.1l0.2,0.2l0.2,0.2l0.1,0.2
	l0.2,0.2l0.2,0.2l0.2,0.2l0.2,0.1L44,99l0.1,0.2l0.2,0.2l0.2,0.2l0.2,0.2l0.2,0.1l0.2,0.2l0.2,0.2l0.1,0.2l0.2,0.2l0.2,0.2L46,101
	l0.2,0.2l0.2,0.2l0.1,0.2l0.2,0.2l0.2,0.2l0.2,0.2l0.2,0.1l0.2,0.2l0.2,0.2l0.1,0.2l0.2,0.2l0.2,0.2l0.2,0.1l0.2,0.2l0.2,0.2L49,104
	l0.1,0.2l0.2,0.2l0.2,0.1l0.2,0.2l0.2,0.2l0.2,0.2l0.1,0.2l0.2,0.2l0.2,0.2l0.2,0.1L51,106l0.2,0.2l0.1,0.2l0.2,0.2l0.2,0.2l0.2,0.1
	l0.2,0.2l0.2,0.2l0.2,0.2l0.1,0.2l0.2,0.2L53,108l0.2,0.2l0.2,0.2l0.2,0.2l0.1,0.2l0.2,0.2l0.2,0.2l0.2,0.1l0.2,0.2l0.2,0.2l0.1,0.2
	l0.2,0.2L55,109.9L55,109.9z"/>
<linearGradient id="mavi-yesil-1_1_" gradientUnits="userSpaceOnUse" x1="-1.7002" y1="85.0982" x2="72.2998" y2="76.9982" gradientTransform="matrix(1 0 0 -1 0 112)">
	<stop  offset="0" style="stop-color:#0055B8"/>
	<stop  offset="0.1" style="stop-color:#0D60A5"/>
	<stop  offset="0.3" style="stop-color:#2F7B74"/>
	<stop  offset="0.7" style="stop-color:#66A726"/>
	<stop  offset="0.8" style="stop-color:#80BC00"/>
</linearGradient>
<path id="mavi-yesil-1" class="st1" d="M55,0l-0.2,0.2l-0.1,0.1l-0.3,0.3l-0.2,0.3L54,1v0.1h-0.1l-0.3,0.3l-0.1,0.1l-0.1,0.2
	l-0.3,0.2l-0.3,0.3l-0.2,0.3l-0.3,0.2v0.1L52,3l-0.2,0.2l-0.1,0.2l-0.2,0.1l-0.2,0.3l-0.2,0.1L51,4l-0.1,0.2l-0.2,0.1l-0.2,0.3
	l-0.2,0.1v0.1L50,5l-0.2,0.1l-0.2,0.3l-0.2,0.1v0.1l-0.2,0.2l-0.1,0.1L48.9,6l-0.1,0.2h-0.1l-0.2,0.2l-0.1,0.2h-0.1L48,7l-0.3,0.2
	l-0.1,0.2h-0.1l-0.3,0.3L46.9,8v0.1l-0.2,0.2l-0.3,0.2l-0.1,0.2l-0.2,0.1L45.9,9l-0.3,0.3l-0.2,0.3l-0.3,0.3L44.9,10v0.1l-0.3,0.3
	l-0.3,0.3h-0.1L44,10.9l-0.2,0.3l-0.3,0.2l-0.3,0.3L43,12l-0.3,0.3l-0.3,0.2l-0.2,0.3L41.9,13l-0.1,0.2l-0.1,0.1l-0.3,0.3l-0.3,0.2
	l-0.2,0.3l-0.3,0.3l-0.3,0.2l-0.2,0.3l-0.3,0.3l-0.3,0.2l-0.2,0.3L39,16l-0.3,0.2v0.2h-0.2l-0.3,0.4h-0.1L37.9,17l-0.2,0.3l-0.3,0.2
	l-0.2,0.3l-0.3,0.3l-0.1,0.1l-0.2,0.1l-0.1,0.2l-0.1,0.1l-0.2,0.2h-0.1l-0.3,0.3l-0.2,0.3l-0.3,0.3l-0.2,0.2l-0.3,0.3l-0.2,0.2
	l-0.4,0.3L34,21l-0.2,0.2l-0.3,0.3l-0.3,0.3L32.9,22l-0.2,0.3l-0.3,0.3h-0.1l-0.2,0.2l-0.2,0.3l-0.3,0.3l-0.3,0.2l-0.2,0.3l-0.3,0.3
	l-0.2,0.2h-0.1l-0.2,0.3L30,25l-0.2,0.1v0.1h-0.1l-0.2,0.3l-0.2,0.2L29,26l-0.3,0.3l-0.3,0.2l-0.2,0.3L28,26.9v0.2l-0.3,0.1v0.1
	l-0.3,0.3l-0.3,0.3L27,28l-0.2,0.1l-0.2,0.3l-0.3,0.3l-0.1,0.1l-0.1,0.1l-0.3,0.3l-0.3,0.3l-0.2,0.2L25,30l-0.3,0.2v0.2l-0.2,0.1
	l-0.3,0.3L23.9,31l-0.2,0.3l-0.3,0.3l-0.3,0.2l-0.2,0.3l-0.3,0.3l-0.2,0.2l-0.3,0.3l-0.3,0.2l-0.2,0.3l-0.3,0.3L21,33.9l-0.2,0.3
	l-0.3,0.3l-0.3,0.2L20,35l-0.3,0.3l-0.3,0.2l-0.2,0.3h-0.1l-0.2,0.3l-0.2,0.2l-0.3,0.3l-0.3,0.3l-0.2,0.2l-0.3,0.3l-0.3,0.3
	l-0.2,0.2l-0.3,0.3l-0.3,0.2l-0.2,0.3L16,39l-0.3,0.2l-0.2,0.3l-0.3,0.3L15,40l-0.3,0.3l-0.3,0.3l-0.1,0.1l-0.1,0.1l-0.3,0.3
	l-0.3,0.3l-0.2,0.2l-0.3,0.3L13,42l-0.2,0.1l-0.2,0.3l-0.3,0.3L12,42.9l-0.2,0.2v0.1l-0.3,0.3l-0.2,0.2L11,44l-0.3,0.3h-0.1
	l-0.1,0.2l-0.3,0.3l-0.3,0.3l-0.2,0.2l-0.2,0.2l-0.4,0.4l-0.2,0.2l-0.3,0.3l-0.1,0.1l-0.2,0.1l-0.2,0.3l-0.3,0.3l-0.2,0.2l-0.3,0.3
	L7,48l-0.2,0.2l-0.3,0.3l-0.3,0.3L6,49l-0.3,0.3l-0.3,0.3l-0.2,0.2l-0.3,0.3l-0.3,0.3l-0.2,0.2l-0.3,0.3l-0.2,0.2l-0.2,0.2l-0.1,0.1
	l-0.3,0.3l-0.2,0.2l-0.3,0.3l-0.3,0.3l-0.2,0.2L2,53l-0.3,0.3l-0.2,0.2l-0.3,0.3l-0.3,0.3l-0.2,0.2l-0.3,0.3l-0.2,0.3l-0.3,0.2h0.2
	l0.2,0.1h0.2l0.3,0.1h0.4l0.2,0.1h0.2l0.2,0.1h0.3l0.1,0.1h0.3v0.1H3l0.2,0.1h0.2l0.3,0.1h0.2L4.1,56h0.2l0.2,0.1h0.2L5,56.2h0.2
	l0.2,0.1h0.2l0.2,0.1H6l0.2,0.1h0.5l0.2,0.1H7l0.2,0.1h0.2l0.3,0.1H8l0.2,0.1h0.2L8.6,57h0.2L9,57.1h0.3l0.2,0.1h0.2l0.2,0.1h0.2
	l0.2,0.1h0.2l0.3,0.1H11l0.2,0.1h0.2l0.2,0.1h0.2l0.3,0.1h0.4l0.2,0.1h0.2l0.2,0.1h0.2l0.3,0.1h0.2l0.2,0.1h0.2l0.2,0.1h0.2l0.3,0.1
	h0.2l0.2,0.1h0.2l0.2,0.1h0.2l0.2,0.1h0.3l0.2,0.1h0.2l0.2,0.1h0.2l0.2,0.1h0.5l0.2,0.1h0.2l0.2,0.1h0.2l0.2,0.1h0.3l0.2,0.1h0.2
	l0.2,0.1H20l0.2,0.1h0.3l0.2,0.1h0.2l0.2,0.1h0.2l0.2,0.1h0.2L22,60h0.2l0.2,0.1h0.2l0.2,0.1H23l0.3,0.1h0.4l0.2,0.1h0.2l0.2,0.1
	h0.2l0.3,0.1H25l0.2,0.1h0.2l0.2,0.1h0.2l0.3,0.1h0.2l0.2,0.1h0.2l0.2,0.1h0.2l0.2,0.1h0.3l0.2,0.1H28l0.2,0.1h0.2l0.2,0.1h0.5
	l0.2,0.1h0.2l0.2,0.1h0.2l0.2,0.1h0.3l0.2,0.1h0.2L31,62h0.2l0.2,0.1h0.2l0.3,0.1h0.2l0.2,0.1h0.2l0.2,0.1h0.2l0.3,0.1h0.2l0.2,0.1
	h0.2l0.2,0.1h0.2l0.2,0.1h0.5l0.2,0.1h0.2l0.2,0.1h0.2l0.3,0.1h0.2l0.2,0.1h0.2l0.2,0.1H37l0.2,0.1h0.3l0.2,0.1h0.2l0.2,0.1h0.2
	l0.2,0.1h0.3l0.2,0.1h0.2l0.2,0.1h0.2l0.2,0.1h0.5l0.2,0.1h0.2l0.2,0.1h0.2l0.2,0.1h0.3l0.2,0.1H42l0.2,0.1h0.2l0.2,0.1h0.2l0.3,0.1
	h0.2l0.2,0.1h0.2l0.2,0.1h0.2l0.3,0.1h0.2l0.2,0.1H45L55,0z"/>
<linearGradient id="yesil-beyaz-2_1_" gradientUnits="userSpaceOnUse" x1="35.7684" y1="19.0841" x2="142.3683" y2="59.1841" gradientTransform="matrix(1 0 0 -1 0 112)">
	<stop  offset="0.2" style="stop-color:#80BC00"/>
	<stop  offset="0.8" style="stop-color:#FFFFFF"/>
</linearGradient>
<path id="yesil-beyaz-2" class="st2" d="M110,55.1l-0.7,0.1h-0.2l-0.8,0.2l-0.8,0.1h-0.2l-0.6,0.1h-0.2l-0.8,0.2l-0.8,0.1l-1,0.1
	h-0.2l-0.6,0.2h-0.2l-0.6,0.1H102l-0.6,0.2h-1l-0.2,0.1h-0.1l-0.7,0.1h-0.1l-0.7,0.2h-0.8L97.5,57l-0.7,0.1h-0.1L96,57.3h-0.2
	L95,57.4h0l-0.7,0.1h-0.1l-0.8,0.2h-0.1l-0.8,0.1h-0.1L91.7,58h-1v0.1h-0.1l-0.7,0.1h-0.1l-0.9,0.2l-1.6,0.2h-0.4l-0.6,0.2h-0.2
	l-0.6,0.1h-0.3L84.6,59h-0.3l-0.6,0.2h-0.2l-0.7,0.1h-0.2l-0.7,0.2H81l-0.2,0.1L80,59.7l0,0l-0.7,0.2h-0.8L78.3,60l-0.8,0.1h-0.1
	l-0.7,0.2h-0.2l-0.8,0.1l-0.8,0.1h-0.1L74,60.7h-0.1l-0.8,0.1H73l-0.7,0.1h-0.1l-1,0.2h-0.1l-0.6,0.1h-0.3l-0.6,0.1h-0.2l-0.1,0.1
	l-0.6,0.1h-0.2l-0.6,0.1h-0.3l-0.7,0.2h-0.2l-0.6,0.1h-0.2L65.1,62h-0.2l-0.7,0.2H64l-0.6,0.1h-0.2l-0.8,0.2h-0.9v0.1h-0.1l-0.8,0.1
	h-0.1l-0.8,0.2H59V63h-0.1l-0.8,0.1H58l-0.8,0.2l-0.9,0.1l-0.8,0.1h-0.3l-0.6,0.2h-0.3l-0.6,0.1h-0.2l-0.6,0.1h-0.3l-0.8,0.2h-0.1
	L51,64.2h0l-0.7,0.1H50l-0.8,0.2H49l-0.7,0.1h-0.1l-0.8,0.2h-0.1l-0.8,0.1h-0.1L45.6,65h-0.1l-0.6,0.2v0.3l1.4,6l0.8,3.3l0.7,3.2
	l0.1,0.8l0.8,3.4l0.5,2.3l0.7,3.2l0.8,3.2l0.7,3.2l0.7,3.2l0.7,3.3l0.4,1.8l0.3,1.4l0.8,3.2l0.6,3l0.2-0.1l0.2-0.2l0.2-0.2l0.2-0.2
	l0.2-0.2l0.3-0.2l0.1-0.2l0.2-0.2l0.2-0.2l0.1-0.1L57,108l0.3-0.2l0.2-0.2l0.1-0.2l0.2-0.2L58,107l0.2-0.2l0.2-0.2l0.2-0.2l0.3-0.3
	H59l0.2-0.3l0.2-0.2l0.2-0.2l0.2-0.2l0.2-0.1l0.2-0.2l0.2-0.2l0.1-0.2l0.2-0.2l0.2-0.2l0.2-0.2l0.2-0.2l0.2-0.2l0.2-0.2l0.2-0.2
	l0.2-0.2l0.2-0.2l0.2-0.2l0.2-0.1l0.2-0.2L63,102l0.3-0.2l0.1-0.2l0.2-0.2l0.2-0.2L64,101l0.2-0.2l0.2-0.2l0.2-0.2l0.2-0.2L65,100
	l0.2-0.2l0.2-0.1l0.2-0.2l0.2-0.2l0.1-0.2l0.2-0.2l0.2-0.2l0.2-0.2l0.2-0.2l0.2-0.2l0.2-0.2l0.2-0.2l0.2-0.2l0.2-0.2l0.1-0.1h0.1
	l0.2-0.2l0.2-0.2l0.2-0.2l0.2-0.3l0.1-0.1L69,96l0.2-0.2l0.2-0.2l0.2-0.2l0.2-0.1L70,95l0.2-0.2l0.2-0.1l0.2-0.3l0.2-0.1l0.2-0.2
	l0.2-0.2l0.1-0.2l0.3-0.2l0.1-0.2l0.2-0.2l0.2-0.2l0.2-0.2l0.2-0.2l0.2-0.2l0.2-0.2l0.2-0.1l0.1-0.2h0.1l0.2-0.2l0.2-0.2l0.2-0.2
	l0.2-0.2l0.1-0.2l0.2-0.2l0.2-0.2l0.2-0.2L75,90l0.2-0.1l0.2-0.3h0.1l0.1-0.2l0.2-0.2l0.3-0.2v-0.1l0.3-0.2l0.2-0.2l0.2-0.2l0.1-0.2
	l0.2-0.2l0.2-0.2l0.2-0.2l0.2-0.2L78,87h0.1l0.2-0.3h0.1l0.2-0.2v-0.1l0.3-0.2l0.2-0.2l0.2-0.2l0.2-0.2l0.2-0.2l0.1-0.2L80,85
	l0.2-0.2l0.2-0.2l0.3-0.3h0.1L81,84l0.2-0.1l0.2-0.2l0.2-0.2l0.2-0.2l0.2-0.2l0.2-0.2l0.2-0.2l0.2-0.2l0.1-0.2l0.2-0.2l0.2-0.2
	l0.2-0.2l0.2-0.2l0.2-0.2l0.2-0.1V81l0.2-0.1l0.2-0.2l0.2-0.2l0.2-0.2l0.2-0.2l0.2-0.2l0.1-0.2l0.2-0.2l0.2-0.2l0.2-0.1v-0.1
	l0.2-0.2l0.2-0.2l0.2-0.1l0.2-0.2l0.1-0.2L87,78l0.2-0.2l0.2-0.2l0.2-0.2l0.2-0.2l0.1-0.2l0.2-0.2l0.2-0.2l0.2-0.2l0.2-0.2l0.2-0.2
	l0.2-0.1l0.2-0.2l0.2-0.2l0.1-0.2h0.1l0.2-0.2l0.2-0.2l0.2-0.2l0.1-0.2l0.3-0.2l0.1-0.2l0.2-0.2l0.2-0.2l0.2-0.2l0.2-0.2l0.2-0.2
	L92,73l0.2-0.2l0.2-0.2l0.3-0.3v-0.1L93,72l0.2-0.3h0.2l0.2-0.3l0.1-0.2l0.2-0.2l0.2-0.2l0.2-0.2l0.2-0.2l0.2-0.1l0.2-0.2l0.5-0.6
	l0.2-0.1v-0.1l0.3-0.2l0.2-0.2l0.1-0.2l0.2-0.2l0.2-0.2l0.2-0.2l0.2-0.2l0.2-0.2l0.2-0.1l0.2-0.2v-0.1l0.2-0.1L98,67l0.2-0.2
	l0.2-0.2l0.2-0.2l0.2-0.2l0.1-0.2l0.3-0.2l0.1-0.2l0.2-0.2l0.2-0.2l0.2-0.1l0.2-0.2l0.2-0.2l0.2-0.2l0.2-0.2l0.2-0.2V64l0.2-0.1
	l0.2-0.2l0.2-0.2l0.2-0.2l0.2-0.2l0.1-0.2l0.2-0.2l0.2-0.1l0.2-0.3l0.2-0.1L103,62l0.2-0.2l0.2-0.2l0.1-0.2l0.4-0.3V61l0.3-0.2
	l0.2-0.2l0.2-0.2l0.1-0.2l0.2-0.2l0.2-0.1l0.2-0.2l0.2-0.2l0.2-0.2l0.2-0.2l0.2-0.2l0.2-0.2l0.1-0.2h0.1l0.2-0.2l0.2-0.2L107,58v0
	l0.3-0.2l0.1-0.2l0.2-0.2l0.2-0.1l0.2-0.2l0.2-0.2l0.2-0.2l0.2-0.2l0.2-0.2l0.2-0.2l0.1-0.1l0.2-0.2l0.3-0.3l0.2-0.3h0.1L110,55.1z"
	/>
<linearGradient id="yesil-beyaz-1_1_" gradientUnits="userSpaceOnUse" x1="63.9089" y1="114.5804" x2="83.6089" y2="22.9804" gradientTransform="matrix(1 0 0 -1 0 112)">
	<stop  offset="0.1" style="stop-color:#80BC00"/>
	<stop  offset="0.3" style="stop-color:#97C82D"/>
	<stop  offset="0.5" style="stop-color:#CFE69E"/>
	<stop  offset="0.8" style="stop-color:#FFFFFF"/>
</linearGradient>
<path id="yesil-beyaz-1" class="st3" d="M109.9,55l-0.2-0.3l-0.2-0.2l-0.2-0.2l-0.2-0.2l-0.2-0.1l-0.2-0.2l-0.2-0.2l-0.2-0.2
	l-0.1-0.2l-0.3-0.2l-0.1-0.2l-0.2-0.2l-0.2-0.2l-0.2-0.2L107,52l-0.2-0.2l-0.2-0.2l-0.2-0.2l-0.2-0.1L106,51l-0.2-0.1l-0.2-0.2
	l-0.1-0.2l-0.2-0.2l-0.2-0.2l-0.2-0.2l-0.2-0.2l-0.2-0.2l-0.2-0.2l-0.2-0.2l-0.2-0.2l-0.2-0.2l-0.2-0.2l-0.2-0.1l-0.2-0.2l-0.2-0.2
	l-0.2-0.2l-0.1-0.2l-0.2-0.2l-0.2-0.2L102,47l-0.2-0.2l-0.2-0.2l-0.2-0.2l-0.2-0.2L101,46l-0.2-0.2l-0.2-0.1l-0.2-0.2l-0.2-0.2
	l-0.2-0.2l-0.1-0.2l-0.2-0.2l-0.2-0.2l-0.2-0.2l-0.2-0.2l-0.2-0.2l-0.2-0.2l-0.2-0.2l-0.2-0.2l-0.2-0.2L97.9,43l-0.2-0.3l-0.2-0.1
	l-0.2-0.2l-0.1-0.2L97,42l-0.2-0.2l-0.2-0.2l-0.2-0.2l-0.2-0.2L96,41l-0.2-0.2l-0.2-0.2l-0.2-0.2l-0.2-0.2L95,40l-0.2-0.1l-0.1-0.2
	l-0.2-0.2l-0.2-0.2l-0.2-0.2l-0.2-0.2l-0.2-0.2l-0.2-0.2l-0.2-0.2l-0.2-0.2l-0.2-0.2l-0.2-0.2l-0.2-0.2l-0.2-0.1l-0.1-0.2L92,37
	l-0.2-0.2l-0.2-0.2l-0.2-0.2l-0.2-0.2L91,36l-0.2-0.2l-0.2-0.2l-0.2-0.2l-0.2-0.2L90,35l-0.2-0.2l-0.2-0.1l-0.1-0.3l-0.2-0.1
	l-0.2-0.2l-0.2-0.2l-0.2-0.2l-0.2-0.2l-0.2-0.2l-0.2-0.2l-0.2-0.2l-0.2-0.2l-0.2-0.2l-0.2-0.2l-0.2-0.2l-0.2-0.2l-0.2-0.1l-0.1-0.2
	l-0.2-0.2l-0.2-0.2L86,31l-0.2-0.2l-0.2-0.2l-0.2-0.2l-0.2-0.2L85,30l-0.2-0.2l-0.2-0.2l-0.2-0.2l-0.2-0.2L84,29.1l-0.1-0.2
	l-0.2-0.2l-0.2-0.2l-0.2-0.2l-0.2-0.2l-0.2-0.2l-0.2-0.2l-0.2-0.2l-0.2-0.2l-0.2-0.2l-0.2-0.2l-0.2-0.2l-0.2-0.2l-0.2-0.1l-0.1-0.2
	L81,26l-0.2-0.2l-0.2-0.2l-0.2-0.2l-0.2-0.2L80,25l-0.2-0.2l-0.2-0.2l-0.2-0.2l-0.2-0.2L79,24l-0.2-0.2l-0.1-0.2l-0.2-0.2l-0.2-0.1
	l-0.2-0.2l-0.2-0.2l-0.2-0.2l-0.2-0.2l-0.2-0.2l-0.2-0.2l-0.2-0.2l-0.2-0.2l-0.2-0.2l-0.2-0.2l-0.1-0.2L76,20.9l-0.2-0.1l-0.2-0.2
	l-0.2-0.2l-0.2-0.2L75,20l-0.2-0.2l-0.2-0.2l-0.2-0.2l-0.2-0.2L74,19l-0.2-0.2l-0.2-0.2l-0.1-0.2l-0.2-0.2l-0.2-0.1l-0.2-0.2
	l-0.2-0.2l-0.2-0.2l-0.2-0.2l-0.2-0.2l-0.2-0.2l-0.2-0.2l-0.2-0.2l-0.2-0.2l-0.2-0.2l-0.2-0.2l-0.2-0.2l-0.1-0.2l-0.2-0.2l-0.2-0.2
	L70,15l-0.2-0.2l-0.2-0.2l-0.2-0.2l-0.2-0.2L69,14l-0.2-0.2l-0.2-0.2l-0.2-0.2l-0.2-0.2L68,13l-0.1-0.2l-0.2-0.2l-0.2-0.2l-0.2-0.1
	l-0.2-0.2l-0.2-0.2l-0.2-0.2l-0.2-0.2l-0.2-0.2l-0.2-0.2l-0.2-0.2l-0.2-0.2l-0.2-0.2l-0.2-0.2l-0.1-0.2L65,9.9l-0.2-0.2l-0.2-0.1
	l-0.2-0.2l-0.2-0.2L64,9l-0.2-0.2l-0.2-0.2l-0.2-0.2l-0.2-0.2L63,8l-0.1-0.2l-0.2-0.2l-0.2-0.2l-0.2-0.2L62,7l-0.2-0.1l-0.2-0.2
	l-0.2-0.2l-0.2-0.2L61,6.1l-0.2-0.2l-0.2-0.2l-0.2-0.2l-0.2-0.2l-0.1-0.2L60,5l-0.2-0.2l-0.2-0.2l-0.2-0.2l-0.2-0.1L59,4l-0.2-0.2
	l-0.2-0.2l-0.2-0.2l-0.2-0.2L58,3l-0.2-0.2l-0.1-0.2l-0.3-0.2l-0.1-0.2L57,2l-0.2-0.2l-0.2-0.2l-0.2-0.2l-0.2-0.1L56,1.1l-0.2-0.2
	l-0.2-0.2l-0.2-0.2l-0.2-0.2L55,0.1V0v0.1l-0.1,0.2v0.5L54.8,1v0.5l-0.1,0.2V2l-0.1,0.3v0.4L54.5,3v0.4l-0.1,0.2V4l-0.1,0.2v0.5
	l-0.1,0.2v0.5l-0.1,0.2V6L54,6.2v0.2l-0.1,0.2v0.5l-0.1,0.2V8l-0.1,0.2v0.5l-0.1,0.2v0.4l-0.1,0.3V10l-0.1,0.3v0.2l-0.1,0.2v0.5
	l-0.1,0.2v0.5l-0.1,0.2v0.4L53,12.8v0.4l-0.1,0.3v0.4l-0.1,0.2v0.3l-0.1,0.2v0.5l-0.1,0.2v0.4L52.5,16v0.4l-0.1,0.3v0.4l-0.1,0.2
	v0.5L52.2,18v0.5l-0.1,0.2v0.2L52,19.2v0.4l-0.1,0.2v0.5l-0.1,0.2V21l-0.1,0.2v0.5l-0.1,0.2v0.5l-0.1,0.2v0.2L51.4,23v0.5l-0.1,0.2
	v0.5l-0.1,0.2v0.5l-0.1,0.2v0.5L51,25.8v0.4l-0.1,0.3v0.4l-0.1,0.2v0.3l-0.1,0.2v0.5l-0.1,0.2v0.4L50.5,29v0.4l-0.1,0.3v0.4
	l-0.1,0.2v0.5L50.2,31v0.3l-0.1,0.2v0.4L50,32.2v0.4l-0.1,0.3v0.4l-0.1,0.2V34l-0.1,0.2v0.5l-0.1,0.2v0.2l-0.1,0.3v0.4L49.4,36v0.5
	l-0.1,0.2v0.5l-0.1,0.2v0.5l-0.1,0.2v0.5L49,38.8v0.4l-0.1,0.3v0.2l-0.1,0.2v0.5l-0.1,0.2v0.5l-0.1,0.2v0.5L48.5,42v0.4l-0.1,0.3
	v0.4l-0.1,0.3v0.2l-0.1,0.2v0.5l-0.1,0.2v0.4L48,45.2v0.4l-0.1,0.3v0.4l-0.1,0.2V47l-0.1,0.2v0.3l-0.1,0.2v0.4l-0.1,0.3v0.4
	l-0.1,0.3v0.4l-0.1,0.2v0.5l-0.1,0.2v0.5l-0.1,0.2v0.2L47,51.6V52l-0.1,0.3v0.4l-0.1,0.2v0.5l-0.1,0.2v0.5l-0.1,0.2v0.5L46.5,55v0.4
	l-0.1,0.3v0.2l-0.1,0.2v0.5l-0.1,0.2v0.5l-0.1,0.2V58L46,58.2v0.4l-0.1,0.3v0.4l-0.1,0.3v0.2L45.7,60v0.5l-0.1,0.2v0.5l-0.1,0.2v0.4
	l-0.1,0.3v0.4l-0.1,0.2v0.5l-0.1,0.2v0.5l-0.1,0.2v0.2L45,64.6V65l-0.1,0.3l65-10L109.9,55L109.9,55z"/>
<path id="fibabanka" class="st4" d="M284.8,37c-4.7,0-9.4,0.7-14,2c-0.7,0.2-1.3,0.7-1.5,1.4c-0.2,0.8-0.1,1.7,0.2,2.5
	c0.8,1.8,2.2,8,4.3,7.8s4.8-0.8,6.8-1c2-0.3,3.9-0.3,5.9-0.1c3.3,0.4,5,2.7,5,7v3.6c-4.3-0.9-8.8-1.4-13.2-1.5
	c-13.3,0-14.8,6.8-14.8,15.2c0,9.8,2.8,16.9,14.8,16.9c8,0,27-1.4,27-9.4V57C305.3,44,298.6,37,284.8,37L284.8,37z M291.6,78.7
	c-2.9,1.2-6,1.8-9.1,1.8c-4.2,0-5.2-1.8-5.2-5.7c0-4.4,1-6.1,5.2-6.1c3.1-0.1,6.1,0.5,9,1.7L291.6,78.7z M241.7,37.3
	c-5.1,0.1-10.1,1.3-14.7,3.5V22.9c0-2.6-1.6-3.6-3.5-3.6c-2.6,0-10.3,0.2-10.3,2.3v60.7c-0.1,1.7,0.8,3.3,2.2,4.2
	c6,4,20.9,4.3,26.5,4.3c10.9,0,14.3-6,14.3-19V56.1C256.2,46.3,256,37.3,241.7,37.3z M242.4,72.3c0,3.8-0.7,7-3.5,7
	c-4.7,0-12-1-12-1.6V52c2.7-1.3,7.3-2.3,12-2.3c2.8,0,3.5,3.3,3.5,7V72.3z M485.8,60.7l13.1-21.3c1.2-2.1,6-2.3,8.1-2.3
	c4.5,0,6.2,1,6,2.6c-0.1,0.7-0.3,1.3-0.6,1.9l-12.8,20.3c5.2,8.3,14,22.1,15.6,26.4c0.2,1.8-1.4,2.5-5.7,2.5c-1.2,0-7.3,0-8.6-2.7
	l-15-25v24.1c0,2.7-1.6,3.6-3.6,3.6c-2.5,0-10.3-0.2-10.3-2.3V21.6c0-2.1,7.8-2.3,10.3-2.3c2,0,3.5,1,3.5,3.6V60.7z M446.8,58.5
	c0-4.6-0.5-8.7-3.5-8.7c-5.2,0-11.8,1.7-11.8,2.5v35.9c0,1.6-1.9,2.6-3.5,2.6c-2.5,0-10.3-0.2-10.3-2.3v-42c0-4.3,12.4-9.4,27.9-9.4
	c14.1,0,15,9.4,15,19v32.1c0,1.6-2,2.6-3.7,2.6c-2.5,0-10.2-0.2-10.2-2.3L446.8,58.5z M187,31v-9.3c0-2.1,7.7-2.4,10.2-2.4
	c1.8,0,3.6,1,3.6,2.7v8.7c0,1.5-1.8,2.6-3.6,2.6C194.7,33.3,187,33.1,187,31z M201.2,41v46.2c0,2.7-1.6,3.6-3.6,3.6
	c-2.5,0-10.2-0.2-10.2-2.3V39.6c0-2.1,7.7-2.3,10.2-2.3c2,0,3.6,1,3.6,3.6V41z M152.2,87.9c0,1.5-1.8,3-3.6,3c-2.6,0-11-0.6-11-2.7
	V21.8c0-1.4,1.6-2.5,3.5-2.5H179c1.6,0,2.6,1.8,2.6,3.4c0,2.5-0.3,9.7-2.3,9.7h-27v15h21.3c1.4,0,2.4,1.8,2.4,3.4
	c0,2.5-0.2,9.7-2.1,9.7h-21.6L152.2,87.9z M387.5,37c-4.7,0-9.4,0.7-14,2c-0.7,0.1-1.3,0.6-1.5,1.3c-0.2,0.8-0.1,1.7,0.2,2.5
	c0.8,1.8,2.2,8,4.3,7.8s4.8-0.8,6.8-1c1.9-0.3,3.9-0.3,5.8-0.1c3.4,0.4,5.1,2.7,5.1,7v3.6c-4.3-0.9-8.8-1.4-13.2-1.4
	c-13.3,0-14.8,6.7-14.8,15.1c0,9.9,2.8,17,14.8,17c8,0,27-1.4,27-9.4V57C408,44,401.3,37,387.5,37L387.5,37z M394.2,78.6
	c-2.9,1.2-5.9,1.8-9,1.8c-4.2,0-5.2-1.8-5.2-5.7c0-4.4,1-6.1,5.2-6.1c3.1-0.1,6.1,0.5,9,1.7V78.6z M344.4,37.2
	c-5.1,0.1-10.2,1.3-14.8,3.5V22.9c0-2.6-1.5-3.6-3.5-3.6c-2.5,0-10.2,0.2-10.2,2.3v60.7c-0.1,1.7,0.7,3.3,2.1,4.2
	c6,4,21,4.3,26.5,4.3c11,0,14.4-6,14.4-19V56.1c0-9.8-0.2-18.8-14.5-18.8V37.2z M345.1,72.2c0,3.8-0.7,7-3.5,7c-4.7,0-12-1-12-1.6
	V52c2.7-1.3,7.3-2.3,12-2.3c2.8,0,3.5,3.3,3.5,7V72.2z M540.9,37c-4.7,0-9.4,0.7-14,2c-0.7,0.1-1.3,0.6-1.5,1.3
	c-0.2,0.8-0.1,1.7,0.2,2.5c0.8,1.8,2.1,8,4.3,7.8s4.8-0.8,6.7-1c2-0.3,3.9-0.3,5.9-0.1c3.3,0.4,5,2.7,5,7v3.6
	c-4.3-0.9-8.7-1.4-13.1-1.5c-13.3,0-14.9,6.8-14.9,15.2c0,9.8,2.9,16.9,14.9,16.9c8,0,27-1.4,27-9.4V57C561.4,44,554.6,37,540.9,37
	L540.9,37z M547.6,78.6c-2.9,1.2-5.9,1.8-9,1.8c-4.3,0-5.3-1.8-5.3-5.7c0-4.4,1-6.1,5.2-6.1c3.1-0.1,6.2,0.5,9.1,1.7V78.6z"/>
</svg>
