<?xml version="1.0" encoding="UTF-8" standalone="no"?>
<!DOCTYPE svg PUBLIC "-//W3C//DTD SVG 1.1//EN" "http://www.w3.org/Graphics/SVG/1.1/DTD/svg11.dtd">
<svg width="100%" height="100%" viewBox="0 0 143 40" version="1.1" xmlns="http://www.w3.org/2000/svg" xmlns:xlink="http://www.w3.org/1999/xlink" xml:space="preserve" xmlns:serif="http://www.serif.com/" style="fill-rule:evenodd;clip-rule:evenodd;stroke-miterlimit:2.6131;">
    <g transform="matrix(1,0,0,1,71.5883,20.6058)">
        <g id="maximumcard_logo" transform="matrix(1,0,0,1,-71.5,-71.5)">
            <clipPath id="_clip1">
                <rect x="0" y="0" width="143" height="143"/>
            </clipPath>
            <g clip-path="url(#_clip1)">
                <g id="surface1">
                    <g transform="matrix(0.1,0,0,-0.1,0,143)">
                        <rect x="7.734" y="10.781" width="1417.31" height="1417.34" style="fill:none;stroke:rgb(254,254,254);stroke-width:2.16px;"/>
                    </g>
                    <path d="M8.215,80.27C8.133,80.852 8.082,81.199 8.082,81.199L3.051,81.199C3.051,81.199 3.102,80.852 3.188,80.27L5.199,80.27L3.188,80.27C3.621,77.332 4.938,68.406 5.074,67.48C5.242,66.375 6.137,64.344 7.539,63.223C8.941,62.105 10.734,61.328 12.902,61.328C15.07,61.328 16.344,61.859 17.074,62.262C17.805,62.66 18.277,63.168 18.277,63.168C18.277,63.168 18.879,62.578 20.059,62.094C21.234,61.609 22.047,61.316 23.961,61.316C25.867,61.316 27.648,61.93 28.422,62.695C29.203,63.461 29.461,63.922 29.754,65.254C29.754,65.254 29.91,66.219 29.711,67.609C29.543,68.766 28.285,77.391 27.863,80.27C27.781,80.852 27.73,81.199 27.73,81.199L22.699,81.199C22.699,81.199 22.75,80.852 22.832,80.27L25.238,80.27L22.832,80.27C23.246,77.434 24.469,69.059 24.547,68.48C24.641,67.785 24.84,66.336 24.355,65.703C23.875,65.066 23.004,64.898 22.344,64.945C21.684,64.992 20.316,65.195 19.949,67.375C19.648,69.176 18.418,77.457 18.004,80.266L15.559,80.27L18.004,80.27C17.918,80.852 17.863,81.199 17.863,81.199L12.855,81.199C12.855,81.199 12.906,80.852 12.992,80.266C13.422,77.348 14.707,68.594 14.777,68.047C14.859,67.387 14.977,65.832 14.094,65.266C13.207,64.699 11.617,64.828 10.969,65.727C10.32,66.621 10.18,67.059 9.957,68.426C9.77,69.551 8.613,77.52 8.215,80.27ZM31.59,80.27C30.996,79.785 30.5,79.172 30.156,78.395C28.887,75.52 29.641,71.867 33.176,70.074C36.711,68.281 42.039,68.375 42.039,68.375C42.039,68.375 42.438,66.773 41.566,65.996C40.594,65.129 39.586,65.406 37.395,65.762C35.203,66.113 32.75,67.164 32.75,67.164L33.316,63.164C33.316,63.164 34.801,62.105 38.527,61.539C42.25,60.977 43.57,61.68 45.219,62.906C46.871,64.133 46.871,66.254 46.68,67.598C46.492,68.941 45.055,78.699 45.055,78.699L43.781,79.691C43.496,79.902 43.188,80.094 42.863,80.27L42.859,80.27C41.398,81.066 39.555,81.527 37.418,81.719C35.508,81.891 33.195,81.574 31.59,80.27ZM46.656,80.27L46.047,78.773C46.047,78.773 51.906,70.734 52.02,70.555C52.141,70.379 52.172,69.945 52.012,69.637C51.844,69.332 48.285,63.25 48.105,62.906C47.93,62.566 47.707,61.895 48.027,60.547C48.344,59.207 49.18,58.805 49.555,58.746C49.934,58.688 50.301,58.828 50.734,59.5C51.172,60.172 54.742,65.523 54.895,65.758C55.051,65.996 55.297,66.066 55.5,65.781C55.699,65.5 62.957,55.492 63.313,55.012C63.668,54.527 64.563,53.563 65.422,53.43C66.281,53.301 66.93,53.406 67.531,53.855C68.133,54.305 68.652,55.234 68.547,56.199C68.438,57.164 67.91,58.004 67.059,59.078C66.211,60.148 58.563,69.461 58.363,69.684C58.16,69.906 58.152,70.262 58.199,70.555C58.242,70.852 58.727,71.484 58.902,71.746C59.078,72.004 63.676,78.84 63.676,78.84L66.129,61.914L70.891,61.914L68.211,80.27L66.941,80.27L68.211,80.27L68.074,81.211L65.293,81.211L67.758,84.875L62.902,88.73C62.902,88.73 60.285,84.172 58.047,80.27L58.043,80.27C56.398,77.395 54.957,74.883 54.91,74.797C54.789,74.598 54.613,74.316 54.223,74.813C53.988,75.113 51.629,78.031 49.82,80.27L46.656,80.27L47.719,82.863C47.719,82.863 48.656,81.707 49.82,80.27L46.656,80.27ZM70.039,80.27C70.473,77.332 71.789,68.406 71.926,67.48C72.094,66.375 72.988,64.344 74.391,63.223C75.793,62.105 77.586,61.328 79.754,61.328C81.922,61.328 83.195,61.855 83.926,62.258C84.656,62.66 85.129,63.164 85.129,63.164C85.129,63.164 85.73,62.578 86.91,62.094C88.086,61.609 88.898,61.316 90.809,61.316C92.719,61.316 94.5,61.93 95.277,62.695C96.055,63.461 96.316,63.918 96.605,65.25C96.605,65.25 96.762,66.219 96.563,67.609C96.395,68.766 95.137,77.391 94.719,80.27L94.715,80.27C94.633,80.852 94.582,81.199 94.582,81.199L89.551,81.199C89.551,81.199 89.598,80.852 89.684,80.27L91.359,80.27L89.684,80.27C90.098,77.434 91.32,69.059 91.398,68.48C91.492,67.785 91.695,66.336 91.211,65.703C90.727,65.063 89.855,64.898 89.195,64.945C88.535,64.992 87.168,65.195 86.801,67.375C86.5,69.176 85.27,77.457 84.855,80.266L82.457,80.27L84.855,80.27C84.77,80.852 84.715,81.199 84.715,81.199L79.707,81.199C79.707,81.199 79.762,80.852 79.844,80.27L79.844,80.266C80.277,77.344 81.559,68.594 81.629,68.043C81.711,67.387 81.828,65.832 80.945,65.266C80.059,64.699 78.469,64.828 77.82,65.723C77.172,66.617 77.031,67.055 76.809,68.422C76.625,69.551 75.465,77.52 75.07,80.27C74.984,80.852 74.934,81.199 74.934,81.199L69.898,81.199C69.898,81.199 69.953,80.852 70.039,80.27ZM98.688,80.27C97.891,79.516 97.496,78.617 97.387,77.898C97.152,76.367 97.316,74.906 97.645,72.832C97.977,70.758 99.285,61.941 99.285,61.941L104.281,61.941C104.281,61.941 102.43,74.574 102.289,75.52C102.148,76.461 102.242,77.945 103.113,78.371C103.988,78.793 105.402,78.723 105.988,78.207C106.582,77.684 107.121,77.168 107.43,75.52C107.734,73.867 109.48,61.914 109.48,61.914L114.406,61.914C114.406,61.914 112.73,73.563 112.543,74.977C112.355,76.391 111.672,78.77 110.164,79.973C110.031,80.078 109.902,80.176 109.773,80.27L109.77,80.27C108.359,81.277 106.688,81.789 103.09,81.789C101,81.789 99.586,81.125 98.688,80.27L105.508,80.27L98.688,80.27ZM113.602,80.27C114.035,77.328 115.355,68.402 115.492,67.48C115.656,66.371 116.551,64.344 117.953,63.223C119.355,62.105 121.148,61.328 123.316,61.328C125.484,61.328 126.758,61.855 127.488,62.258C128.219,62.66 128.691,63.164 128.691,63.164C128.691,63.164 129.293,62.578 130.473,62.094C131.648,61.609 132.461,61.316 134.371,61.316C136.281,61.316 138.063,61.926 138.84,62.691C139.617,63.461 139.879,63.918 140.172,65.25C140.172,65.25 140.324,66.219 140.125,67.609C139.957,68.766 138.695,77.395 138.281,80.27L138.277,80.27C138.195,80.852 138.145,81.199 138.145,81.199L133.113,81.199C133.113,81.199 133.16,80.852 133.246,80.27C133.66,77.434 134.883,69.059 134.961,68.48C135.055,67.785 135.258,66.336 134.773,65.699C134.289,65.063 133.418,64.898 132.758,64.945C132.098,64.992 130.73,65.191 130.363,67.371C130.063,69.176 128.828,77.469 128.414,80.27C128.328,80.852 128.277,81.199 128.277,81.199L123.27,81.199C123.27,81.199 123.32,80.852 123.406,80.27L125.844,80.27L123.406,80.27C123.832,77.363 125.121,68.594 125.191,68.043C125.27,67.383 125.391,65.832 124.508,65.266C123.621,64.699 122.031,64.828 121.383,65.723C120.734,66.617 120.594,67.055 120.371,68.422C120.188,69.551 119.027,77.52 118.629,80.27C118.547,80.852 118.496,81.199 118.496,81.199L113.465,81.199C113.465,81.199 113.512,80.852 113.602,80.27ZM53.352,57.438C53.781,55.406 55.301,53.762 56.75,53.762C58.203,53.762 59.031,55.406 58.605,57.438C58.176,59.469 56.656,61.113 55.207,61.113C53.758,61.113 52.926,59.469 53.352,57.438ZM41.59,71.652C41.59,71.652 40.48,71.723 39.68,71.793C38.879,71.867 37.652,71.98 36.074,72.57C34.496,73.16 33.883,74.387 33.883,75.66C33.883,76.84 34.543,78.16 36.66,78.301C38.785,78.441 40.766,77.074 40.766,77.074L41.59,71.652" style="fill:rgb(235,0,139);"/>
                </g>
            </g>
        </g>
    </g>
</svg>
