<?xml version="1.0" encoding="UTF-8" standalone="no"?>
<!DOCTYPE svg PUBLIC "-//W3C//DTD SVG 1.1//EN" "http://www.w3.org/Graphics/SVG/1.1/DTD/svg11.dtd">
<svg width="100%" height="100%" viewBox="0 0 200 77" version="1.1" xmlns="http://www.w3.org/2000/svg" xmlns:xlink="http://www.w3.org/1999/xlink" xml:space="preserve" xmlns:serif="http://www.serif.com/" style="fill-rule:evenodd;clip-rule:evenodd;stroke-linejoin:round;stroke-miterlimit:1.41421;">
    <g transform="matrix(1,0,0,1,99.8411,38.0763)">
        <g id="paraf_logo" transform="matrix(1,0,0,1,-60,-38.5)">
            <g id="surface1" transform="matrix(0.238432,0,0,0.229217,0,3.42383)">
                <path d="M480.605,257.141L500,257.141L500,237.746L480.605,237.746L480.605,257.141ZM368,174.984C368.027,177.281 367.734,179.992 367.109,183.047C363.598,200.242 355.199,215.703 342.844,227.781C336.91,233.602 327.203,239.617 321.258,239.617C319.727,239.617 318.445,239.391 317.102,236.574C315.273,232.738 314.914,224.418 319.395,212.555C323.656,201.199 331.313,189.602 340.953,179.891C349.055,171.719 358.199,168.008 363.273,168.008C365.449,168.008 367.91,168.008 368,174.965L368,174.984ZM227.945,161.125C227.789,162.09 227.609,163.098 227.398,164.129C224.242,162.418 222.086,160.043 220.953,156.992C219.941,154.27 220.359,152.125 222.227,150.438C223.551,149.246 225.055,148.863 225.82,148.863C226.008,148.863 226.148,148.887 226.234,148.926C228.242,150.879 229.16,153.512 227.945,161.125M169.035,174.215C168.711,178.574 167.406,183.102 166.652,185.422C160.074,205.82 155.055,217.09 137.555,232.324C132.082,237.102 126.781,239.727 122.645,239.727L122.641,239.727C120.063,239.727 118.078,238.672 116.578,236.48C114.094,232.855 112.602,224.98 116.582,214.734C122.242,200.227 136.063,183.566 149.445,175.133C152.238,173.383 155.664,171.707 159.371,170.281C163.492,168.68 165.969,168.344 167.313,168.344C168.082,168.344 168.496,168.465 168.5,168.434C168.711,168.664 169.375,169.754 169.035,174.215M488.102,139.176C497.496,120.211 502.91,90.133 496.41,71.359C491.848,58.215 481.488,51.035 468.387,51.492C443.344,52.27 433.66,83.574 429.012,98.609C417.449,135.965 410.559,176.691 408.195,221.563C407.434,222.121 406.715,222.648 405.914,223.246C401.582,226.488 391.676,233.895 387.703,234.164C387.266,233.41 386.328,231.234 385.91,226.141C385.426,220.246 385.996,204.965 386.457,192.691C386.746,185.148 386.988,178.641 386.977,174.816C386.977,174.781 386.977,174.75 386.977,174.719C386.781,159.133 377.48,149.066 363.273,149.066C351.898,149.066 338.176,155.766 327.461,166.555C315.98,178.137 306.809,192.109 301.633,205.887C298.699,213.656 297.121,221.047 296.895,227.727C295.012,229.176 293.191,230.547 292.043,231.313C278.289,240.52 274.359,237.348 273.074,236.301C266.828,231.254 272.828,215.891 278.113,202.344C283.059,189.684 287.723,177.742 285.508,167.754C284.852,164.801 282.828,162.34 280.055,161.129C277.273,159.91 274.09,160.094 271.477,161.609C267.34,164.004 253.969,166.984 246.109,167.313C246.328,166.203 246.52,165.141 246.684,164.121C247.586,158.492 249.695,145.316 239.484,135.367C232.652,128.723 221.633,128.129 212.695,133.938C202.789,140.363 198.957,152.277 203.16,163.582C205.723,170.488 211.086,178.215 222.207,182.637C214.578,204.617 201.32,229.789 188.816,239.246C187.152,233.301 185.508,218.453 187.684,181.391C187.848,178.527 187.961,176.457 187.98,175.344C188.383,169.766 188.184,161.781 182.449,155.59C179.84,152.77 175.102,149.406 167.313,149.406C162.934,149.406 158.086,150.461 152.523,152.613C147.715,154.465 143.152,156.711 139.324,159.113C122.336,169.82 106.082,189.41 98.891,207.875C93.242,222.398 94,237.098 100.914,247.18C105.93,254.48 113.844,258.672 122.641,258.676L122.645,258.676C131.508,258.676 140.98,254.492 150.035,246.598C157.77,239.859 163.531,233.672 168.148,227.219C169.359,244.578 172.895,253.797 179.211,257.875C181.527,259.363 184.113,260.121 186.785,260.121C189.254,260.121 191.77,259.484 194.211,258.207C214.613,247.559 232.035,213.215 240.977,186.234C242.469,186.289 244.02,186.301 245.617,186.273C250.457,186.184 257.773,185.23 264.828,183.621C263.543,187.5 261.91,191.688 260.434,195.469C253.164,214.086 244.121,237.266 261.117,251.016C271.602,259.484 285.223,258.348 301.617,247.68C306.035,254.715 312.891,258.555 321.258,258.555C338.031,258.555 354.336,243.066 356.137,241.309C360.137,237.387 363.773,233.164 367.078,228.711C367.57,234.133 369.258,246.82 379.758,251.543C382.219,252.645 384.734,253.129 387.273,253.129C394,253.129 400.879,249.723 407.336,245.504C406.961,268.406 407.715,292.395 409.547,317.512L427.844,306.066C426.242,280.031 425.801,255.238 426.691,231.73C440.742,222.18 453.152,216.09 463.84,213.441L471.906,193.105C458.879,193.84 444.387,198.855 428.059,208.402C430.945,170.672 437.27,136.105 447.145,104.199C450.234,94.199 457.484,70.785 469.051,70.418C473.121,70.273 476.336,71.41 478.469,77.555C482.805,90.035 478.906,111.066 473.621,125.133L488.102,139.176ZM147.641,118.578C122.723,137.715 93.664,144.434 68.633,137.172C79.234,87.871 97.563,40.156 126.98,23.879C136.293,18.715 147.219,18.199 156.941,22.434C166.363,26.555 173.379,34.637 175.695,44.082C181.727,68.664 169.141,102.078 147.641,118.578M194.742,39.438C190.984,24.102 179.789,11.051 164.797,4.512C149.426,-2.211 132.176,-1.383 117.469,6.762C81.266,26.793 61.262,79.32 50.242,128.785C34.188,118.422 22.887,101.504 17.363,79.773L0,90.633C8.18,116.902 24.32,137.41 46.164,149.059C39.684,184.91 37.668,216.297 37.098,228.336L37.035,229.582C36.617,238.09 35.684,257.402 36.535,278.449L55.844,266.367C55.648,250.746 56.297,237.203 56.621,230.527L56.684,229.266C57.66,208.77 60.211,182.941 64.871,156.441C95.492,164.676 130.207,156.66 159.605,134.098C187.598,112.598 202.707,71.902 194.742,39.438" style="fill:rgb(0,165,211);fill-rule:nonzero;"/>
            </g>
        </g>
    </g>
</svg>
