<?xml version="1.0" encoding="utf-8"?>
<!-- Generator: Adobe Illustrator 21.1.0, SVG Export Plug-In . SVG Version: 6.00 Build 0)  -->
<svg version="1.1" id="Layer_1" xmlns="http://www.w3.org/2000/svg" xmlns:xlink="http://www.w3.org/1999/xlink" x="0px" y="0px"
	 viewBox="0 0 151.1 31.9" style="enable-background:new 0 0 151.1 31.9;" xml:space="preserve">
<style type="text/css">
	.st0{fill:#1D1D1B;}
	.st1{fill:#AA343A;}
	.st2{fill:#E2251D;}
</style>
<g>
	<path class="st0" d="M34.6,23.1h-7.9l7.9-13c0,0,0,0,0,0V7.8c0,0,0-0.1-0.1-0.1H24c0,0-0.1,0-0.1,0l-0.6,2.3c0,0,0,0,0,0.1
		c0,0,0,0,0.1,0H31l-8,13.1c0,0,0,0,0,0v2.2c0,0,0,0.1,0.1,0.1h10.8c0,0,0.1,0,0.1,0L34.6,23.1C34.6,23.2,34.6,23.2,34.6,23.1
		C34.6,23.1,34.6,23.1,34.6,23.1"/>
	<path class="st0" d="M37.7,7.7c-1.1,0-1.9,0.9-1.9,2c0,1.1,0.8,1.9,1.9,1.9c1.1,0,2-0.9,2-1.9C39.6,8.5,38.7,7.7,37.7,7.7"/>
	<path class="st0" d="M39,12.2L39,12.2l-2.9,0.5c0,0-0.1,0-0.1,0.1v12.8c0,0,0,0.1,0.1,0.1H39c0,0,0.1,0,0.1-0.1L39,12.2
		C39.1,12.2,39.1,12.2,39,12.2C39.1,12.2,39.1,12.2,39,12.2"/>
	<path class="st0" d="M76.8,23.6C76.8,23.6,76.8,23.6,76.8,23.6C76.8,23.6,76.8,23.6,76.8,23.6c-0.6,0.2-0.9,0.2-1.2,0.2
		c-1.2,0-1.5-0.4-1.5-2v-7.5h2.3c0,0,0,0,0.1,0l0.7-1.9c0,0,0,0,0-0.1c0,0,0,0-0.1,0h-3V8.7c0,0,0,0,0-0.1c0,0,0,0,0,0h0l-2.8,0.5
		c0,0-0.1,0-0.1,0.1v3h-1.4c0,0-0.1,0-0.1,0.1v1.9c0,0,0,0.1,0.1,0.1h1.4v8.3c0,1.5,0.6,3.4,3.4,3.4c0.9,0,1.7-0.2,2.6-0.6
		c0,0,0,0,0-0.1L76.8,23.6C76.8,23.6,76.8,23.6,76.8,23.6"/>
	<path class="st0" d="M57.3,14.4c-0.6-1.4-2-2.2-4-2.2c-1.3,0-2.5,0.3-3.7,0.8c0,0,0,0,0,0.1L49,15.8c0,0,0,0.1,0,0.1c0,0,0,0,0,0
		c0,0,0,0,0,0c0,0,2-1.5,3.8-1.5c1.5,0,1.7,0.7,1.7,2.2v0.9h-0.8c-4.2,0-6.5,1.6-6.5,4.6c0,2.5,1.6,4,4.4,4c1.1,0,2-0.3,2.8-0.9v0.8
		c0,0,0,0.1,0.1,0.1h2.8c0,0,0.1,0,0.1-0.1v-8.3C57.6,15.6,57.6,15,57.3,14.4 M54.6,22.5c-0.6,0.8-1.4,1.3-2.3,1.3
		c-1.1,0-1.7-0.7-1.7-1.9c0-1.4,0.6-2.4,3.6-2.4c0.1,0,0.3,0,0.4,0V22.5z"/>
	<path class="st0" d="M68.6,14.4c-0.6-1.4-2-2.2-4-2.2c-1.3,0-2.5,0.3-3.7,0.8c0,0,0,0,0,0.1l-0.5,3c0,0,0,0.1,0,0.1c0,0,0,0,0,0
		c0,0,0,0,0,0c0,0,2-1.5,3.8-1.5c1.5,0,1.7,0.7,1.7,2.2v0.6h-0.8c-4.2,0-6.5,1.6-6.5,4.6c0,2.5,1.6,4,4.4,4c1.1,0,2-0.3,2.8-0.9v0.8
		c0,0,0,0.1,0.1,0.1h2.8c0,0,0.1,0,0.1-0.1v-8.3C68.8,15.6,68.8,15,68.6,14.4 M65.8,22.5c-0.6,0.8-1.4,1.3-2.3,1.3
		c-1.1,0-1.7-0.7-1.7-1.9c0-1.4,0.6-2.4,3.6-2.4c0.1,0,0.3,0,0.4,0V22.5z"/>
	<path class="st0" d="M47.7,15.5L47.7,15.5C47.7,15.5,47.7,15.5,47.7,15.5C47.8,15.5,47.8,15.5,47.7,15.5l0.6-2.7c0,0,0-0.1,0-0.1
		c-0.3-0.1-0.6-0.2-1-0.2c-1.2,0-2.2,0.6-3.2,1.9v-2.2c0,0,0,0,0,0c0,0,0,0,0,0l0,0l-2.6,0.5c0,0-0.1,0-0.1,0.1v12.8
		c0,0,0,0.1,0.1,0.1h2.8c0,0,0.1,0,0.1-0.1l0-8.5c0.3-1.1,1.3-1.9,2.4-1.9c0.3,0,0.7,0.2,1,0.3L47.7,15.5z"/>
	<path class="st0" d="M92,17c-0.5-0.4-1.3-0.7-2.1-0.9c0.8-0.3,1.4-0.7,1.7-1c1-0.9,1.2-2.1,1.2-2.8c0-1.4-0.7-2.7-1.9-3.5
		c-1.5-1-3.3-1-4.9-1H82c0,0-0.1,0-0.1,0.1v17.7c0,0,0,0.1,0.1,0.1h4.6c2.5,0,4.3-0.1,5.7-1.4c0.9-0.8,1.4-2.1,1.4-3.5
		C93.6,19.1,93,17.8,92,17 M84.1,9.6h2.4l0.5,0c0.8,0,1.6,0.1,2.4,0.7c0.6,0.5,1,1.4,1,2.3c0,0.9-0.3,1.7-0.9,2.2
		c-0.8,0.7-1.8,0.7-2.3,0.7h-3.1V9.6z M90.4,23c-0.7,0.6-1.8,0.7-2.6,0.7h-3.7v-6.5h3.1c1,0,2.2,0,3,0.6c0.4,0.3,1.1,1.1,1.1,2.8
		C91.3,22,90.7,22.7,90.4,23"/>
	<path class="st0" d="M111.7,12.3c-0.7,0-1.5,0.2-2.2,0.6c-0.7,0.3-1.3,0.8-1.8,1.3v-1.9c0,0,0,0,0,0c0,0,0,0,0,0h0l-2,0.4
		c0,0-0.1,0-0.1,0.1v12.8c0,0,0,0.1,0.1,0.1h2c0,0,0.1,0,0.1-0.1v-9.6c0.5-0.5,1-0.9,1.6-1.2c0.7-0.4,1.3-0.6,1.9-0.6
		c0.6,0,1.1,0.2,1.4,0.5c0.5,0.5,0.4,1.3,0.4,2v8.8c0,0,0,0.1,0.1,0.1h2c0,0,0.1,0,0.1-0.1v-9.8c0-0.3,0-0.8-0.3-1.5
		C114.4,13.3,113.4,12.3,111.7,12.3"/>
	<path class="st0" d="M121.4,18.2l5.3-5.9c0,0,0,0,0-0.1c0,0,0,0-0.1,0h-2.5c0,0,0,0,0,0l-5.2,5.9V7.8c0,0,0,0,0-0.1c0,0,0,0,0,0h0
		l-2,0.4c0,0-0.1,0-0.1,0.1v17.4c0,0,0,0.1,0.1,0.1h2c0,0,0.1,0,0.1-0.1v-7.2l5.9,7.2c0,0,0,0,0,0h2.7c0,0,0,0,0.1,0
		c0,0,0-0.1,0-0.1L121.4,18.2z"/>
	<path class="st0" d="M100.1,12.2c-0.9,0-1.9,0.2-2.8,0.5c-0.4,0.1-0.7,0.3-1.1,0.5c0,0,0,0,0,0l-0.4,2.2c0,0,0,0.1,0,0.1
		c0,0,0,0,0,0c0,0,0,0,0,0c0.6-0.4,1.1-0.7,1.8-1c0.3-0.1,1.3-0.5,2.3-0.5c0.5,0,1.2,0.1,1.6,0.6c0.4,0.5,0.4,1,0.4,1.5v1.3
		c-0.2,0-0.5,0-0.8,0c-1.5,0-3.5,0.2-5,1.2c-1.2,0.8-1.9,2-1.9,3.5c0,2.3,1.6,3.7,4.2,3.7c0.8,0,2.1-0.1,3.4-1.4v1.3
		c0,0,0,0.1,0.1,0.1h2c0,0,0.1,0,0.1-0.1v-9.2c0-0.1,0-0.2,0-0.4c0-0.6,0-1.3-0.2-1.9C103.5,13.5,102.7,12.2,100.1,12.2 M101.8,22.3
		c-0.8,1.4-2.1,1.9-3.1,1.9c-0.6,0-1.2-0.2-1.6-0.6c-0.2-0.2-0.5-0.7-0.5-1.7c0-0.9,0.3-1.6,0.8-2.1c0.8-0.8,2.6-0.9,3.5-0.9
		c0.3,0,0.5,0,0.7,0l0.2,0V22.3z"/>
	<path class="st0" d="M133.1,12.2c-0.9,0-1.9,0.2-2.8,0.5c-0.3,0.1-0.7,0.3-1.1,0.5c0,0,0,0,0,0l-0.4,2.2c0,0,0,0.1,0,0.1
		c0,0,0,0,0,0c0,0,0,0,0.1,0c0.6-0.4,1.1-0.7,1.8-1c0.3-0.1,1.3-0.5,2.3-0.5c0.5,0,1.1,0.1,1.6,0.6c0.4,0.5,0.4,1,0.4,1.5v1.3
		c-0.2,0-0.5,0-0.8,0c-1.5,0-3.5,0.2-5,1.2c-1.2,0.8-1.9,2-1.9,3.5c0,2.3,1.6,3.7,4.2,3.7c0.8,0,2.1-0.1,3.4-1.4v1.3
		c0,0,0,0.1,0.1,0.1h2c0,0,0.1,0,0.1-0.1v-9.2c0-0.1,0-0.2,0-0.4c0-0.6,0-1.3-0.2-1.9C136.5,13.5,135.6,12.2,133.1,12.2 M134.8,22.3
		c-0.7,1.4-2.1,1.9-3.1,1.9c-0.7,0-1.2-0.2-1.6-0.6c-0.2-0.2-0.5-0.7-0.5-1.7c0-0.9,0.3-1.6,0.8-2.1c0.8-0.8,2.6-0.9,3.5-0.9
		c0.3,0,0.5,0,0.7,0l0.2,0V22.3z"/>
	<path class="st0" d="M144.6,18.1l-1.7-0.4c-1.3-0.3-1.9-0.8-1.9-1.8c0-1.2,0.9-2,2.3-2c0.9,0,1.8,0.2,3.1,0.9c0,0,0,0,0,0h0
		c0,0,0,0,0,0l0.7-1.4c0,0,0-0.1,0-0.1c-1.1-0.6-2.5-1-3.9-1c-2.7,0-4.6,1.6-4.6,3.9c0,1.9,1.1,3.1,3.1,3.5l1.6,0.3
		c1.5,0.3,2.2,1,2.2,2.1c0,1.3-1,2.1-2.5,2.1c-1.2,0-2.6-0.4-4-1.2c0,0,0,0,0,0s0,0,0,0c0,0,0,0,0,0l-0.7,1.5c0,0,0,0.1,0,0.1
		c1.4,0.8,3.1,1.3,4.7,1.3c3,0,5-1.7,5-4.2C147.9,19.8,146.8,18.6,144.6,18.1"/>
	<path class="st0" d="M151,12.2C151,12.2,151,12.2,151,12.2L151,12.2l-2.1,0.3c0,0-0.1,0-0.1,0.1v12.8c0,0,0,0.1,0.1,0.1h2
		c0,0,0.1,0,0.1-0.1L151,12.2C151.1,12.3,151.1,12.3,151,12.2"/>
	<path class="st1" d="M6.6,16.4c0.3-0.3,0.2-0.7,0-1c-0.1-0.1-0.2-0.3-0.3-0.3l-1.5,1.2l0.9,0.8L6.6,16.4z"/>
	<path class="st2" d="M6.4,22.8c0,0,0.1,0.1,0.1,0.1c0,0,0.1,0,0.2,0c0.1,0,0.1,0,0.2,0c0,0,0.1-0.1,0.1-0.1c0,0,0.1-0.1,0.1-0.1
		c0,0,0-0.1,0-0.2v-1.7v-1.6c0-0.2,0-0.5-0.1-0.7c-0.1-0.2-0.2-0.4-0.4-0.5l-5.9-5c0,0-0.1-0.1-0.1-0.1c-0.1,0-0.1,0-0.2,0
		s-0.1,0-0.2,0C0.2,13,0.2,13,0.1,13c0,0-0.1,0.1-0.1,0.1c0,0.1,0,0.1,0,0.2v3.3c0,0.2,0,0.5,0.1,0.7c0.1,0.2,0.2,0.4,0.4,0.5
		L6.4,22.8z"/>
	<path class="st1" d="M1.8,18.9L1.8,18.9l-1.2,1c-0.1,0.1-0.2,0.2-0.2,0.4v0.1l0,0c0,0,0,0,0,0c0,0,0,0,0,0c0,0,0,0.1,0,0.1
		c0,0,0,0,0,0c0,0,0,0.1,0,0.1l0,0c0,0,0,0.1,0.1,0.1c0,0,0,0,0,0c0,0,0.1,0.1,0.1,0.1c0,0,0.1,0.1,0.1,0.1c0,0,0,0,0,0
		c0,0,0,0.1,0.1,0.1c0.1,0.1,0.1,0.1,0.1,0.1l1.8-1.5v0L1.8,18.9z"/>
	<path class="st2" d="M7,26.6c-0.1-0.2-0.2-0.4-0.4-0.5l-5.7-4.8c0,0-0.1-0.1-0.1-0.1l0,0c0,0,0,0-0.1-0.1c0,0,0,0,0,0
		c0,0,0-0.1-0.1-0.1c0,0,0-0.1-0.1-0.1c0,0,0,0,0,0c0,0,0-0.1-0.1-0.1l0,0c0,0,0-0.1,0-0.1c0,0,0,0,0,0c0,0,0-0.1,0-0.1l0,0
		c0,0,0,0,0,0c0,0,0,0,0,0l0,0v-0.1c0-0.1,0.1-0.2,0.2-0.4l-0.1,0c0,0,0,0,0,0c-0.1,0.1-0.2,0.2-0.3,0.4l0,0c-0.1,0.2-0.2,0.6-0.2,1
		c0,0.1,0,0.1,0,0.2c0,0.1,0,0.1,0,0.2c0,0,0,3.9,0,3.9c0,0.2,0.1,0.5,0.1,0.7c0.1,0.2,0.2,0.4,0.4,0.5l5.9,5c0,0,0.1,0.1,0.1,0.1
		c0.1,0,0.1,0,0.2,0c0.1,0,0.1,0,0.2,0c0,0,0.1-0.1,0.1-0.1c0,0,0.1-0.1,0.1-0.1c0,0,0-0.1,0-0.2v-4.3C7.1,27,7.1,26.8,7,26.6"/>
	<path class="st2" d="M7,10.1C6.9,9.9,6.8,9.7,6.6,9.5l-5.9-5c0,0-0.1-0.1-0.1-0.1c-0.1,0-0.1,0-0.2,0c-0.1,0-0.1,0-0.2,0
		c-0.1,0-0.1,0-0.1,0.1c0,0-0.1,0.1-0.1,0.1c0,0.1,0,0.1,0,0.2V7v2.2c0,0.2,0,0.5,0.1,0.7c0.1,0.2,0.2,0.4,0.4,0.5l5.7,4.8
		c0,0,0.1,0,0.1,0.1c0,0,0.1,0.1,0.2,0.2c0.1,0.1,0.2,0.3,0.2,0.5c0,0.2,0,0.3-0.2,0.5c0,0,0.2-0.1,0.3-0.5l0,0
		c0.1-0.2,0.2-0.6,0.2-1c0-0.1,0-0.1,0-0.2c0-0.1,0-0.1,0-0.2v-1.9c0-1,0-1.9,0-1.9C7.1,10.5,7.1,10.3,7,10.1"/>
	<path class="st1" d="M9,22.9v3l1.2-1v-3L10,22l-1,0.8C9,22.8,9,22.9,9,22.9"/>
	<path class="st1" d="M10.1,14.5L10.1,14.5l-1.1,0.9c0,0-0.1,0.1-0.1,0.1l0,0v2.5l1.2-1V14.5z"/>
	<path class="st2" d="M15.2,15.5c0.1-0.2,0.2-0.4,0.2-0.7v-10c0-0.1,0-0.1,0-0.2c0-0.1-0.1-0.1-0.1-0.1c0,0-0.1-0.1-0.1-0.1
		c-0.1,0-0.1,0-0.2,0s-0.1,0-0.2,0c-0.1,0-0.1,0.1-0.1,0.1l-5.9,5c-0.2,0.2-0.3,0.3-0.4,0.5c-0.1,0.2-0.1,0.4-0.1,0.7V15
		c0,0.1,0,0.1,0,0.2c0,0.1,0.1,0.1,0.1,0.1c0,0,0.1,0.1,0.1,0.1c0.1,0,0.1,0,0.2,0c0.1,0,0.1,0,0.2,0c0,0,0,0,0,0c0,0,0.1,0,0.1-0.1
		l1-0.8l3.5-3c0,0,0.1-0.1,0.1-0.1c0.1,0,0.1,0,0.2,0c0.1,0,0.1,0,0.2,0c0.1,0,0.1,0.1,0.1,0.1c0,0,0.1,0.1,0.1,0.1c0,0,0,0.1,0,0.2
		v0.8c0,0.2-0.1,0.5-0.1,0.7c-0.1,0.2-0.2,0.4-0.4,0.5l-3.7,3.1v0l-1.2,1L8.8,18c-0.2,0.2-0.3,0.3-0.4,0.5c-0.1,0.2-0.1,0.4-0.1,0.7
		v3.3c0,0.1,0,0.1,0,0.2c0,0.1,0.1,0.1,0.1,0.1c0,0,0.1,0.1,0.1,0.1c0.1,0,0.1,0,0.2,0c0.1,0,0.1,0,0.2,0c0,0,0,0,0,0
		c0,0,0.1,0,0.1-0.1l1-0.8l3.5-3c0,0,0.1-0.1,0.1-0.1c0.1,0,0.1,0,0.2,0c0.1,0,0.1,0,0.2,0s0.1,0.1,0.1,0.1c0,0,0.1,0.1,0.1,0.1
		c0,0,0,0.1,0,0.2v1.3c0,0.2,0,0.5-0.1,0.7c-0.1,0.2-0.2,0.4-0.4,0.5L8.8,26c-0.2,0.2-0.3,0.3-0.4,0.5c-0.1,0.2-0.1,0.4-0.1,0.7v4.3
		c0,0.1,0,0.1,0,0.2c0,0.1,0.1,0.1,0.1,0.1c0,0,0.1,0.1,0.1,0.1c0.1,0,0.1,0,0.2,0c0.1,0,0.1,0,0.2,0c0.1,0,0.1-0.1,0.1-0.1l5.9-5
		c0.2-0.2,0.3-0.3,0.4-0.6c0.1-0.2,0.1-0.4,0.1-0.7v-9.4c0,0,0-0.1,0-0.1c0,0,0-0.1-0.1-0.1c0,0-0.1-0.1-0.1-0.1c-0.1,0-0.1,0-0.2,0
		c-0.1,0-0.1,0-0.2,0c-0.1,0-0.1,0-0.1,0C15,15.8,15.1,15.7,15.2,15.5"/>
	<path class="st2" d="M7.1,2.4C7.1,2.4,7.1,2.4,7.1,2.4L4.3,0c0,0,0,0-0.1,0c0,0,0,0-0.1,0c0,0,0,0,0,0c0,0,0,0,0,0
		C4.1,0,4,0.1,4,0.1c0,0,0,0.1,0,0.1v1.7C4,2,4,2,4,2C4,2,4,2.1,4,2.1l0.9,0.7v1.6L4.6,4.2c0,0,0,0-0.1,0c0,0,0,0-0.1,0c0,0,0,0,0,0
		c0,0,0,0,0,0c0,0-0.1,0.1-0.1,0.1c0,0,0,0.1,0,0.1v1.6c0,0,0,0.1,0,0.1c0,0,0,0,0.1,0.1l2,1.7c0,0,0,0,0.1,0c0,0,0,0,0.1,0
		c0,0,0,0,0,0c0,0,0,0,0,0c0,0,0.1,0,0.1-0.1c0,0,0-0.1,0-0.1V6c0,0,0-0.1,0-0.1c0,0,0-0.1-0.1-0.1L6.2,5.5V3.9l0.6,0.5
		c0,0,0,0,0.1,0c0,0,0,0,0.1,0c0,0,0,0,0,0c0,0,0,0,0,0c0,0,0.1,0,0.1-0.1c0,0,0-0.1,0-0.1L7.1,2.4C7.1,2.5,7.1,2.5,7.1,2.4"/>
	<path class="st2" d="M11.4,2.1C11.4,2.1,11.4,2.1,11.4,2.1C11.5,2,11.5,2,11.5,2V0.2c0,0,0-0.1,0-0.1c0,0,0-0.1-0.1-0.1
		c0,0,0,0,0,0c0,0,0,0,0,0c0,0,0,0-0.1,0c0,0,0,0-0.1,0L8.4,2.4c0,0,0,0-0.1,0.1c0,0,0,0.1,0,0.1V8c0,0,0,0.1,0,0.1
		c0,0,0.1,0.1,0.1,0.1c0,0,0,0,0,0c0,0,0,0,0,0c0,0,0,0,0.1,0c0,0,0,0,0.1,0l2.7-2.3c0,0,0,0,0.1-0.1c0,0,0-0.1,0-0.1V4.1
		c0,0,0-0.1,0-0.1c0,0,0-0.1-0.1-0.1c0,0,0,0,0,0c0,0,0,0,0,0c0,0,0,0-0.1,0c0,0,0,0-0.1,0L9.6,5.2V3.6L11.4,2.1z"/>
</g>
</svg>
