<?xml version="1.0" encoding="utf-8"?>
<!-- Generator: Adobe Illustrator 16.0.0, SVG Export Plug-In . SVG Version: 6.00 Build 0)  -->
<!DOCTYPE svg PUBLIC "-//W3C//DTD SVG 1.1//EN" "http://www.w3.org/Graphics/SVG/1.1/DTD/svg11.dtd">
<svg version="1.1" id="Layer_1" xmlns="http://www.w3.org/2000/svg" xmlns:xlink="http://www.w3.org/1999/xlink" x="0px" y="0px"
	 width="106.126px" height="106.12px" viewBox="0 0 106.126 106.12" enable-background="new 0 0 106.126 106.12"
	 xml:space="preserve">
<g>
	<path fill="#EC2427" d="M67.127,51.691c0.352,7.595-5.518,14.05-13.115,14.399c-7.594,0.359-14.05-5.509-14.405-13.11
		c-0.356-7.597,5.514-14.046,13.116-14.404C60.317,38.221,66.768,44.093,67.127,51.691"/>
	<path fill="#28B4E9" d="M70.347,51.538c-0.237-4.974-2.128-9.456-4.395-17.821c-5.406-19.955-0.2-18.466-0.2-18.466
		s-0.415-0.314-10.433-0.059c-2.479,0.061-6.593,0.654-9.267,3.424c-2.543,2.636-5.118,8.257-6.97,14.743
		c-1.841,6.428-2.979,13.705-2.696,19.773c0.433,9.261,8.402,16.625,17.781,16.185C63.54,68.879,70.784,60.84,70.347,51.538
		 M54.012,66.09c-7.595,0.359-14.05-5.509-14.404-13.11c-0.357-7.597,5.513-14.046,13.115-14.404
		c7.595-0.355,14.045,5.517,14.404,13.115C67.479,59.288,61.609,65.742,54.012,66.09"/>
	<path fill="#8FD8F8" d="M65.752,15.251c0,0-2.979-0.853-2.088,7.38c0.826,0.664,1.681,1.397,2.572,2.203
		c4.599,4.185,8.182,11.695,8.182,11.695s-0.375-6.954-1.76-12.346c-1.925-7.456-6.137-8.759-6.918-8.936
		C65.75,15.251,65.752,15.251,65.752,15.251"/>
	<path fill="#71A0CB" d="M15.875,63.445c0,0,1.012,2.928,7.241-2.52c0.067-1.057,0.176-2.18,0.33-3.37
		c0.795-6.168,4.888-13.411,4.888-13.411s-5.483,4.289-9.107,8.522c-5.033,5.88-3.636,10.095-3.343,10.801
		C15.875,63.449,15.875,63.445,15.875,63.445"/>
	<path fill="#419A45" d="M87.57,56.911c-2.368-4.85-10.823-11.984-19.785-16.833c1.384,4.626,2.399,7.921,2.562,11.46
		c0.438,9.303-6.808,17.342-16.179,17.781c-0.949,0.043-1.874,0.005-2.779-0.099c3.915,0.684,8.375,0.651,15.188,1.23
		C87.175,72.192,84,76.579,84,76.579s0.434-0.284,3.621-9.785C88.411,64.444,89.259,60.373,87.57,56.911"/>
	<path fill="#9BC38F" d="M83.999,76.579c0,0,1.815-2.514-6.222-4.492c-0.901,0.554-1.891,1.109-2.946,1.668
		c-5.509,2.886-13.787,3.686-13.787,3.686s6.653,2.029,12.199,2.573C80.888,80.755,83.555,77.262,83.999,76.579"/>
	<polygon fill="#FFFFFF" points="59.233,49.226 60.751,51.304 63.201,50.505 61.686,52.585 63.204,54.659 60.757,53.872 
		59.251,55.953 59.247,53.383 56.803,52.594 59.244,51.801 	"/>
	<path fill="#FFFFFF" d="M52.769,58.203c-3.036-0.005-5.507-2.527-5.496-5.643c0.002-3.109,2.475-5.625,5.513-5.621
		c1.885,0,3.543,0.972,4.532,2.445c-1.154-2.264-3.49-3.817-6.18-3.825c-3.849-0.003-6.971,3.152-6.982,7.045
		c-0.004,3.898,3.105,7.057,6.962,7.065c2.846,0.003,5.294-1.719,6.375-4.194C56.528,57.112,54.772,58.203,52.769,58.203"/>
	<path fill="#EC2427" d="M53.067,0C23.76,0,0,23.753,0,53.062c0,29.304,23.76,53.058,53.067,53.058
		c29.305,0,53.059-23.754,53.059-53.058C106.126,23.753,82.372,0,53.067,0 M53.067,95.087c-23.211,0-42.03-18.818-42.03-42.026
		c0-23.209,18.819-42.027,42.03-42.027c23.208,0,42.028,18.818,42.028,42.027C95.095,76.269,76.274,95.087,53.067,95.087"/>
	<path fill="#FFFFFF" d="M7.578,68.489c0.586-0.2,1.305-0.43,2.025-0.646L9.599,67.83c-0.682,0.021-1.45,0.025-2.093,0.006
		l-2.109-0.03l-0.261-0.879l1.759-1.095c0.544-0.336,1.2-0.707,1.812-1.024l-0.003-0.013c-0.678,0.175-1.456,0.373-2.079,0.522
		l-1.91,0.46l-0.309-1.038l5.057-1.146l0.439,1.496l-1.514,0.973c-0.526,0.337-1.104,0.661-1.651,0.946l0.009,0.028
		c0.611-0.037,1.32-0.063,1.921-0.053l1.805,0.037l0.433,1.47l-4.887,1.729l-0.321-1.092L7.578,68.489z"/>
	
		<rect x="6.705" y="70.714" transform="matrix(0.9255 -0.3788 0.3788 0.9255 -26.3126 8.8312)" fill="#FFFFFF" width="5.172" height="1.165"/>
	<path fill="#FFFFFF" d="M7.777,74.402l4.59-2.384l0.629,1.214l-1.183,1.826c-0.345,0.525-0.786,1.086-1.189,1.566l0.007,0.012
		c0.572-0.373,1.184-0.717,1.873-1.075l1.338-0.694l0.495,0.954l-4.593,2.382l-0.563-1.091l1.262-1.896
		c0.351-0.528,0.782-1.145,1.208-1.64l-0.012-0.025c-0.598,0.351-1.235,0.702-1.986,1.09l-1.382,0.717L7.777,74.402z"/>
	
		<rect x="10.57" y="78.17" transform="matrix(0.8434 -0.5373 0.5373 0.8434 -40.2546 19.4052)" fill="#FFFFFF" width="5.18" height="1.17"/>
	<path fill="#FFFFFF" d="M13.2,81.341c0.058,0.345,0.222,0.832,0.521,1.231c0.325,0.427,0.67,0.523,0.943,0.321
		c0.253-0.2,0.253-0.504,0.054-1.13c-0.268-0.872-0.231-1.612,0.37-2.063c0.707-0.527,1.688-0.334,2.418,0.636
		c0.356,0.472,0.512,0.88,0.581,1.212l-0.906,0.353c-0.04-0.219-0.147-0.606-0.448-1.007c-0.304-0.405-0.642-0.456-0.848-0.302
		c-0.265,0.201-0.21,0.514-0.009,1.204c0.282,0.938,0.154,1.556-0.425,1.994c-0.701,0.522-1.683,0.435-2.535-0.694
		c-0.356-0.48-0.578-1.041-0.62-1.366L13.2,81.341z"/>
	<polygon fill="#FFFFFF" points="18.974,83.787 18.033,82.757 18.754,82.094 21.441,85.027 20.716,85.692 19.767,84.648 
		16.673,87.479 15.884,86.617 	"/>
	<path fill="#FFFFFF" d="M21.998,85.66c0.324,0.205,0.769,0.537,1.238,0.957c0.574,0.512,0.898,0.95,0.976,1.41
		c0.075,0.396-0.044,0.784-0.36,1.139c-0.433,0.484-1.085,0.516-1.527,0.339l-0.015,0.016c0.175,0.352,0.099,0.731-0.12,1.176
		c-0.271,0.551-0.604,1.158-0.663,1.372l-0.897-0.794c0.046-0.166,0.227-0.562,0.537-1.136c0.327-0.583,0.268-0.86-0.083-1.187
		l-0.259-0.229l-1.354,1.52l-0.864-0.774L21.998,85.66z M21.387,88.093l0.344,0.304c0.436,0.389,0.888,0.403,1.187,0.062
		c0.311-0.355,0.234-0.744-0.166-1.103c-0.208-0.19-0.347-0.285-0.423-0.327L21.387,88.093z"/>
	<path fill="#FFFFFF" d="M23.493,93.541l1.235-1.72l0.457-3.435l1.092,0.782l-0.3,1.317c-0.089,0.397-0.161,0.69-0.253,1.035
		l0.007,0.009c0.285-0.196,0.56-0.366,0.896-0.579l1.146-0.7l1.073,0.765l-3.145,1.456l-1.256,1.746L23.493,93.541z"/>
	<path fill="#FFFFFF" d="M32.47,97.302c-0.597,1.148-1.64,1.483-2.666,0.952c-1.033-0.535-1.24-1.635-0.719-2.635
		c0.54-1.042,1.617-1.477,2.646-0.944C32.804,95.228,32.969,96.333,32.47,97.302 M29.923,96.039
		c-0.356,0.688-0.283,1.336,0.247,1.612c0.533,0.273,1.101-0.072,1.454-0.753c0.327-0.633,0.311-1.326-0.235-1.606
		C30.85,95.015,30.275,95.36,29.923,96.039"/>
	<polygon fill="#FFFFFF" points="34.186,95.95 36.401,96.87 36.124,97.542 34.729,96.958 34.382,97.793 35.687,98.331 
		35.411,98.999 34.105,98.459 33.498,99.919 32.682,99.582 	"/>
	<path fill="#FFFFFF" d="M42.11,101.936c-0.225,0.04-0.737,0.033-1.333-0.126c-1.726-0.465-2.327-1.785-1.945-3.206
		c0.457-1.711,1.923-2.321,3.437-1.918c0.585,0.16,0.999,0.388,1.169,0.557l-0.478,0.825c-0.194-0.159-0.491-0.337-0.892-0.444
		c-0.893-0.236-1.733,0.116-2.031,1.23c-0.269,0.998,0.154,1.787,1.156,2.057c0.35,0.094,0.732,0.127,0.99,0.094L42.11,101.936z"/>
	<path fill="#FFFFFF" d="M45.52,97.448l-0.434,2.938c-0.13,0.888,0.141,1.388,0.727,1.473c0.611,0.09,1.007-0.283,1.141-1.192
		l0.438-2.941l1.152,0.174l-0.426,2.866c-0.236,1.578-1.142,2.209-2.476,2.016c-1.292-0.19-1.936-1.026-1.694-2.646l0.421-2.856
		L45.52,97.448z"/>
	<path fill="#FFFFFF" d="M49.654,101.943c0.298,0.177,0.784,0.354,1.278,0.374c0.537,0.02,0.83-0.188,0.842-0.529
		c0.017-0.318-0.222-0.515-0.834-0.75c-0.847-0.342-1.399-0.837-1.368-1.593c0.03-0.883,0.794-1.521,2.014-1.472
		c0.587,0.023,1.009,0.154,1.31,0.312l-0.301,0.925c-0.193-0.105-0.565-0.267-1.059-0.288c-0.512-0.016-0.766,0.21-0.775,0.47
		c-0.012,0.333,0.263,0.487,0.933,0.767c0.901,0.371,1.303,0.864,1.271,1.591c-0.034,0.866-0.72,1.577-2.139,1.524
		c-0.589-0.021-1.165-0.207-1.449-0.384L49.654,101.943z"/>
	<polygon fill="#FFFFFF" points="55.189,99.006 53.798,99.091 53.735,98.107 57.709,97.875 57.763,98.854 56.357,98.938 
		56.602,103.121 55.438,103.189 	"/>
	<path fill="#FFFFFF" d="M63.409,99.535c0.282,1.681-0.558,2.855-2.056,3.11c-1.504,0.25-2.594-0.742-2.837-2.201
		c-0.26-1.528,0.534-2.841,2.031-3.09C62.117,97.092,63.169,98.117,63.409,99.535 M59.732,100.211
		c0.17,1.014,0.758,1.635,1.53,1.503c0.777-0.133,1.097-0.944,0.935-1.938c-0.157-0.923-0.723-1.636-1.519-1.504
		C59.894,98.404,59.562,99.225,59.732,100.211"/>
	<path fill="#FFFFFF" d="M69.028,98.568c-0.208-0.586-0.458-1.298-0.685-2.011l-0.009,0.001c0.032,0.685,0.047,1.448,0.04,2.086
		l0.003,2.116l-0.869,0.277l-1.128-1.739c-0.345-0.536-0.727-1.191-1.052-1.794l-0.015,0.002c0.184,0.679,0.399,1.446,0.56,2.07
		l0.498,1.904l-1.034,0.322l-1.24-5.03l1.483-0.47l1.002,1.498c0.343,0.521,0.686,1.089,0.979,1.63l0.029-0.009
		c-0.049-0.607-0.087-1.315-0.094-1.918l0.006-1.802l1.464-0.461l1.816,4.851l-1.084,0.342L69.028,98.568z"/>
	<path fill="#FFFFFF" d="M71.902,98.285c0.346,0.021,0.859-0.036,1.315-0.245c0.483-0.227,0.65-0.549,0.513-0.853
		c-0.132-0.294-0.432-0.359-1.089-0.298c-0.909,0.081-1.624-0.116-1.935-0.799c-0.371-0.801,0.026-1.724,1.129-2.226
		c0.542-0.245,0.97-0.318,1.31-0.313l0.159,0.959c-0.229-0.005-0.635,0.017-1.086,0.222c-0.461,0.213-0.585,0.531-0.474,0.772
		c0.136,0.298,0.458,0.313,1.175,0.261c0.971-0.073,1.555,0.185,1.859,0.845c0.354,0.789,0.065,1.736-1.231,2.325
		c-0.532,0.251-1.131,0.35-1.463,0.318L71.902,98.285z"/>
	<path fill="#FFFFFF" d="M78.852,95.242l0.304,1.002l-0.776,0.493l-1.094-3.962l0.984-0.626l3.141,2.665l-0.807,0.52l-0.803-0.694
		L78.852,95.242z M79.338,94.144l-0.654-0.565c-0.186-0.166-0.4-0.375-0.573-0.537l-0.014,0.004c0.08,0.231,0.188,0.511,0.255,0.738
		l0.25,0.829L79.338,94.144z"/>
	<path fill="#FFFFFF" d="M82.361,94.143L79.96,91.03l0.827-0.632l1.523,0.643c0.438,0.184,0.914,0.433,1.329,0.673l0.006-0.006
		c-0.353-0.38-0.69-0.788-1.053-1.263l-0.702-0.902l0.647-0.498l2.4,3.12L84.2,92.728l-1.595-0.69
		c-0.437-0.188-0.959-0.431-1.385-0.687l-0.018,0.019c0.345,0.397,0.688,0.831,1.08,1.338L83,93.645L82.361,94.143z"/>
	<path fill="#FFFFFF" d="M83.39,88.404c0.2-0.263,0.486-0.578,0.813-0.878c0.551-0.513,1.009-0.746,1.473-0.797
		c0.502-0.056,1.021,0.125,1.494,0.633c0.508,0.549,0.662,1.119,0.606,1.61c-0.066,0.532-0.422,1.085-0.987,1.608
		c-0.336,0.313-0.598,0.52-0.775,0.644L83.39,88.404z M86.215,90.144c0.068-0.039,0.159-0.128,0.237-0.202
		c0.602-0.545,0.687-1.229,0.046-1.921c-0.554-0.596-1.199-0.585-1.764-0.063c-0.142,0.135-0.229,0.238-0.269,0.301L86.215,90.144z"
		/>
	<polygon fill="#FFFFFF" points="87.887,82.949 86.997,84.023 86.24,83.395 88.774,80.337 89.538,80.965 88.635,82.05 
		91.863,84.721 91.117,85.622 	"/>
	<path fill="#FFFFFF" d="M89.338,79.689c0.155-0.348,0.421-0.83,0.771-1.354c0.43-0.644,0.82-1.024,1.27-1.17
		c0.376-0.123,0.775-0.059,1.177,0.211c0.543,0.356,0.658,0.998,0.543,1.458l0.021,0.011c0.318-0.216,0.713-0.198,1.178-0.036
		c0.581,0.194,1.231,0.443,1.456,0.469l-0.672,0.993c-0.168-0.018-0.586-0.142-1.197-0.376c-0.617-0.241-0.888-0.15-1.163,0.251
		l-0.191,0.286l1.689,1.132l-0.645,0.959L89.338,79.689z M91.829,79.958l0.252-0.382c0.327-0.483,0.278-0.933-0.101-1.186
		c-0.39-0.26-0.771-0.129-1.068,0.323c-0.16,0.231-0.236,0.372-0.267,0.46L91.829,79.958z"/>
	<path fill="#FFFFFF" d="M95.874,76.298l1.012,0.939l-0.549,1.075l-3.875-3.771l0.698-1.365l5.34,0.934l-0.582,1.13l-1.36-0.256
		L95.874,76.298z M95.698,74.735l-1.124-0.222c-0.313-0.056-0.698-0.15-1.004-0.224l-0.01,0.018c0.24,0.206,0.551,0.457,0.78,0.663
		l0.835,0.782L95.698,74.735z"/>
	<path fill="#FFFFFF" d="M94.314,70.965c0.085-0.421,0.236-0.967,0.437-1.515c0.346-0.921,0.746-1.465,1.259-1.798
		c0.562-0.36,1.278-0.458,2.135-0.142c0.927,0.345,1.439,0.919,1.667,1.524c0.232,0.67,0.145,1.531-0.208,2.482
		c-0.21,0.563-0.398,0.965-0.534,1.214L94.314,70.965z M98.675,71.341c0.051-0.084,0.108-0.248,0.155-0.376
		c0.38-0.996,0.078-1.856-1.084-2.285c-1.003-0.373-1.756,0.019-2.108,0.969c-0.087,0.24-0.123,0.413-0.141,0.516L98.675,71.341z"/>
	<polygon fill="#FFFFFF" points="99.72,63.445 99.252,65.292 100.447,65.583 100.961,63.526 101.891,63.755 101.092,66.953 
		96.074,65.7 96.849,62.612 97.776,62.843 97.29,64.8 98.332,65.06 98.791,63.213 	"/>
	<polygon fill="#FFFFFF" points="4.637,46.411 4.431,47.791 3.46,47.646 4.043,43.716 5.016,43.858 4.805,45.256 8.956,45.868 
		8.782,47.025 	"/>
	<path fill="#FFFFFF" d="M8.611,44.258c-0.413-0.085-0.641-0.424-0.557-0.823c0.086-0.388,0.416-0.601,0.841-0.519
		c0.402,0.083,0.632,0.412,0.545,0.828C9.361,44.129,9.01,44.344,8.611,44.258"/>
	<path fill="#FFFFFF" d="M10.638,38.441c0.035,0.226,0.012,0.731-0.161,1.324c-0.507,1.719-1.842,2.284-3.254,1.867
		c-1.694-0.502-2.273-1.981-1.828-3.484c0.167-0.579,0.405-0.994,0.577-1.16l0.814,0.498c-0.161,0.192-0.343,0.485-0.459,0.888
		c-0.265,0.887,0.073,1.734,1.176,2.06c0.994,0.295,1.794-0.111,2.083-1.105c0.103-0.349,0.146-0.731,0.117-0.988L10.638,38.441z"/>
	<path fill="#FFFFFF" d="M10.516,37.458c-0.396-0.146-0.565-0.518-0.422-0.898c0.145-0.371,0.504-0.527,0.911-0.382
		c0.379,0.146,0.559,0.512,0.412,0.904C11.274,37.446,10.896,37.605,10.516,37.458"/>
	<path fill="#FFFFFF" d="M14.479,29.943c-0.063,0.376-0.236,1.058-0.561,1.656c-0.441,0.837-0.974,1.327-1.599,1.528
		c-0.618,0.202-1.336,0.111-2.004-0.245c-1.515-0.819-1.789-2.387-0.992-3.881c0.317-0.588,0.672-0.976,0.897-1.148l0.711,0.664
		c-0.245,0.183-0.489,0.447-0.761,0.949c-0.458,0.862-0.329,1.772,0.667,2.306c0.949,0.504,1.813,0.203,2.268-0.641
		c0.122-0.231,0.194-0.435,0.207-0.533l-0.961-0.512l-0.375,0.701l-0.808-0.431l0.91-1.699L14.479,29.943z"/>
	<path fill="#FFFFFF" d="M19.891,20.207c-0.477-0.406-1.044-0.896-1.594-1.41l-0.016,0.011c0.376,0.577,0.768,1.232,1.079,1.795
		l1.056,1.828l-0.621,0.671l-1.841-0.945c-0.564-0.293-1.221-0.672-1.807-1.036l-0.01,0.014c0.498,0.488,1.062,1.053,1.514,1.515
		l1.381,1.407l-0.735,0.795L14.718,21.1l1.057-1.148l1.615,0.801c0.558,0.284,1.133,0.606,1.657,0.935l0.021-0.024
		c-0.348-0.507-0.729-1.102-1.035-1.621l-0.892-1.571l1.041-1.121l3.989,3.307l-0.771,0.83L19.891,20.207z"/>
	<path fill="#FFFFFF" d="M19.691,16.076c0.246-0.282,0.64-0.676,1.12-1.082c0.588-0.493,1.074-0.752,1.543-0.763
		c0.396-0.015,0.761,0.157,1.07,0.523c0.422,0.498,0.354,1.146,0.116,1.556l0.019,0.017c0.367-0.12,0.738,0.01,1.142,0.292
		c0.505,0.348,1.059,0.768,1.26,0.854l-0.912,0.771c-0.163-0.073-0.527-0.303-1.042-0.694c-0.54-0.407-0.816-0.395-1.191-0.09
		l-0.263,0.225l1.311,1.554l-0.891,0.747L19.691,16.076z M22.006,17.038l0.356-0.292c0.443-0.38,0.521-0.823,0.233-1.17
		c-0.308-0.362-0.71-0.34-1.119,0.006c-0.218,0.18-0.334,0.298-0.383,0.367L22.006,17.038z"/>
	<path fill="#FFFFFF" d="M28.767,9.48l1.032-0.527l1.042,2.039l0.012-0.009c0.011-0.229,0.039-0.45,0.063-0.667l0.256-2.065
		l1.285-0.654l-0.519,2.737l2.944,1.825l-1.207,0.622l-2.15-1.413l-0.138,0.686l0.763,1.506l-1.03,0.523L28.767,9.48z"/>
	<path fill="#FFFFFF" d="M36.753,7.44l1.039,1.485c0.189,0.278,0.343,0.53,0.495,0.796l0.02-0.008
		c-0.04-0.311-0.073-0.595-0.099-0.932l-0.103-1.808l1.163-0.394l-0.112,4.001l-1.104,0.376l-2.507-3.112L36.753,7.44z"/>
	<path fill="#FFFFFF" d="M41.594,8.307c0.143,0.461,0.667,0.573,1.197,0.449c0.387-0.099,0.688-0.224,0.972-0.405l0.333,0.737
		c-0.339,0.245-0.778,0.433-1.266,0.547c-1.238,0.3-2.122-0.249-2.397-1.39c-0.223-0.924,0.107-2.085,1.376-2.387
		c1.174-0.285,1.846,0.525,2.063,1.428c0.049,0.193,0.065,0.374,0.07,0.455L41.594,8.307z M42.74,7.211
		c-0.064-0.28-0.292-0.714-0.818-0.586c-0.474,0.119-0.563,0.602-0.525,0.906L42.74,7.211z"/>
	<polygon fill="#FFFFFF" points="47.301,4.527 45.913,4.669 45.811,3.692 49.761,3.276 49.867,4.251 48.458,4.404 48.905,8.566 
		47.74,8.686 	"/>
	<path fill="#FFFFFF" d="M57.318,8.394c-0.209,0.091-0.704,0.191-1.327,0.16c-1.785-0.086-2.651-1.252-2.577-2.719
		c0.091-1.765,1.391-2.676,2.954-2.601c0.605,0.031,1.063,0.17,1.261,0.294l-0.291,0.912c-0.227-0.114-0.553-0.224-0.97-0.246
		c-0.918-0.044-1.669,0.476-1.723,1.632C54.588,6.856,55.172,7.54,56.21,7.59c0.356,0.015,0.744-0.033,0.991-0.121L57.318,8.394z"/>
	<path fill="#FFFFFF" d="M59.732,7.525l-0.579,1.25l-1.188-0.19l2.385-4.854l1.515,0.246l0.756,5.364l-1.248-0.2l-0.183-1.379
		L59.732,7.525z M61.168,6.873l-0.142-1.134c-0.04-0.32-0.072-0.712-0.098-1.029l-0.015,0c-0.127,0.292-0.266,0.664-0.399,0.943
		l-0.478,1.038L61.168,6.873z"/>
	<path fill="#FFFFFF" d="M64.824,4.639c0.374,0.046,0.922,0.15,1.526,0.319c0.743,0.208,1.227,0.46,1.503,0.846
		c0.236,0.32,0.301,0.715,0.17,1.176c-0.18,0.625-0.748,0.94-1.221,0.977l-0.004,0.02c0.309,0.239,0.406,0.616,0.404,1.11
		c-0.005,0.611-0.036,1.305,0.002,1.524l-1.149-0.327c-0.034-0.164-0.05-0.601-0.016-1.253c0.034-0.665-0.134-0.888-0.6-1.024
		L65.114,7.91l-0.55,1.958l-1.12-0.311L64.824,4.639z M65.338,7.096l0.444,0.125c0.563,0.156,0.969-0.03,1.093-0.466
		c0.129-0.451-0.113-0.776-0.63-0.919c-0.277-0.078-0.433-0.108-0.526-0.108L65.338,7.096z"/>
	<polygon fill="#FFFFFF" points="71.646,9.993 69.876,9.293 69.429,10.438 71.405,11.218 71.054,12.11 67.99,10.905 69.884,6.09 
		72.846,7.259 72.497,8.153 70.618,7.41 70.224,8.41 72,9.11 	"/>
	<polygon fill="#FFFFFF" points="74.772,9.259 73.53,8.621 73.976,7.75 77.515,9.557 77.071,10.435 75.813,9.791 73.901,13.521 
		72.865,12.994 	"/>
	<path fill="#FFFFFF" d="M80.336,11.363c0.279,0.135,0.811,0.446,1.294,0.785c0.586,0.414,0.899,0.721,1.088,1.127
		c0.184,0.367,0.184,0.801-0.091,1.187c-0.261,0.372-0.725,0.56-1.328,0.404l-0.013,0.014c0.396,0.465,0.489,1.086,0.109,1.629
		c-0.277,0.386-0.665,0.561-1.079,0.59c-0.479,0.022-1.088-0.2-1.927-0.792c-0.472-0.336-0.801-0.613-0.99-0.798L80.336,11.363z
		 M78.812,15.523c0.081,0.077,0.198,0.162,0.356,0.276c0.434,0.302,0.938,0.404,1.254-0.038c0.295-0.424,0.033-0.86-0.444-1.199
		l-0.323-0.231L78.812,15.523z M80.133,13.648l0.317,0.227c0.508,0.355,0.915,0.336,1.138,0.022
		c0.222-0.322,0.103-0.663-0.332-0.966c-0.211-0.153-0.339-0.224-0.424-0.265L80.133,13.648z"/>
	<path fill="#FFFFFF" d="M83.029,18.134L81.87,18.88l-0.897-0.798l4.616-2.817l1.141,1.019l-2.235,4.937l-0.947-0.841l0.587-1.261
		L83.029,18.134z M84.589,18.357l0.488-1.036c0.136-0.291,0.321-0.639,0.47-0.917l-0.013-0.017c-0.26,0.182-0.578,0.425-0.844,0.589
		l-0.956,0.619L84.589,18.357z"/>
	<path fill="#FFFFFF" d="M88.934,18.385l0.771,0.864l-1.702,1.524l0.013,0.014c0.224-0.051,0.444-0.079,0.664-0.112l2.06-0.278
		l0.963,1.071l-2.782,0.201l-1.012,3.32l-0.905-1.01l0.808-2.446l-0.696,0.042l-1.255,1.13l-0.774-0.863L88.934,18.385z"/>
	<path fill="#FFFFFF" d="M90.141,25.798l-1.295,0.468l-0.698-0.982l5.131-1.712l0.886,1.25l-3.281,4.314l-0.737-1.031l0.856-1.103
		L90.141,25.798z M91.616,26.365l0.707-0.903c0.198-0.251,0.456-0.549,0.661-0.788l-0.009-0.016
		c-0.294,0.115-0.656,0.281-0.95,0.386l-1.075,0.384L91.616,26.365z"/>
	<path fill="#FFFFFF" d="M91.311,29.849l4.544-2.472l0.653,1.199l-1.152,1.847c-0.332,0.531-0.754,1.101-1.152,1.59l0.005,0.017
		c0.569-0.389,1.168-0.744,1.859-1.117l1.317-0.72l0.519,0.943l-4.544,2.475l-0.59-1.082l1.227-1.923
		c0.337-0.531,0.755-1.154,1.174-1.66l-0.013-0.025c-0.589,0.359-1.226,0.725-1.962,1.127l-1.366,0.743L91.311,29.849z"/>
	<polygon fill="#FFFFFF" points="98.625,32.731 99.069,33.809 95.191,35.406 95.975,37.311 95.07,37.682 93.842,34.701 	"/>
	<polygon fill="#FFFFFF" points="100.622,38.049 95.709,39.663 95.343,38.558 100.257,36.945 	"/>
	<path fill="#FFFFFF" d="M97.313,44.959c-0.202-0.321-0.52-0.95-0.676-1.614c-0.215-0.92-0.141-1.64,0.191-2.204
		c0.337-0.559,0.935-0.968,1.675-1.139c1.671-0.385,2.915,0.61,3.3,2.259c0.155,0.65,0.142,1.181,0.091,1.454l-0.974-0.025
		c0.063-0.304,0.071-0.663-0.059-1.218c-0.221-0.946-0.921-1.542-2.021-1.29c-1.047,0.244-1.498,1.043-1.279,1.979
		c0.059,0.255,0.137,0.454,0.196,0.536l1.064-0.248l-0.188-0.778l0.894-0.205l0.438,1.876L97.313,44.959z M102.824,41.223
		c-0.162,0.059-0.315,0.204-0.242,0.519c0.074,0.314,0.266,0.398,0.456,0.395l0.132,0.578c-0.548,0.113-1.017-0.118-1.186-0.833
		c-0.172-0.732,0.154-1.124,0.694-1.267L102.824,41.223z"/>
	
		<rect x="97.275" y="45.75" transform="matrix(0.9899 -0.1419 0.1419 0.9899 -5.5643 14.6401)" fill="#FFFFFF" width="5.171" height="1.162"/>
	<path fill="#FFFFFF" d="M7.451,54.407c0,1.062-0.859,1.917-1.919,1.917c-1.058,0-1.914-0.855-1.914-1.917
		c0-1.057,0.856-1.919,1.914-1.919C6.592,52.487,7.451,53.35,7.451,54.407"/>
	<path fill="#FFFFFF" d="M103.055,54.407c0,1.062-0.855,1.917-1.918,1.917c-1.056,0-1.918-0.855-1.918-1.917
		c0-1.057,0.862-1.919,1.918-1.919C102.199,52.487,103.055,53.35,103.055,54.407"/>
	<polygon fill="#FFFFFF" points="13.966,23.107 13.444,22.72 12.781,23.674 13.309,24.071 	"/>
	<path fill="#FFFFFF" d="M15.82,24.386l-1.404-0.987l-0.659,0.958l1.452,1.022c0.755,0.531,0.913,1.051,0.557,1.555
		c-0.335,0.481-0.904,0.504-1.643-0.011l-1.426-1.002l-0.661,0.962l1.349,0.949c1.348,0.945,2.38,0.741,3.126-0.331
		C17.287,26.397,17.128,25.304,15.82,24.386"/>
	<polygon fill="#FFFFFF" points="12.246,25.63 11.691,25.22 11.024,26.177 11.591,26.593 	"/>
	<polygon fill="#FFFFFF" points="27.642,10.958 27.231,10.365 26.259,11.011 26.667,11.601 	"/>
	<polygon fill="#FFFFFF" points="25.092,12.638 24.687,12.054 23.717,12.702 24.119,13.283 	"/>
	<path fill="#FFFFFF" d="M28.84,12.778l-0.911-1.365l-0.972,0.641l0.948,1.43c0.511,0.764,0.467,1.309-0.042,1.648
		c-0.493,0.33-1.031,0.143-1.527-0.604l-0.953-1.434l-0.977,0.641l0.911,1.371c0.91,1.365,1.945,1.549,3.027,0.824
		C29.472,15.183,29.722,14.107,28.84,12.778"/>
	<polygon fill="#FFFFFF" points="52.176,3.958 52.159,3.212 50.998,3.247 51.007,4 	"/>
	<polygon fill="#FFFFFF" points="51.025,4.46 51.146,8.417 52.313,8.382 52.195,4.418 	"/>
	<path fill="#056AA6" d="M51.389,69.219h0.002c-8.128-0.964-14.609-7.757-15.005-16.087c-0.109-2.403,0.002-4.997,0.287-7.651
		c-1.613,2.021-3.431,4.386-5.786,7.204c-13.248,15.883-15.013,10.76-15.013,10.76s-0.021,0.519,5.935,8.579
		c1.468,1.991,4.316,5.029,8.121,5.629c5.806,0.918,17.961-2.522,27.513-7.806C55.181,69.706,53.219,69.537,51.389,69.219"/>
</g>
</svg>
