<?xml version="1.0" encoding="UTF-8"?>
<svg xmlns="http://www.w3.org/2000/svg" xmlns:xlink="http://www.w3.org/1999/xlink" width="324.43pt" height="51.29pt" viewBox="0 0 324.43 51.29" version="1.1">
<defs>
<clipPath id="clip1">
  <path d="M 2 1 L 84 1 L 84 51.289063 L 2 51.289063 Z M 2 1 "/>
</clipPath>
<clipPath id="clip2">
  <path d="M 258 1 L 318 1 L 318 51.289063 L 258 51.289063 Z M 258 1 "/>
</clipPath>
<clipPath id="clip3">
  <path d="M 261 1 L 324.429688 1 L 324.429688 50 L 261 50 Z M 261 1 "/>
</clipPath>
</defs>
<g id="surface1">
<g clip-path="url(#clip1)" clip-rule="nonzero">
<path style=" stroke:none;fill-rule:evenodd;fill:rgb(41.999817%,27.799988%,58.799744%);fill-opacity:1;" d="M 3.601563 2.308594 L 23.113281 2.308594 C 24.191406 2.308594 25.632813 3.027344 25.917969 4.109375 L 31.609375 27.507813 L 34.488281 4.972656 C 34.703125 3.675781 35.570313 1.949219 36.863281 1.878906 L 52.054688 1.445313 C 53.136719 1.445313 54 2.8125 54.214844 3.894531 L 58.320313 26.070313 L 62.710938 3.75 C 62.855469 2.8125 63.648438 1.589844 64.585938 1.589844 L 81.648438 1.589844 C 82.585938 1.589844 83.230469 3.171875 83.015625 4.109375 L 73.222656 44.574219 C 72.863281 45.941406 72.144531 47.886719 70.703125 47.957031 L 53.640625 48.964844 C 52.414063 49.039063 50.398438 49.253906 50.113281 48.101563 L 44.570313 26.214844 L 40.679688 47.382813 C 40.464844 48.460938 39.742188 49.902344 38.59375 49.972656 L 19.511719 51.125 C 18.074219 51.269531 16.414063 50.261719 15.984375 48.964844 L 2.230469 5.980469 C 1.871094 4.757813 2.304688 2.308594 3.601563 2.308594 "/>
</g>
<path style=" stroke:none;fill-rule:evenodd;fill:rgb(37.599182%,17.999268%,50.19989%);fill-opacity:1;" d="M 95.90625 2.382813 L 99.289063 1.375 L 100.007813 1.15625 L 100.800781 1.011719 L 101.664063 0.871094 L 102.457031 0.726563 L 103.320313 0.652344 L 103.96875 0.652344 L 104.542969 0.582031 L 105.191406 0.582031 L 105.910156 0.507813 L 107.28125 0.507813 L 108 0.4375 L 110.953125 0.4375 L 111.742188 0.363281 L 117.214844 0.363281 L 118.007813 0.4375 L 121.03125 0.4375 L 121.824219 0.507813 L 123.191406 0.507813 L 123.910156 0.582031 L 125.207031 0.582031 L 125.855469 0.652344 L 126.433594 0.652344 L 127.296875 0.726563 L 128.160156 0.871094 L 128.953125 1.011719 L 129.816406 1.15625 L 130.535156 1.375 L 131.328125 1.660156 L 132.046875 1.878906 L 132.769531 2.238281 L 133.488281 2.597656 L 134.785156 3.316406 L 135.359375 3.75 L 136.007813 4.253906 L 136.511719 4.757813 L 137.089844 5.261719 L 137.59375 5.765625 L 138.097656 6.339844 L 138.527344 6.988281 L 138.960938 7.566406 L 139.390625 8.214844 L 139.753906 8.859375 L 140.039063 9.582031 L 140.398438 10.300781 L 140.6875 11.019531 L 140.902344 11.742188 L 141.121094 12.53125 L 141.335938 13.253906 L 141.480469 14.046875 L 141.550781 14.910156 L 141.625 15.699219 L 141.695313 16.566406 L 141.695313 26.574219 L 141.625 27.4375 L 141.550781 28.230469 L 141.40625 29.09375 L 141.265625 29.886719 L 141.046875 30.675781 L 140.832031 31.46875 L 140.542969 32.191406 L 140.183594 32.980469 L 139.03125 35.574219 L 139.609375 33.988281 L 139.894531 33.199219 L 140.113281 32.332031 L 140.257813 31.46875 L 140.398438 30.605469 L 140.542969 29.742188 L 140.617188 28.878906 L 140.617188 18.292969 L 140.542969 17.429688 L 140.472656 16.566406 L 140.328125 15.699219 L 140.183594 14.835938 L 139.96875 14.046875 L 139.753906 13.253906 L 139.175781 11.667969 L 138.886719 10.949219 L 138.527344 10.230469 L 138.097656 9.507813 L 137.664063 8.859375 L 137.230469 8.214844 L 136.726563 7.566406 L 136.222656 6.988281 L 135.71875 6.414063 L 135.144531 5.835938 L 134.566406 5.332031 L 133.921875 4.828125 L 133.273438 4.398438 L 132.625 3.964844 L 131.902344 3.605469 L 130.464844 2.886719 L 128.878906 2.308594 L 128.015625 2.09375 L 125.425781 1.660156 L 124.488281 1.589844 L 123.839844 1.515625 L 122.542969 1.515625 L 121.824219 1.445313 L 121.105469 1.445313 L 120.382813 1.375 L 118.078125 1.375 L 117.289063 1.300781 L 106.632813 1.300781 L 105.839844 1.375 L 104.328125 1.375 L 103.609375 1.445313 L 102.167969 1.445313 L 101.519531 1.515625 L 100.800781 1.515625 L 100.222656 1.589844 L 99.289063 1.660156 L 98.425781 1.804688 L 97.558594 1.949219 L 96.695313 2.164063 L 95.90625 2.382813 "/>
<path style=" stroke:none;fill-rule:evenodd;fill:rgb(37.599182%,17.999268%,50.19989%);fill-opacity:1;" d="M 121.175781 30.390625 L 123.265625 28.085938 L 122.832031 28.519531 L 122.398438 28.878906 L 121.894531 29.308594 L 120.886719 29.886719 L 120.3125 30.101563 L 119.664063 30.246094 L 119.089844 30.316406 L 111.457031 30.316406 L 110.808594 30.246094 L 110.230469 30.101563 L 109.65625 29.886719 L 109.078125 29.597656 L 108.574219 29.308594 L 108.144531 28.878906 L 107.710938 28.519531 L 107.28125 28.085938 L 106.921875 27.582031 L 106.632813 27.078125 L 106.34375 26.5 L 106.128906 25.925781 L 105.984375 25.421875 L 105.910156 24.773438 L 105.839844 24.125 L 105.839844 18.726563 L 105.910156 18.148438 L 105.984375 17.5 L 106.128906 16.925781 L 106.34375 16.347656 L 106.632813 15.773438 L 106.921875 15.269531 L 107.28125 14.765625 L 107.710938 14.332031 L 108.144531 13.902344 L 108.574219 13.542969 L 109.078125 13.253906 L 106.273438 14.835938 L 105.769531 15.125 L 105.191406 15.558594 L 104.328125 16.421875 L 103.96875 16.925781 L 103.609375 17.5 L 103.320313 18.078125 L 103.105469 18.652344 L 102.960938 19.300781 L 102.886719 19.949219 L 102.816406 20.597656 L 102.816406 26.214844 L 102.886719 26.933594 L 102.960938 27.582031 L 103.105469 28.15625 L 103.320313 28.804688 L 103.609375 29.382813 L 104.328125 30.390625 L 104.761719 30.894531 L 105.191406 31.324219 L 105.769531 31.6875 L 106.273438 32.046875 L 106.847656 32.332031 L 107.425781 32.550781 L 108.070313 32.695313 L 109.367188 32.835938 L 116.0625 32.835938 L 116.785156 32.765625 L 117.433594 32.695313 L 118.007813 32.550781 L 118.65625 32.332031 L 119.230469 32.046875 L 119.734375 31.6875 L 120.238281 31.324219 L 120.742188 30.894531 L 121.175781 30.390625 "/>
<path style=" stroke:none;fill-rule:evenodd;fill:rgb(41.999817%,27.799988%,58.799744%);fill-opacity:1;" d="M 100.222656 1.589844 C 103.609375 1.375 108.214844 1.300781 112.753906 1.300781 L 112.753906 14.046875 L 109.367188 14.046875 C 105.769531 14.046875 102.816406 16.996094 102.816406 20.597656 L 102.816406 26.214844 C 102.816406 29.886719 105.769531 32.835938 109.367188 32.835938 L 112.753906 32.835938 L 112.753906 45.582031 L 102.816406 45.582031 C 92.953125 45.582031 84.886719 37.660156 84.886719 27.941406 L 84.886719 19.230469 C 84.886719 9.507813 90.359375 2.238281 100.222656 1.589844 Z M 112.753906 1.300781 C 117.070313 1.300781 121.320313 1.375 124.488281 1.589844 C 134.351563 2.164063 140.617188 9.507813 140.617188 19.230469 L 140.617188 27.941406 C 140.617188 37.660156 133.414063 45.582031 123.550781 45.582031 L 112.753906 45.582031 L 112.753906 32.835938 L 116.0625 32.835938 C 119.664063 32.835938 122.617188 29.886719 122.617188 26.214844 L 122.617188 20.597656 C 122.617188 16.996094 119.664063 14.046875 116.0625 14.046875 L 112.753906 14.046875 L 112.753906 1.300781 "/>
<path style=" stroke:none;fill-rule:evenodd;fill:rgb(41.999817%,27.799988%,58.799744%);fill-opacity:1;" d="M 150.40625 3.53125 C 150.40625 1.515625 150.984375 0.871094 152.785156 0.871094 L 175.96875 0.871094 L 175.96875 13.542969 L 167.113281 13.542969 L 167.113281 23.910156 L 175.96875 23.910156 L 175.96875 40.972656 L 167.257813 32.476563 C 167.257813 36.871094 167.257813 40.972656 167.257813 45.363281 C 167.472656 46.878906 166.894531 47.738281 165.601563 48.101563 C 161.785156 48.101563 157.246094 48.101563 152.929688 48.101563 C 151.488281 48.171875 150.625 47.886719 150.40625 47.164063 Z M 175.96875 0.871094 L 184.609375 0.871094 C 191.015625 1.230469 197.710938 1.085938 200.449219 10.445313 C 200.878906 13.828125 201.238281 17.214844 200.449219 20.597656 C 198.289063 27.582031 194.542969 30.171875 190.007813 31.613281 C 195.046875 35.644531 199.007813 39.316406 203.472656 44.359375 C 204.191406 45.148438 203.398438 47.453125 202.246094 47.453125 L 184.75 47.453125 C 183.601563 47.453125 182.304688 47.09375 181.441406 46.300781 L 175.96875 40.972656 L 175.96875 23.910156 L 181.078125 23.910156 C 183.167969 23.910156 184.894531 22.179688 184.894531 20.09375 L 184.894531 17.355469 C 184.894531 15.269531 183.167969 13.542969 181.078125 13.542969 L 175.96875 13.542969 L 175.96875 0.871094 "/>
<path style=" stroke:none;fill-rule:evenodd;fill:rgb(37.599182%,17.999268%,50.19989%);fill-opacity:1;" d="M 208.441406 1.011719 L 210.960938 0.292969 L 211.320313 0.222656 L 226.65625 0.363281 L 226.945313 0.363281 L 227.230469 0.507813 L 227.449219 0.652344 L 227.664063 0.871094 L 227.808594 1.15625 L 227.878906 1.445313 L 227.953125 1.804688 L 227.953125 27.222656 L 226.511719 29.667969 L 226.511719 2.667969 L 226.441406 2.308594 L 226.367188 1.949219 L 226.222656 1.660156 L 226.007813 1.445313 L 225.792969 1.300781 L 225.503906 1.15625 L 225.144531 1.085938 L 208.800781 1.011719 L 208.441406 1.011719 "/>
<path style=" stroke:none;fill-rule:evenodd;fill:rgb(37.599182%,17.999268%,50.19989%);fill-opacity:1;" d="M 226.511719 29.667969 L 227.953125 27.222656 L 252.214844 27.222656 L 252.574219 27.292969 L 252.863281 27.4375 L 253.296875 27.871094 L 253.441406 28.15625 L 253.511719 28.519531 L 253.511719 28.878906 L 253.726563 31.46875 L 253.726563 31.109375 L 253.65625 30.75 L 253.441406 30.460938 L 253.296875 30.171875 L 253.007813 29.957031 L 252.71875 29.8125 L 252.359375 29.742188 L 251.929688 29.667969 L 226.511719 29.667969 "/>
<path style=" stroke:none;fill-rule:evenodd;fill:rgb(41.999817%,27.799988%,58.799744%);fill-opacity:1;" d="M 206.785156 3.460938 C 206.785156 2.382813 207.71875 1.011719 208.800781 1.011719 L 225.144531 1.085938 C 226.152344 1.15625 226.511719 2.019531 226.511719 3.027344 L 226.511719 29.667969 L 251.929688 29.667969 C 253.078125 29.667969 253.726563 30.390625 253.726563 31.46875 L 253.726563 44.71875 C 253.726563 45.652344 252.648438 46.804688 251.710938 46.734375 L 208.945313 45.363281 C 207.792969 45.292969 206.785156 44.214844 206.785156 43.0625 L 206.785156 3.460938 "/>
<path style=" stroke:none;fill-rule:evenodd;fill:rgb(37.599182%,17.999268%,50.19989%);fill-opacity:1;" d="M 260.640625 2.597656 L 270.71875 1.734375 L 271.078125 1.734375 L 261 2.597656 L 260.640625 2.597656 "/>
<g clip-path="url(#clip2)" clip-rule="nonzero">
<path style=" stroke:none;fill-rule:evenodd;fill:rgb(41.999817%,27.799988%,58.799744%);fill-opacity:1;" d="M 258.984375 5.046875 C 259.128906 3.246094 259.847656 2.453125 261 2.597656 C 269.566406 2.019531 278.0625 1.734375 286.632813 1.878906 L 286.632813 17.933594 C 283.320313 17.933594 280.007813 17.933594 276.695313 17.933594 C 276.625 23.476563 276.480469 29.023438 276.40625 34.636719 C 279.792969 34.855469 283.246094 35.140625 286.632813 35.429688 L 286.632813 50.910156 C 277.34375 50.332031 268.414063 49.179688 259.632813 47.738281 C 258.769531 47.453125 258.265625 46.949219 258.121094 46.375 C 258.40625 32.550781 258.695313 18.871094 258.984375 5.046875 Z M 286.632813 1.878906 C 287.855469 1.949219 289.152344 1.949219 290.449219 2.019531 C 304.632813 2.382813 313.847656 4.828125 316.800781 16.851563 C 318.382813 27.652344 318.382813 38.8125 313.34375 45.507813 C 307.871094 51.773438 301.535156 51.414063 294.984375 51.199219 C 292.175781 51.125 289.367188 51.050781 286.632813 50.910156 L 286.632813 35.429688 C 287.785156 35.5 288.9375 35.574219 290.015625 35.644531 C 293.761719 35.644531 296.136719 33.917969 296.785156 30.171875 C 296.785156 27.871094 296.785156 25.566406 296.785156 23.261719 C 296.0625 19.734375 293.398438 18.363281 289.945313 17.933594 C 288.792969 17.933594 287.710938 17.933594 286.632813 17.933594 L 286.632813 1.878906 "/>
</g>
<g clip-path="url(#clip3)" clip-rule="nonzero">
<path style=" stroke:none;fill-rule:evenodd;fill:rgb(37.599182%,17.999268%,50.19989%);fill-opacity:1;" d="M 320.257813 42.050781 L 319.824219 42.628906 L 319.320313 43.132813 L 318.816406 43.566406 L 318.3125 43.996094 L 317.808594 44.429688 L 317.304688 44.789063 L 316.800781 45.078125 L 316.296875 45.4375 L 315.792969 45.726563 L 308.59375 49.324219 C 310.246094 48.460938 311.832031 47.238281 313.34375 45.507813 C 318.382813 38.8125 318.382813 27.652344 316.800781 16.851563 C 316.078125 13.902344 314.929688 11.453125 313.414063 9.507813 C 313.054688 9.078125 312.625 8.574219 312.265625 8.140625 C 312.046875 7.925781 311.832031 7.78125 311.617188 7.566406 L 311.542969 7.566406 C 311.328125 7.347656 311.113281 7.132813 310.894531 6.988281 C 310.679688 6.773438 310.464844 6.628906 310.175781 6.484375 L 310.175781 6.414063 C 309.960938 6.269531 309.671875 6.125 309.457031 5.980469 L 309.382813 5.910156 C 309.167969 5.765625 308.953125 5.621094 308.664063 5.550781 L 308.664063 5.476563 L 308.59375 5.476563 C 308.375 5.332031 308.089844 5.1875 307.871094 5.046875 L 307.800781 5.046875 C 307.582031 4.902344 307.296875 4.828125 307.078125 4.683594 L 307.007813 4.683594 L 306.9375 4.613281 C 306.648438 4.542969 306.433594 4.46875 306.214844 4.324219 L 306.070313 4.324219 L 306 4.253906 C 305.785156 4.179688 305.496094 4.109375 305.28125 4.039063 L 305.207031 3.964844 L 305.0625 3.964844 C 304.847656 3.894531 304.558594 3.820313 304.34375 3.75 L 304.273438 3.675781 L 304.128906 3.675781 C 303.910156 3.605469 303.625 3.53125 303.335938 3.460938 L 303.265625 3.460938 L 303.121094 3.390625 C 302.902344 3.316406 302.617188 3.246094 302.328125 3.246094 L 302.257813 3.171875 L 302.113281 3.171875 C 301.894531 3.101563 301.609375 3.027344 301.320313 3.027344 L 301.175781 2.957031 L 301.03125 2.957031 C 300.742188 2.886719 300.457031 2.886719 300.167969 2.8125 L 300.023438 2.8125 C 299.734375 2.742188 299.449219 2.667969 299.160156 2.667969 L 299.015625 2.597656 L 298.800781 2.597656 C 298.582031 2.597656 298.367188 2.523438 298.078125 2.523438 L 297.863281 2.453125 L 297.648438 2.453125 C 297.433594 2.453125 297.214844 2.382813 296.929688 2.382813 L 296.710938 2.382813 L 296.496094 2.308594 C 296.207031 2.308594 295.992188 2.308594 295.703125 2.238281 L 295.273438 2.238281 C 295.054688 2.238281 294.839844 2.238281 294.625 2.164063 L 293.902344 2.164063 C 293.6875 2.164063 293.542969 2.09375 293.328125 2.09375 L 292.75 2.09375 C 292.535156 2.09375 292.246094 2.09375 292.03125 2.019531 L 291.457031 2.019531 C 291.167969 2.019531 290.808594 2.019531 290.449219 2.019531 L 289.511719 1.949219 L 287.640625 1.949219 L 286.777344 1.878906 L 276.625 1.878906 L 275.761719 1.949219 L 273.886719 1.949219 L 272.953125 2.019531 L 272.089844 2.019531 L 271.152344 2.09375 L 270.214844 2.09375 L 269.28125 2.164063 L 268.34375 2.164063 L 267.480469 2.238281 L 266.542969 2.308594 L 265.609375 2.308594 L 264.671875 2.382813 L 263.808594 2.453125 L 262.871094 2.523438 L 261.9375 2.597656 L 261 2.597656 L 271.078125 1.734375 L 271.945313 1.734375 L 272.808594 1.660156 L 273.671875 1.589844 L 274.535156 1.515625 L 275.398438 1.515625 L 276.265625 1.445313 L 277.128906 1.375 L 277.992188 1.375 L 278.855469 1.300781 L 279.71875 1.300781 L 280.582031 1.230469 L 281.449219 1.230469 L 282.3125 1.15625 L 284.039063 1.15625 L 284.902344 1.085938 L 287.496094 1.085938 L 288.359375 1.011719 L 293.542969 1.011719 L 294.40625 1.085938 L 297 1.085938 L 297.863281 1.15625 L 298.726563 1.15625 L 299.953125 1.230469 L 301.175781 1.230469 L 302.398438 1.300781 L 303.550781 1.375 L 304.632813 1.515625 L 305.785156 1.589844 L 306.792969 1.734375 L 307.871094 1.878906 L 309.886719 2.308594 L 310.824219 2.523438 L 311.761719 2.742188 L 312.625 3.027344 L 313.488281 3.316406 L 314.28125 3.675781 L 315.144531 4.039063 L 315.863281 4.46875 L 316.582031 4.902344 L 317.304688 5.332031 L 318.023438 5.835938 L 318.601563 6.414063 L 319.246094 6.988281 L 319.824219 7.566406 L 320.328125 8.214844 L 320.902344 8.933594 L 321.335938 9.726563 L 321.769531 10.515625 L 322.199219 11.308594 L 322.558594 12.171875 L 322.917969 13.109375 L 323.207031 14.117188 L 323.496094 15.195313 L 323.785156 17.070313 L 323.929688 18.003906 L 324 19.011719 L 324.070313 19.949219 L 324.214844 20.886719 L 324.289063 21.820313 L 324.359375 22.757813 L 324.359375 23.691406 L 324.433594 24.628906 L 324.433594 27.367188 L 324.359375 28.230469 L 324.359375 29.164063 L 324.289063 30.03125 L 324.144531 30.894531 L 324.070313 31.757813 L 323.929688 32.621094 L 323.785156 33.414063 L 323.640625 34.277344 L 323.425781 35.070313 L 323.207031 35.863281 L 322.992188 36.652344 L 322.777344 37.375 L 322.199219 38.8125 L 321.839844 39.535156 L 321.480469 40.179688 L 321.121094 40.828125 L 320.6875 41.476563 L 320.257813 42.050781 "/>
</g>
<path style=" stroke:none;fill-rule:evenodd;fill:rgb(37.599182%,17.999268%,50.19989%);fill-opacity:1;" d="M 290.015625 35.644531 L 289.726563 35.644531 C 289.65625 35.644531 289.511719 35.644531 289.441406 35.574219 L 289.367188 35.574219 C 285.046875 35.285156 280.726563 34.925781 276.40625 34.636719 C 276.480469 29.023438 276.625 23.476563 276.695313 17.933594 C 279.71875 17.933594 282.742188 17.933594 285.769531 17.933594 C 285.695313 22.542969 285.625 27.222656 285.550781 31.828125 C 289.078125 32.117188 292.535156 32.332031 295.992188 32.621094 C 295.054688 34.351563 293.472656 35.285156 291.382813 35.574219 L 290.015625 35.644531 "/>
<path style=" stroke:none;fill-rule:evenodd;fill:rgb(37.599182%,17.999268%,50.19989%);fill-opacity:1;" d="M 181.945313 46.660156 L 175.75 42.628906 L 175.609375 42.484375 L 175.390625 42.414063 L 175.246094 42.269531 L 167.257813 34.492188 C 167.257813 33.84375 167.257813 33.199219 167.257813 32.476563 L 181.441406 46.300781 C 181.511719 46.300781 181.582031 46.375 181.582031 46.445313 C 181.65625 46.445313 181.726563 46.519531 181.800781 46.589844 C 181.871094 46.589844 181.871094 46.660156 181.945313 46.660156 "/>
<path style=" stroke:none;fill-rule:evenodd;fill:rgb(37.599182%,17.999268%,50.19989%);fill-opacity:1;" d="M 182.230469 13.757813 L 182.160156 13.757813 L 182.015625 13.683594 C 181.726563 13.613281 181.367188 13.542969 181.078125 13.542969 L 177.984375 13.542969 L 178.199219 13.972656 L 178.273438 14.332031 L 178.414063 14.691406 L 178.414063 15.054688 L 178.488281 15.414063 L 178.488281 17.859375 L 178.414063 18.222656 L 178.414063 18.582031 L 178.273438 18.941406 L 178.199219 19.230469 L 178.054688 19.589844 L 177.839844 19.878906 L 177.625 20.164063 L 177.191406 20.597656 L 176.902344 20.8125 L 176.617188 21.027344 L 176.257813 21.171875 L 175.96875 21.246094 L 175.609375 21.390625 L 175.246094 21.390625 L 174.886719 21.460938 L 167.113281 21.460938 L 167.113281 23.910156 L 181.441406 23.910156 L 181.800781 23.835938 L 182.230469 23.691406 L 182.519531 23.621094 L 182.878906 23.40625 L 183.167969 23.261719 L 183.527344 23.046875 L 183.742188 22.757813 L 184.03125 22.46875 L 184.246094 22.179688 L 184.390625 21.894531 L 184.609375 21.53125 L 184.75 21.171875 L 184.824219 20.8125 L 184.894531 20.453125 L 184.894531 16.996094 L 184.824219 16.636719 L 184.75 16.277344 L 184.609375 15.917969 L 184.390625 15.558594 L 184.246094 15.269531 L 184.03125 14.980469 L 183.527344 14.476563 L 183.167969 14.1875 L 182.878906 14.046875 L 182.519531 13.902344 L 182.230469 13.757813 "/>
<path style=" stroke:none;fill-rule:evenodd;fill:rgb(37.599182%,17.999268%,50.19989%);fill-opacity:1;" d="M 181.367188 0.4375 L 178.199219 0.00390625 L 148.03125 0.00390625 L 147.527344 0.148438 L 147.167969 0.292969 L 146.878906 0.507813 L 146.664063 0.871094 L 146.519531 1.300781 L 146.449219 1.878906 L 146.375 2.523438 L 146.375 43.0625 L 150.40625 47.164063 L 150.40625 3.53125 C 150.40625 3.027344 150.40625 2.597656 150.480469 2.238281 C 150.625 1.734375 150.839844 1.375 151.199219 1.15625 L 151.273438 1.15625 C 151.34375 1.085938 151.488281 1.011719 151.632813 1.011719 C 151.777344 0.941406 151.992188 0.871094 152.136719 0.871094 L 152.207031 0.871094 C 152.351563 0.871094 152.566406 0.871094 152.785156 0.871094 L 181.367188 0.871094 Z M 178.199219 0.00390625 L 178.777344 0.00390625 L 179.28125 0.078125 L 179.855469 0.078125 L 180.433594 0.148438 L 181.007813 0.148438 L 181.367188 0.222656 L 181.367188 0.4375 Z M 181.367188 0.871094 L 184.609375 0.871094 L 181.367188 0.4375 Z M 181.367188 0.222656 L 181.582031 0.222656 L 182.089844 0.292969 L 182.664063 0.292969 L 183.167969 0.363281 L 189.503906 1.230469 L 185.832031 0.941406 L 185.183594 0.871094 L 184.609375 0.871094 L 181.367188 0.4375 L 181.367188 0.222656 "/>
<path style=" stroke:none;fill-rule:evenodd;fill:rgb(37.599182%,17.999268%,50.19989%);fill-opacity:1;" d="M 16.488281 49.828125 L 13.535156 46.519531 L 13.390625 46.300781 L 13.246094 46.085938 L 13.105469 45.871094 L 13.03125 45.652344 L 0.144531 5.261719 L 0.0703125 5.046875 L 0.0703125 4.757813 L 0 4.46875 L 0 3.964844 L 0.0703125 3.675781 L 0.0703125 3.390625 L 0.144531 3.101563 L 0.289063 2.8125 L 0.359375 2.597656 L 0.503906 2.382813 L 0.648438 2.164063 L 0.792969 2.019531 L 0.9375 1.949219 L 1.152344 1.804688 L 19.800781 1.804688 L 20.160156 1.878906 L 23.542969 2.382813 C 23.398438 2.308594 23.257813 2.308594 23.113281 2.308594 L 3.601563 2.308594 C 3.457031 2.308594 3.382813 2.308594 3.3125 2.382813 C 3.238281 2.382813 3.167969 2.382813 3.097656 2.453125 C 3.023438 2.453125 3.023438 2.523438 2.953125 2.523438 C 2.878906 2.597656 2.808594 2.667969 2.738281 2.742188 C 2.738281 2.8125 2.664063 2.8125 2.59375 2.886719 L 2.59375 2.957031 C 2.59375 3.027344 2.519531 3.101563 2.519531 3.171875 L 2.449219 3.171875 C 2.449219 3.246094 2.375 3.316406 2.375 3.390625 C 2.304688 3.53125 2.304688 3.605469 2.304688 3.675781 C 2.230469 3.75 2.230469 3.894531 2.230469 3.964844 C 2.160156 4.109375 2.160156 4.179688 2.160156 4.253906 C 2.160156 4.398438 2.160156 4.46875 2.160156 4.542969 L 2.160156 4.613281 C 2.089844 4.683594 2.089844 4.757813 2.089844 4.902344 C 2.089844 4.972656 2.089844 5.046875 2.089844 5.1875 C 2.160156 5.261719 2.160156 5.40625 2.160156 5.476563 C 2.160156 5.550781 2.160156 5.621094 2.160156 5.691406 C 2.230469 5.835938 2.230469 5.910156 2.230469 5.980469 L 15.984375 48.964844 C 16.054688 49.253906 16.273438 49.613281 16.488281 49.828125 "/>
<path style=" stroke:none;fill-rule:evenodd;fill:rgb(37.599182%,17.999268%,50.19989%);fill-opacity:1;" d="M 28.871094 16.421875 L 30.457031 4.253906 L 30.527344 3.820313 L 30.742188 3.316406 L 30.886719 2.886719 L 31.175781 2.382813 L 31.464844 2.019531 L 31.824219 1.734375 L 32.257813 1.515625 L 32.6875 1.375 L 46.945313 1.011719 L 52.054688 1.445313 L 36.863281 1.878906 C 36.71875 1.878906 36.578125 1.949219 36.359375 1.949219 C 36.214844 2.019531 36.074219 2.09375 36 2.164063 C 35.855469 2.308594 35.710938 2.382813 35.570313 2.523438 C 35.496094 2.667969 35.351563 2.8125 35.28125 2.957031 C 34.847656 3.53125 34.632813 4.324219 34.488281 4.972656 L 31.609375 27.507813 L 28.871094 16.421875 "/>
<path style=" stroke:none;fill-rule:evenodd;fill:rgb(37.599182%,17.999268%,50.19989%);fill-opacity:1;" d="M 55.511719 10.734375 L 56.953125 3.171875 L 57.023438 2.8125 L 57.167969 2.453125 L 57.382813 2.164063 L 57.601563 1.804688 L 57.816406 1.515625 L 58.105469 1.300781 L 58.390625 1.15625 L 74.808594 1.15625 L 81.648438 1.589844 L 64.585938 1.589844 C 64.441406 1.589844 64.367188 1.589844 64.222656 1.660156 C 64.152344 1.660156 64.007813 1.734375 63.9375 1.804688 C 63.792969 1.878906 63.71875 1.949219 63.648438 2.019531 L 63.578125 2.019531 C 63.503906 2.09375 63.433594 2.238281 63.359375 2.308594 C 63.289063 2.453125 63.214844 2.523438 63.144531 2.667969 C 63.074219 2.8125 63 2.886719 62.929688 3.027344 C 62.855469 3.316406 62.710938 3.53125 62.710938 3.75 L 58.320313 26.070313 L 55.511719 10.734375 "/>
<path style=" stroke:none;fill-rule:evenodd;fill:rgb(37.599182%,17.999268%,50.19989%);fill-opacity:1;" d="M 50.472656 48.605469 L 45.648438 45.4375 L 45.433594 45.292969 L 45.359375 45.148438 L 45.214844 45.003906 L 45.144531 44.863281 L 42.839844 35.644531 L 44.570313 26.214844 L 50.113281 48.101563 C 50.183594 48.316406 50.328125 48.535156 50.472656 48.605469 "/>
</g>
</svg>
